<ttFont>
    <TTGlyph name="A" xMin="-24" yMin="-34" xMax="466" yMax="677">
      <contour>
        <pt x="381" y="658" on="1"/>
        <pt x="376" y="605" on="0"/>
        <pt x="376" y="546" on="1"/>
        <pt x="376" y="303" on="0"/>
        <pt x="466" y="-31" on="1"/>
        <pt x="463" y="-33" on="0"/>
        <pt x="458" y="-34" on="1"/>
        <pt x="432" y="-34" on="0"/>
        <pt x="419" y="-19" on="1"/>
        <pt x="385" y="53" on="0"/>
        <pt x="345" y="193" on="1"/>
        <pt x="277" y="182" on="0"/>
        <pt x="160" y="182" on="0"/>
        <pt x="137" y="184" on="1"/>
        <pt x="90" y="86" on="0"/>
        <pt x="32" y="-19" on="1"/>
        <pt x="14" y="-34" on="0"/>
        <pt x="-24" y="-34" on="0"/>
        <pt x="-24" y="-31" on="1"/>
        <pt x="14" y="44" on="0"/>
        <pt x="76" y="192" on="1"/>
        <pt x="64" y="194" on="0"/>
        <pt x="38" y="200" on="1"/>
        <pt x="23" y="216" on="0"/>
        <pt x="23" y="244" on="1"/>
        <pt x="23" y="251" on="0"/>
        <pt x="29" y="251" on="0"/>
        <pt x="38" y="248" on="1"/>
        <pt x="59" y="242" on="0"/>
        <pt x="94" y="238" on="1"/>
        <pt x="190" y="473" on="0"/>
        <pt x="227" y="619" on="1"/>
        <pt x="337" y="677" on="1"/>
        <pt x="365" y="677" on="0"/>
      </contour>
      <contour>
        <pt x="161" y="235" on="1"/>
        <pt x="255" y="237" on="0"/>
        <pt x="328" y="258" on="1"/>
        <pt x="287" y="413" on="0"/>
        <pt x="276" y="522" on="1"/>
        <pt x="219" y="365" on="0"/>
      </contour>
    </TTGlyph>
    <TTGlyph name="AE" xMin="-8" yMin="-34" xMax="739" yMax="677">
      <contour>
        <pt x="346" y="677" on="1"/>
        <pt x="426" y="635" on="0"/>
        <pt x="640" y="635" on="0"/>
        <pt x="722" y="677" on="1"/>
        <pt x="739" y="651" on="1"/>
        <pt x="706" y="565" on="1"/>
        <pt x="639" y="556" on="0"/>
        <pt x="510" y="556" on="0"/>
        <pt x="448" y="566" on="1"/>
        <pt x="414" y="413" on="0"/>
        <pt x="410" y="305" on="1"/>
        <pt x="532" y="329" on="0"/>
        <pt x="634" y="373" on="1"/>
        <pt x="643" y="356" on="1"/>
        <pt x="613" y="287" on="1"/>
        <pt x="505" y="261" on="0"/>
        <pt x="410" y="247" on="1"/>
        <pt x="417" y="24" on="0"/>
        <pt x="640" y="24" on="0"/>
        <pt x="681" y="205" on="1"/>
        <pt x="683" y="213" on="0"/>
        <pt x="688" y="213" on="1"/>
        <pt x="702" y="213" on="0"/>
        <pt x="719" y="199" on="1"/>
        <pt x="678" y="-33" on="0"/>
        <pt x="515" y="-33" on="1"/>
        <pt x="354" y="-33" on="0"/>
        <pt x="332" y="237" on="1"/>
        <pt x="258" y="231" on="0"/>
        <pt x="201" y="231" on="0"/>
        <pt x="194" y="231" on="1"/>
        <pt x="118" y="86" on="0"/>
        <pt x="48" y="-19" on="1"/>
        <pt x="30" y="-34" on="0"/>
        <pt x="-8" y="-34" on="0"/>
        <pt x="-8" y="-31" on="1"/>
        <pt x="77" y="126" on="0"/>
        <pt x="130" y="236" on="1"/>
        <pt x="86" y="241" on="0"/>
        <pt x="54" y="252" on="1"/>
        <pt x="39" y="269" on="0"/>
        <pt x="39" y="295" on="0"/>
        <pt x="42" y="295" on="1"/>
        <pt x="83" y="284" on="0"/>
        <pt x="151" y="282" on="1"/>
        <pt x="246" y="489" on="0"/>
        <pt x="273" y="627" on="1"/>
      </contour>
      <contour>
        <pt x="220" y="282" on="1"/>
        <pt x="262" y="283" on="0"/>
        <pt x="329" y="292" on="1"/>
        <pt x="328" y="310" on="0"/>
        <pt x="328" y="458" on="0"/>
        <pt x="344" y="561" on="1"/>
        <pt x="291" y="420" on="0"/>
      </contour>
    </TTGlyph>
    <TTGlyph name="Aacute" xMin="-24" yMin="-34" xMax="466" yMax="894">
      <contour>
        <pt x="381" y="658" on="1"/>
        <pt x="376" y="605" on="0"/>
        <pt x="376" y="546" on="1"/>
        <pt x="376" y="303" on="0"/>
        <pt x="466" y="-31" on="1"/>
        <pt x="463" y="-33" on="0"/>
        <pt x="458" y="-34" on="1"/>
        <pt x="432" y="-34" on="0"/>
        <pt x="419" y="-19" on="1"/>
        <pt x="385" y="53" on="0"/>
        <pt x="345" y="193" on="1"/>
        <pt x="277" y="182" on="0"/>
        <pt x="160" y="182" on="0"/>
        <pt x="137" y="184" on="1"/>
        <pt x="90" y="86" on="0"/>
        <pt x="32" y="-19" on="1"/>
        <pt x="14" y="-34" on="0"/>
        <pt x="-24" y="-34" on="0"/>
        <pt x="-24" y="-31" on="1"/>
        <pt x="14" y="44" on="0"/>
        <pt x="76" y="192" on="1"/>
        <pt x="64" y="194" on="0"/>
        <pt x="38" y="200" on="1"/>
        <pt x="23" y="216" on="0"/>
        <pt x="23" y="244" on="1"/>
        <pt x="23" y="251" on="0"/>
        <pt x="29" y="251" on="0"/>
        <pt x="38" y="248" on="1"/>
        <pt x="59" y="242" on="0"/>
        <pt x="94" y="238" on="1"/>
        <pt x="190" y="473" on="0"/>
        <pt x="227" y="619" on="1"/>
        <pt x="337" y="677" on="1"/>
        <pt x="365" y="677" on="0"/>
      </contour>
      <contour>
        <pt x="161" y="235" on="1"/>
        <pt x="255" y="237" on="0"/>
        <pt x="328" y="258" on="1"/>
        <pt x="287" y="413" on="0"/>
        <pt x="276" y="522" on="1"/>
        <pt x="219" y="365" on="0"/>
      </contour>
      <contour>
        <pt x="411" y="884" on="1"/>
        <pt x="423" y="797" on="1"/>
        <pt x="380" y="760" on="0"/>
        <pt x="296" y="717" on="0"/>
        <pt x="237" y="699" on="1"/>
        <pt x="229" y="700" on="0"/>
        <pt x="204" y="727" on="0"/>
        <pt x="204" y="737" on="1"/>
        <pt x="318" y="789" on="0"/>
        <pt x="395" y="894" on="1"/>
      </contour>
    </TTGlyph>
    <TTGlyph name="Acircumflex" xMin="-24" yMin="-34" xMax="466" yMax="884">
      <component glyphName="A" x="0" y="0" flags="0x1004"/>
      <component glyphName="circumflex" x="134" y="177" flags="0x1004"/>
    </TTGlyph>
    <TTGlyph name="Adieresis" xMin="-24" yMin="-34" xMax="491" yMax="851">
      <component glyphName="A" x="0" y="0" flags="0x1004"/>
      <component glyphName="dieresis" x="140" y="177" flags="0x1004"/>
    </TTGlyph>
    <TTGlyph name="Agrave" xMin="-24" yMin="-34" xMax="466" yMax="894">
      <component glyphName="A" x="0" y="0" flags="0x1004"/>
      <component glyphName="grave" x="180" y="177" flags="0x1004"/>
    </TTGlyph>
    <TTGlyph name="Aring" xMin="-24" yMin="-34" xMax="466" yMax="882">
      <contour>
        <pt x="381" y="658" on="1"/>
        <pt x="376" y="605" on="0"/>
        <pt x="376" y="546" on="1"/>
        <pt x="376" y="303" on="0"/>
        <pt x="466" y="-31" on="1"/>
        <pt x="463" y="-33" on="0"/>
        <pt x="458" y="-34" on="1"/>
        <pt x="432" y="-34" on="0"/>
        <pt x="419" y="-19" on="1"/>
        <pt x="385" y="53" on="0"/>
        <pt x="345" y="193" on="1"/>
        <pt x="277" y="182" on="0"/>
        <pt x="160" y="182" on="0"/>
        <pt x="137" y="184" on="1"/>
        <pt x="90" y="86" on="0"/>
        <pt x="32" y="-19" on="1"/>
        <pt x="14" y="-34" on="0"/>
        <pt x="-24" y="-34" on="0"/>
        <pt x="-24" y="-31" on="1"/>
        <pt x="14" y="44" on="0"/>
        <pt x="76" y="192" on="1"/>
        <pt x="64" y="194" on="0"/>
        <pt x="38" y="200" on="1"/>
        <pt x="23" y="216" on="0"/>
        <pt x="23" y="244" on="1"/>
        <pt x="23" y="251" on="0"/>
        <pt x="29" y="251" on="0"/>
        <pt x="38" y="248" on="1"/>
        <pt x="59" y="242" on="0"/>
        <pt x="94" y="238" on="1"/>
        <pt x="190" y="473" on="0"/>
        <pt x="227" y="619" on="1"/>
        <pt x="337" y="677" on="1"/>
        <pt x="365" y="677" on="0"/>
      </contour>
      <contour>
        <pt x="241" y="824" on="0"/>
        <pt x="303" y="882" on="0"/>
        <pt x="386" y="882" on="0"/>
        <pt x="434" y="841" on="0"/>
        <pt x="434" y="756" on="0"/>
        <pt x="371" y="698" on="0"/>
        <pt x="288" y="698" on="0"/>
        <pt x="241" y="739" on="0"/>
      </contour>
      <contour>
        <pt x="343" y="831" on="1"/>
        <pt x="325" y="831" on="0"/>
        <pt x="301" y="805" on="0"/>
        <pt x="301" y="785" on="1"/>
        <pt x="301" y="749" on="0"/>
        <pt x="331" y="749" on="1"/>
        <pt x="349" y="749" on="0"/>
        <pt x="374" y="775" on="0"/>
        <pt x="374" y="795" on="1"/>
        <pt x="374" y="831" on="0"/>
      </contour>
      <contour>
        <pt x="161" y="235" on="1"/>
        <pt x="255" y="237" on="0"/>
        <pt x="328" y="258" on="1"/>
        <pt x="287" y="413" on="0"/>
        <pt x="276" y="522" on="1"/>
        <pt x="219" y="365" on="0"/>
      </contour>
    </TTGlyph>
    <TTGlyph name="Atilde" xMin="-24" yMin="-34" xMax="477" yMax="850">
      <contour>
        <pt x="381" y="658" on="1"/>
        <pt x="376" y="605" on="0"/>
        <pt x="376" y="546" on="1"/>
        <pt x="376" y="303" on="0"/>
        <pt x="466" y="-31" on="1"/>
        <pt x="463" y="-33" on="0"/>
        <pt x="458" y="-34" on="1"/>
        <pt x="432" y="-34" on="0"/>
        <pt x="419" y="-19" on="1"/>
        <pt x="385" y="53" on="0"/>
        <pt x="345" y="193" on="1"/>
        <pt x="277" y="182" on="0"/>
        <pt x="160" y="182" on="0"/>
        <pt x="137" y="184" on="1"/>
        <pt x="90" y="86" on="0"/>
        <pt x="32" y="-19" on="1"/>
        <pt x="14" y="-34" on="0"/>
        <pt x="-24" y="-34" on="0"/>
        <pt x="-24" y="-31" on="1"/>
        <pt x="14" y="44" on="0"/>
        <pt x="76" y="192" on="1"/>
        <pt x="64" y="194" on="0"/>
        <pt x="38" y="200" on="1"/>
        <pt x="23" y="216" on="0"/>
        <pt x="23" y="244" on="1"/>
        <pt x="23" y="251" on="0"/>
        <pt x="29" y="251" on="0"/>
        <pt x="38" y="248" on="1"/>
        <pt x="59" y="242" on="0"/>
        <pt x="94" y="238" on="1"/>
        <pt x="190" y="473" on="0"/>
        <pt x="227" y="619" on="1"/>
        <pt x="337" y="677" on="1"/>
        <pt x="365" y="677" on="0"/>
      </contour>
      <contour>
        <pt x="161" y="235" on="1"/>
        <pt x="255" y="237" on="0"/>
        <pt x="328" y="258" on="1"/>
        <pt x="287" y="413" on="0"/>
        <pt x="276" y="522" on="1"/>
        <pt x="219" y="365" on="0"/>
      </contour>
      <contour>
        <pt x="212" y="723" on="1"/>
        <pt x="198" y="731" on="1"/>
        <pt x="180" y="783" on="1"/>
        <pt x="192" y="805" on="0"/>
        <pt x="241" y="835" on="0"/>
        <pt x="292" y="835" on="0"/>
        <pt x="357" y="806" on="0"/>
        <pt x="377" y="806" on="1"/>
        <pt x="421" y="806" on="0"/>
        <pt x="451" y="850" on="1"/>
        <pt x="461" y="850" on="0"/>
        <pt x="477" y="836" on="0"/>
        <pt x="477" y="829" on="1"/>
        <pt x="437" y="735" on="0"/>
        <pt x="368" y="735" on="1"/>
        <pt x="344" y="735" on="0"/>
        <pt x="286" y="752" on="0"/>
        <pt x="275" y="752" on="1"/>
        <pt x="248" y="752" on="0"/>
      </contour>
    </TTGlyph>
    <TTGlyph name="B" xMin="30" yMin="-28" xMax="499" yMax="682">
      <contour>
        <pt x="183" y="320" on="1"/>
        <pt x="181" y="238" on="0"/>
        <pt x="162" y="94" on="0"/>
        <pt x="151" y="72" on="1"/>
        <pt x="139" y="57" on="0"/>
        <pt x="112" y="57" on="0"/>
        <pt x="112" y="60" on="1"/>
        <pt x="126" y="153" on="0"/>
        <pt x="126" y="235" on="1"/>
        <pt x="126" y="527" on="0"/>
        <pt x="38" y="615" on="1"/>
        <pt x="79" y="682" on="1"/>
        <pt x="139" y="631" on="0"/>
        <pt x="255" y="610" on="1"/>
        <pt x="299" y="602" on="0"/>
        <pt x="340" y="592" on="1"/>
        <pt x="428" y="572" on="0"/>
        <pt x="428" y="513" on="1"/>
        <pt x="428" y="487" on="0"/>
        <pt x="375" y="431" on="0"/>
        <pt x="340" y="410" on="1"/>
        <pt x="277" y="372" on="0"/>
        <pt x="247" y="361" on="1"/>
        <pt x="371" y="352" on="0"/>
        <pt x="499" y="242" on="0"/>
        <pt x="499" y="88" on="0"/>
        <pt x="352" y="-28" on="0"/>
        <pt x="214" y="-28" on="1"/>
        <pt x="123" y="-28" on="0"/>
        <pt x="45" y="-11" on="1"/>
        <pt x="30" y="4" on="0"/>
        <pt x="30" y="32" on="0"/>
        <pt x="36" y="32" on="0"/>
        <pt x="51" y="28" on="1"/>
        <pt x="100" y="17" on="0"/>
        <pt x="152" y="17" on="1"/>
        <pt x="256" y="17" on="0"/>
        <pt x="387" y="104" on="0"/>
        <pt x="387" y="178" on="1"/>
        <pt x="387" y="221" on="0"/>
        <pt x="352" y="254" on="1"/>
        <pt x="289" y="313" on="0"/>
      </contour>
      <contour>
        <pt x="168" y="566" on="1"/>
        <pt x="184" y="525" on="0"/>
        <pt x="184" y="393" on="1"/>
        <pt x="239" y="415" on="0"/>
        <pt x="315" y="480" on="0"/>
        <pt x="315" y="516" on="0"/>
        <pt x="262" y="539" on="0"/>
        <pt x="182" y="558" on="0"/>
      </contour>
    </TTGlyph>
    <TTGlyph name="C" xMin="30" yMin="-32" xMax="478" yMax="677">
      <contour>
        <pt x="463" y="651" on="1"/>
        <pt x="430" y="565" on="1"/>
        <pt x="402" y="569" on="0"/>
        <pt x="371" y="569" on="1"/>
        <pt x="301" y="569" on="0"/>
        <pt x="197" y="520" on="0"/>
        <pt x="170" y="480" on="1"/>
        <pt x="119" y="401" on="0"/>
        <pt x="119" y="307" on="1"/>
        <pt x="119" y="184" on="0"/>
        <pt x="195" y="55" on="0"/>
        <pt x="248" y="55" on="1"/>
        <pt x="316" y="55" on="0"/>
        <pt x="408" y="163" on="0"/>
        <pt x="440" y="275" on="1"/>
        <pt x="442" y="283" on="0"/>
        <pt x="447" y="283" on="1"/>
        <pt x="461" y="283" on="0"/>
        <pt x="478" y="269" on="1"/>
        <pt x="458" y="132" on="0"/>
        <pt x="315" y="-32" on="0"/>
        <pt x="138" y="-32" on="0"/>
        <pt x="30" y="124" on="0"/>
        <pt x="30" y="252" on="1"/>
        <pt x="30" y="362" on="0"/>
        <pt x="87" y="458" on="1"/>
        <pt x="118" y="511" on="0"/>
        <pt x="210" y="597" on="0"/>
        <pt x="356" y="663" on="0"/>
        <pt x="446" y="677" on="1"/>
      </contour>
    </TTGlyph>
    <TTGlyph name="Ccedilla" xMin="30" yMin="-225" xMax="478" yMax="677">
      <contour>
        <pt x="463" y="651" on="1"/>
        <pt x="430" y="565" on="1"/>
        <pt x="402" y="569" on="0"/>
        <pt x="371" y="569" on="1"/>
        <pt x="301" y="569" on="0"/>
        <pt x="197" y="520" on="0"/>
        <pt x="170" y="480" on="1"/>
        <pt x="119" y="401" on="0"/>
        <pt x="119" y="307" on="1"/>
        <pt x="119" y="184" on="0"/>
        <pt x="195" y="55" on="0"/>
        <pt x="248" y="55" on="1"/>
        <pt x="316" y="55" on="0"/>
        <pt x="408" y="163" on="0"/>
        <pt x="440" y="275" on="1"/>
        <pt x="442" y="283" on="0"/>
        <pt x="447" y="283" on="1"/>
        <pt x="461" y="283" on="0"/>
        <pt x="478" y="269" on="1"/>
        <pt x="458" y="132" on="0"/>
        <pt x="315" y="-32" on="0"/>
        <pt x="233" y="-32" on="1"/>
        <pt x="225" y="-32" on="0"/>
        <pt x="211" y="-30" on="1"/>
        <pt x="194" y="-63" on="1"/>
        <pt x="210" y="-57" on="0"/>
        <pt x="262" y="-57" on="0"/>
        <pt x="308" y="-92" on="0"/>
        <pt x="308" y="-163" on="0"/>
        <pt x="240" y="-225" on="0"/>
        <pt x="142" y="-225" on="0"/>
        <pt x="108" y="-206" on="1"/>
        <pt x="103" y="-191" on="1"/>
        <pt x="128" y="-143" on="1"/>
        <pt x="150" y="-183" on="0"/>
        <pt x="194" y="-183" on="1"/>
        <pt x="216" y="-183" on="0"/>
        <pt x="244" y="-154" on="0"/>
        <pt x="244" y="-120" on="0"/>
        <pt x="222" y="-99" on="0"/>
        <pt x="182" y="-99" on="0"/>
        <pt x="164" y="-108" on="1"/>
        <pt x="150" y="-89" on="1"/>
        <pt x="179" y="-25" on="1"/>
        <pt x="108" y="-4" on="0"/>
        <pt x="30" y="143" on="0"/>
        <pt x="30" y="252" on="1"/>
        <pt x="30" y="362" on="0"/>
        <pt x="87" y="458" on="1"/>
        <pt x="118" y="511" on="0"/>
        <pt x="210" y="597" on="0"/>
        <pt x="356" y="663" on="0"/>
        <pt x="446" y="677" on="1"/>
      </contour>
    </TTGlyph>
    <TTGlyph name="D" xMin="35" yMin="-11" xMax="534" yMax="682">
      <contour>
        <pt x="181" y="512" on="1"/>
        <pt x="184" y="467" on="0"/>
        <pt x="184" y="277" on="0"/>
        <pt x="163" y="98" on="0"/>
        <pt x="151" y="72" on="1"/>
        <pt x="138" y="57" on="0"/>
        <pt x="112" y="57" on="0"/>
        <pt x="112" y="60" on="1"/>
        <pt x="126" y="172" on="0"/>
        <pt x="126" y="235" on="1"/>
        <pt x="126" y="526" on="0"/>
        <pt x="37" y="615" on="1"/>
        <pt x="79" y="682" on="1"/>
        <pt x="161" y="602" on="0"/>
        <pt x="281" y="526" on="1"/>
        <pt x="391" y="457" on="0"/>
        <pt x="458" y="393" on="1"/>
        <pt x="492" y="361" on="0"/>
        <pt x="534" y="275" on="0"/>
        <pt x="534" y="172" on="0"/>
        <pt x="488" y="82" on="0"/>
        <pt x="419" y="26" on="0"/>
        <pt x="376" y="7" on="1"/>
        <pt x="240" y="-52" on="0"/>
        <pt x="50" y="-11" on="1"/>
        <pt x="35" y="6" on="0"/>
        <pt x="35" y="32" on="0"/>
        <pt x="41" y="32" on="0"/>
        <pt x="56" y="28" on="1"/>
        <pt x="105" y="17" on="0"/>
        <pt x="158" y="17" on="1"/>
        <pt x="275" y="17" on="0"/>
        <pt x="425" y="142" on="0"/>
        <pt x="425" y="227" on="1"/>
        <pt x="425" y="384" on="0"/>
      </contour>
    </TTGlyph>
    <TTGlyph name="Delta" xMin="25" yMin="-28" xMax="493" yMax="677">
      <contour>
        <pt x="276" y="677" on="1"/>
        <pt x="304" y="677" on="0"/>
        <pt x="320" y="658" on="1"/>
        <pt x="378" y="540" on="0"/>
        <pt x="480" y="173" on="0"/>
        <pt x="493" y="13" on="1"/>
        <pt x="407" y="-27" on="1"/>
        <pt x="406" y="-28" on="1"/>
        <pt x="324" y="-6" on="0"/>
        <pt x="143" y="-6" on="0"/>
        <pt x="29" y="-28" on="1"/>
        <pt x="25" y="-28" on="0"/>
        <pt x="25" y="-18" on="0"/>
        <pt x="49" y="42" on="0"/>
        <pt x="89" y="152" on="0"/>
        <pt x="112" y="224" on="1"/>
        <pt x="165" y="392" on="0"/>
        <pt x="197" y="629" on="1"/>
      </contour>
      <contour>
        <pt x="383" y="36" on="1"/>
        <pt x="384" y="89" on="1"/>
        <pt x="384" y="319" on="0"/>
        <pt x="286" y="608" on="1"/>
        <pt x="268" y="498" on="0"/>
        <pt x="177" y="198" on="0"/>
        <pt x="124" y="82" on="1"/>
        <pt x="301" y="62" on="0"/>
        <pt x="353" y="46" on="1"/>
        <pt x="369" y="41" on="0"/>
      </contour>
    </TTGlyph>
    <TTGlyph name="E" xMin="59" yMin="-33" xMax="507" yMax="677">
      <contour>
        <pt x="421" y="367" on="1"/>
        <pt x="391" y="298" on="1"/>
        <pt x="333" y="287" on="0"/>
        <pt x="227" y="287" on="0"/>
        <pt x="188" y="290" on="1"/>
        <pt x="187" y="276" on="0"/>
        <pt x="187" y="250" on="1"/>
        <pt x="187" y="152" on="0"/>
        <pt x="244" y="25" on="0"/>
        <pt x="359" y="25" on="0"/>
        <pt x="429" y="110" on="0"/>
        <pt x="456" y="205" on="1"/>
        <pt x="458" y="213" on="0"/>
        <pt x="463" y="213" on="1"/>
        <pt x="477" y="213" on="0"/>
        <pt x="494" y="199" on="1"/>
        <pt x="448" y="-33" on="0"/>
        <pt x="285" y="-33" on="1"/>
        <pt x="112" y="-33" on="0"/>
        <pt x="106" y="299" on="1"/>
        <pt x="86" y="303" on="1"/>
        <pt x="77" y="306" on="0"/>
        <pt x="60" y="341" on="0"/>
        <pt x="59" y="351" on="1"/>
        <pt x="64" y="357" on="1"/>
        <pt x="91" y="353" on="0"/>
        <pt x="107" y="352" on="1"/>
        <pt x="112" y="506" on="0"/>
        <pt x="125" y="582" on="1"/>
        <pt x="101" y="588" on="1"/>
        <pt x="92" y="594" on="0"/>
        <pt x="81" y="621" on="0"/>
        <pt x="81" y="633" on="0"/>
        <pt x="83" y="633" on="1"/>
        <pt x="154" y="627" on="1"/>
        <pt x="227" y="677" on="1"/>
        <pt x="253" y="661" on="1"/>
        <pt x="241" y="626" on="1"/>
        <pt x="393" y="628" on="0"/>
        <pt x="490" y="677" on="1"/>
        <pt x="507" y="651" on="1"/>
        <pt x="474" y="565" on="1"/>
        <pt x="404" y="556" on="0"/>
        <pt x="278" y="556" on="0"/>
        <pt x="226" y="563" on="1"/>
        <pt x="202" y="461" on="0"/>
        <pt x="192" y="349" on="1"/>
        <pt x="215" y="349" on="1"/>
        <pt x="323" y="349" on="0"/>
        <pt x="412" y="384" on="1"/>
      </contour>
    </TTGlyph>
    <TTGlyph name="Eacute" xMin="59" yMin="-33" xMax="507" yMax="894">
      <contour>
        <pt x="421" y="367" on="1"/>
        <pt x="391" y="298" on="1"/>
        <pt x="333" y="287" on="0"/>
        <pt x="227" y="287" on="0"/>
        <pt x="188" y="290" on="1"/>
        <pt x="187" y="276" on="0"/>
        <pt x="187" y="250" on="1"/>
        <pt x="187" y="152" on="0"/>
        <pt x="244" y="25" on="0"/>
        <pt x="359" y="25" on="0"/>
        <pt x="429" y="110" on="0"/>
        <pt x="456" y="205" on="1"/>
        <pt x="458" y="213" on="0"/>
        <pt x="463" y="213" on="1"/>
        <pt x="477" y="213" on="0"/>
        <pt x="494" y="199" on="1"/>
        <pt x="448" y="-33" on="0"/>
        <pt x="285" y="-33" on="1"/>
        <pt x="112" y="-33" on="0"/>
        <pt x="106" y="299" on="1"/>
        <pt x="86" y="303" on="1"/>
        <pt x="77" y="306" on="0"/>
        <pt x="60" y="341" on="0"/>
        <pt x="59" y="351" on="1"/>
        <pt x="64" y="357" on="1"/>
        <pt x="91" y="353" on="0"/>
        <pt x="107" y="352" on="1"/>
        <pt x="112" y="506" on="0"/>
        <pt x="125" y="582" on="1"/>
        <pt x="101" y="588" on="1"/>
        <pt x="92" y="594" on="0"/>
        <pt x="81" y="621" on="0"/>
        <pt x="81" y="633" on="0"/>
        <pt x="83" y="633" on="1"/>
        <pt x="154" y="627" on="1"/>
        <pt x="227" y="677" on="1"/>
        <pt x="253" y="661" on="1"/>
        <pt x="241" y="626" on="1"/>
        <pt x="393" y="628" on="0"/>
        <pt x="490" y="677" on="1"/>
        <pt x="507" y="651" on="1"/>
        <pt x="474" y="565" on="1"/>
        <pt x="404" y="556" on="0"/>
        <pt x="278" y="556" on="0"/>
        <pt x="226" y="563" on="1"/>
        <pt x="202" y="461" on="0"/>
        <pt x="192" y="349" on="1"/>
        <pt x="215" y="349" on="1"/>
        <pt x="323" y="349" on="0"/>
        <pt x="412" y="384" on="1"/>
      </contour>
      <contour>
        <pt x="432" y="884" on="1"/>
        <pt x="444" y="797" on="1"/>
        <pt x="401" y="760" on="0"/>
        <pt x="317" y="717" on="0"/>
        <pt x="258" y="699" on="1"/>
        <pt x="250" y="700" on="0"/>
        <pt x="225" y="727" on="0"/>
        <pt x="225" y="737" on="1"/>
        <pt x="339" y="789" on="0"/>
        <pt x="416" y="894" on="1"/>
      </contour>
    </TTGlyph>
    <TTGlyph name="Ecircumflex" xMin="59" yMin="-33" xMax="507" yMax="884">
      <component glyphName="E" x="0" y="0" flags="0x1004"/>
      <component glyphName="circumflex" x="143" y="177" flags="0x1004"/>
    </TTGlyph>
    <TTGlyph name="Edieresis" xMin="59" yMin="-33" xMax="507" yMax="851">
      <contour>
        <pt x="421" y="367" on="1"/>
        <pt x="391" y="298" on="1"/>
        <pt x="333" y="287" on="0"/>
        <pt x="227" y="287" on="0"/>
        <pt x="188" y="290" on="1"/>
        <pt x="187" y="276" on="0"/>
        <pt x="187" y="250" on="1"/>
        <pt x="187" y="152" on="0"/>
        <pt x="244" y="25" on="0"/>
        <pt x="359" y="25" on="0"/>
        <pt x="429" y="110" on="0"/>
        <pt x="456" y="205" on="1"/>
        <pt x="458" y="213" on="0"/>
        <pt x="463" y="213" on="1"/>
        <pt x="477" y="213" on="0"/>
        <pt x="494" y="199" on="1"/>
        <pt x="448" y="-33" on="0"/>
        <pt x="285" y="-33" on="1"/>
        <pt x="112" y="-33" on="0"/>
        <pt x="106" y="299" on="1"/>
        <pt x="86" y="303" on="1"/>
        <pt x="77" y="306" on="0"/>
        <pt x="60" y="341" on="0"/>
        <pt x="59" y="351" on="1"/>
        <pt x="64" y="357" on="1"/>
        <pt x="91" y="353" on="0"/>
        <pt x="107" y="352" on="1"/>
        <pt x="112" y="506" on="0"/>
        <pt x="125" y="582" on="1"/>
        <pt x="101" y="588" on="1"/>
        <pt x="92" y="594" on="0"/>
        <pt x="81" y="621" on="0"/>
        <pt x="81" y="633" on="0"/>
        <pt x="83" y="633" on="1"/>
        <pt x="154" y="627" on="1"/>
        <pt x="227" y="677" on="1"/>
        <pt x="253" y="661" on="1"/>
        <pt x="241" y="626" on="1"/>
        <pt x="393" y="628" on="0"/>
        <pt x="490" y="677" on="1"/>
        <pt x="507" y="651" on="1"/>
        <pt x="474" y="565" on="1"/>
        <pt x="404" y="556" on="0"/>
        <pt x="278" y="556" on="0"/>
        <pt x="226" y="563" on="1"/>
        <pt x="202" y="461" on="0"/>
        <pt x="192" y="349" on="1"/>
        <pt x="215" y="349" on="1"/>
        <pt x="323" y="349" on="0"/>
        <pt x="412" y="384" on="1"/>
      </contour>
      <contour>
        <pt x="184" y="779" on="1"/>
        <pt x="184" y="839" on="0"/>
        <pt x="269" y="851" on="1"/>
        <pt x="298" y="828" on="0"/>
        <pt x="298" y="761" on="0"/>
        <pt x="258" y="726" on="0"/>
        <pt x="210" y="726" on="0"/>
        <pt x="184" y="759" on="0"/>
      </contour>
      <contour>
        <pt x="371" y="779" on="1"/>
        <pt x="371" y="839" on="0"/>
        <pt x="456" y="851" on="1"/>
        <pt x="485" y="828" on="0"/>
        <pt x="485" y="761" on="0"/>
        <pt x="445" y="726" on="0"/>
        <pt x="397" y="726" on="0"/>
        <pt x="371" y="759" on="0"/>
      </contour>
    </TTGlyph>
    <TTGlyph name="Egrave" xMin="59" yMin="-33" xMax="507" yMax="894">
      <component glyphName="E" x="0" y="0" flags="0x1004"/>
      <component glyphName="grave" x="152" y="177" flags="0x1004"/>
    </TTGlyph>
    <TTGlyph name="Eth" xMin="-4" yMin="-11" xMax="534" yMax="682">
      <contour>
        <pt x="181" y="512" on="1"/>
        <pt x="184" y="467" on="0"/>
        <pt x="184" y="344" on="0"/>
        <pt x="182" y="292" on="1"/>
        <pt x="241" y="298" on="0"/>
        <pt x="316" y="326" on="1"/>
        <pt x="327" y="308" on="1"/>
        <pt x="294" y="230" on="1"/>
        <pt x="233" y="219" on="0"/>
        <pt x="177" y="219" on="1"/>
        <pt x="166" y="103" on="0"/>
        <pt x="151" y="72" on="1"/>
        <pt x="138" y="57" on="0"/>
        <pt x="112" y="57" on="0"/>
        <pt x="112" y="60" on="1"/>
        <pt x="125" y="184" on="0"/>
        <pt x="126" y="220" on="1"/>
        <pt x="69" y="223" on="0"/>
        <pt x="19" y="236" on="1"/>
        <pt x="12" y="240" on="0"/>
        <pt x="-2" y="278" on="0"/>
        <pt x="-4" y="290" on="1"/>
        <pt x="0" y="296" on="1"/>
        <pt x="51" y="288" on="0"/>
        <pt x="110" y="288" on="1"/>
        <pt x="125" y="288" on="1"/>
        <pt x="118" y="533" on="0"/>
        <pt x="37" y="615" on="1"/>
        <pt x="79" y="682" on="1"/>
        <pt x="161" y="602" on="0"/>
        <pt x="281" y="526" on="1"/>
        <pt x="391" y="457" on="0"/>
        <pt x="458" y="393" on="1"/>
        <pt x="492" y="361" on="0"/>
        <pt x="534" y="275" on="0"/>
        <pt x="534" y="172" on="0"/>
        <pt x="488" y="82" on="0"/>
        <pt x="419" y="26" on="0"/>
        <pt x="376" y="7" on="1"/>
        <pt x="240" y="-52" on="0"/>
        <pt x="50" y="-11" on="1"/>
        <pt x="35" y="6" on="0"/>
        <pt x="35" y="32" on="0"/>
        <pt x="41" y="32" on="0"/>
        <pt x="56" y="28" on="1"/>
        <pt x="105" y="17" on="0"/>
        <pt x="158" y="17" on="1"/>
        <pt x="275" y="17" on="0"/>
        <pt x="425" y="142" on="0"/>
        <pt x="425" y="227" on="1"/>
        <pt x="425" y="384" on="0"/>
      </contour>
    </TTGlyph>
    <TTGlyph name="Euro" xMin="8" yMin="-33" xMax="496" yMax="664">
      <contour>
        <pt x="24" y="384" on="1"/>
        <pt x="74" y="382" on="1"/>
        <pt x="104" y="382" on="1"/>
        <pt x="148" y="488" on="0"/>
        <pt x="338" y="642" on="0"/>
        <pt x="480" y="664" on="1"/>
        <pt x="496" y="638" on="1"/>
        <pt x="462" y="552" on="1"/>
        <pt x="423" y="565" on="0"/>
        <pt x="390" y="565" on="1"/>
        <pt x="318" y="565" on="0"/>
        <pt x="213" y="467" on="0"/>
        <pt x="185" y="388" on="1"/>
        <pt x="295" y="400" on="0"/>
        <pt x="369" y="437" on="1"/>
        <pt x="379" y="420" on="1"/>
        <pt x="355" y="349" on="1"/>
        <pt x="268" y="328" on="0"/>
        <pt x="167" y="326" on="1"/>
        <pt x="160" y="289" on="0"/>
        <pt x="158" y="251" on="1"/>
        <pt x="164" y="251" on="1"/>
        <pt x="272" y="251" on="0"/>
        <pt x="361" y="286" on="1"/>
        <pt x="370" y="269" on="1"/>
        <pt x="340" y="200" on="1"/>
        <pt x="282" y="189" on="0"/>
        <pt x="179" y="189" on="0"/>
        <pt x="161" y="190" on="1"/>
        <pt x="169" y="123" on="0"/>
        <pt x="231" y="40" on="0"/>
        <pt x="325" y="40" on="0"/>
        <pt x="422" y="90" on="0"/>
        <pt x="450" y="144" on="1"/>
        <pt x="453" y="152" on="0"/>
        <pt x="473" y="152" on="0"/>
        <pt x="488" y="138" on="1"/>
        <pt x="412" y="-33" on="0"/>
        <pt x="266" y="-33" on="1"/>
        <pt x="179" y="-33" on="0"/>
        <pt x="76" y="99" on="0"/>
        <pt x="71" y="199" on="1"/>
        <pt x="67" y="200" on="0"/>
        <pt x="60" y="201" on="1"/>
        <pt x="46" y="203" on="0"/>
        <pt x="35" y="205" on="1"/>
        <pt x="26" y="206" on="0"/>
        <pt x="8" y="245" on="0"/>
        <pt x="8" y="259" on="0"/>
        <pt x="13" y="259" on="1"/>
        <pt x="72" y="253" on="1"/>
        <pt x="77" y="297" on="0"/>
        <pt x="86" y="328" on="1"/>
        <pt x="62" y="330" on="0"/>
        <pt x="40" y="333" on="0"/>
        <pt x="19" y="368" on="0"/>
        <pt x="19" y="377" on="1"/>
      </contour>
    </TTGlyph>
    <TTGlyph name="F" xMin="45" yMin="-33" xMax="463" yMax="677">
      <contour>
        <pt x="136" y="253" on="1"/>
        <pt x="135" y="285" on="1"/>
        <pt x="106" y="290" on="0"/>
        <pt x="89" y="295" on="1"/>
        <pt x="82" y="298" on="0"/>
        <pt x="70" y="332" on="0"/>
        <pt x="69" y="343" on="1"/>
        <pt x="72" y="349" on="1"/>
        <pt x="100" y="344" on="0"/>
        <pt x="134" y="342" on="1"/>
        <pt x="129" y="445" on="0"/>
        <pt x="108" y="577" on="1"/>
        <pt x="93" y="580" on="0"/>
        <pt x="65" y="588" on="1"/>
        <pt x="56" y="594" on="0"/>
        <pt x="45" y="621" on="0"/>
        <pt x="45" y="633" on="0"/>
        <pt x="47" y="633" on="1"/>
        <pt x="66" y="631" on="0"/>
        <pt x="102" y="629" on="1"/>
        <pt x="172" y="677" on="1"/>
        <pt x="198" y="661" on="1"/>
        <pt x="202" y="636" on="0"/>
        <pt x="203" y="626" on="1"/>
        <pt x="352" y="630" on="0"/>
        <pt x="446" y="677" on="1"/>
        <pt x="463" y="651" on="1"/>
        <pt x="430" y="565" on="1"/>
        <pt x="359" y="556" on="0"/>
        <pt x="251" y="556" on="0"/>
        <pt x="210" y="560" on="1"/>
        <pt x="213" y="509" on="0"/>
        <pt x="213" y="420" on="0"/>
        <pt x="209" y="342" on="1"/>
        <pt x="302" y="347" on="0"/>
        <pt x="377" y="376" on="1"/>
        <pt x="386" y="359" on="1"/>
        <pt x="355" y="290" on="1"/>
        <pt x="295" y="279" on="0"/>
        <pt x="227" y="279" on="1"/>
        <pt x="204" y="279" on="1"/>
        <pt x="193" y="160" on="0"/>
        <pt x="165" y="-14" on="1"/>
        <pt x="158" y="-22" on="0"/>
        <pt x="127" y="-33" on="0"/>
        <pt x="106" y="-33" on="0"/>
        <pt x="106" y="-28" on="1"/>
        <pt x="109" y="-17" on="1"/>
        <pt x="136" y="82" on="0"/>
      </contour>
    </TTGlyph>
    <TTGlyph name="G" xMin="30" yMin="-32" xMax="503" yMax="677">
      <contour>
        <pt x="496" y="-14" on="1"/>
        <pt x="496" y="-18" on="0"/>
        <pt x="487" y="-19" on="1"/>
        <pt x="461" y="-16" on="0"/>
        <pt x="452" y="-4" on="1"/>
        <pt x="420" y="72" on="0"/>
        <pt x="406" y="129" on="1"/>
        <pt x="375" y="52" on="0"/>
        <pt x="277" y="-32" on="0"/>
        <pt x="218" y="-32" on="1"/>
        <pt x="130" y="-32" on="0"/>
        <pt x="30" y="124" on="0"/>
        <pt x="30" y="252" on="1"/>
        <pt x="30" y="362" on="0"/>
        <pt x="87" y="458" on="1"/>
        <pt x="118" y="511" on="0"/>
        <pt x="210" y="597" on="0"/>
        <pt x="356" y="663" on="0"/>
        <pt x="446" y="677" on="1"/>
        <pt x="463" y="651" on="1"/>
        <pt x="430" y="565" on="1"/>
        <pt x="402" y="569" on="0"/>
        <pt x="371" y="569" on="1"/>
        <pt x="301" y="569" on="0"/>
        <pt x="197" y="520" on="0"/>
        <pt x="170" y="480" on="1"/>
        <pt x="119" y="401" on="0"/>
        <pt x="119" y="307" on="1"/>
        <pt x="119" y="184" on="0"/>
        <pt x="192" y="55" on="0"/>
        <pt x="243" y="55" on="1"/>
        <pt x="346" y="55" on="0"/>
        <pt x="391" y="212" on="1"/>
        <pt x="387" y="244" on="0"/>
        <pt x="387" y="329" on="0"/>
        <pt x="397" y="386" on="1"/>
        <pt x="421" y="402" on="1"/>
        <pt x="503" y="365" on="1"/>
        <pt x="471" y="304" on="0"/>
        <pt x="471" y="88" on="0"/>
      </contour>
    </TTGlyph>
    <TTGlyph name="H" xMin="60" yMin="-34" xMax="561" yMax="677">
      <contour>
        <pt x="136" y="253" on="1"/>
        <pt x="135" y="276" on="1"/>
        <pt x="111" y="279" on="0"/>
        <pt x="75" y="288" on="1"/>
        <pt x="60" y="302" on="0"/>
        <pt x="60" y="329" on="1"/>
        <pt x="60" y="338" on="0"/>
        <pt x="67" y="338" on="0"/>
        <pt x="76" y="336" on="1"/>
        <pt x="97" y="329" on="0"/>
        <pt x="134" y="325" on="1"/>
        <pt x="130" y="401" on="0"/>
        <pt x="105" y="556" on="0"/>
        <pt x="95" y="596" on="1"/>
        <pt x="85" y="636" on="1"/>
        <pt x="172" y="677" on="1"/>
        <pt x="198" y="661" on="1"/>
        <pt x="213" y="572" on="0"/>
        <pt x="213" y="398" on="0"/>
        <pt x="208" y="323" on="1"/>
        <pt x="343" y="329" on="0"/>
        <pt x="432" y="369" on="1"/>
        <pt x="431" y="390" on="0"/>
        <pt x="431" y="539" on="0"/>
        <pt x="450" y="661" on="1"/>
        <pt x="476" y="677" on="1"/>
        <pt x="561" y="636" on="1"/>
        <pt x="515" y="518" on="0"/>
        <pt x="515" y="273" on="1"/>
        <pt x="515" y="91" on="0"/>
        <pt x="530" y="-31" on="1"/>
        <pt x="530" y="-34" on="0"/>
        <pt x="522" y="-34" on="1"/>
        <pt x="496" y="-34" on="0"/>
        <pt x="483" y="-19" on="1"/>
        <pt x="447" y="164" on="0"/>
        <pt x="437" y="292" on="1"/>
        <pt x="331" y="270" on="0"/>
        <pt x="242" y="270" on="1"/>
        <pt x="204" y="270" on="1"/>
        <pt x="193" y="154" on="0"/>
        <pt x="165" y="-14" on="1"/>
        <pt x="158" y="-22" on="0"/>
        <pt x="127" y="-33" on="0"/>
        <pt x="106" y="-33" on="0"/>
        <pt x="106" y="-28" on="1"/>
        <pt x="109" y="-17" on="1"/>
        <pt x="136" y="82" on="0"/>
      </contour>
    </TTGlyph>
    <TTGlyph name="I" xMin="80" yMin="-33" xMax="196" yMax="677">
      <contour>
        <pt x="144" y="-17" on="1"/>
        <pt x="138" y="-23" on="0"/>
        <pt x="107" y="-33" on="0"/>
        <pt x="90" y="-33" on="0"/>
        <pt x="90" y="-29" on="1"/>
        <pt x="109" y="100" on="0"/>
        <pt x="109" y="235" on="1"/>
        <pt x="109" y="475" on="0"/>
        <pt x="80" y="659" on="1"/>
        <pt x="106" y="677" on="1"/>
        <pt x="196" y="631" on="1"/>
        <pt x="191" y="470" on="0"/>
        <pt x="163" y="77" on="0"/>
      </contour>
    </TTGlyph>
    <TTGlyph name="Iacute" xMin="21" yMin="-33" xMax="240" yMax="894">
      <contour>
        <pt x="144" y="-17" on="1"/>
        <pt x="138" y="-23" on="0"/>
        <pt x="107" y="-33" on="0"/>
        <pt x="90" y="-33" on="0"/>
        <pt x="90" y="-29" on="1"/>
        <pt x="109" y="100" on="0"/>
        <pt x="109" y="235" on="1"/>
        <pt x="109" y="475" on="0"/>
        <pt x="80" y="659" on="1"/>
        <pt x="106" y="677" on="1"/>
        <pt x="196" y="631" on="1"/>
        <pt x="191" y="470" on="0"/>
        <pt x="163" y="77" on="0"/>
      </contour>
      <contour>
        <pt x="228" y="884" on="1"/>
        <pt x="240" y="797" on="1"/>
        <pt x="197" y="760" on="0"/>
        <pt x="113" y="717" on="0"/>
        <pt x="54" y="699" on="1"/>
        <pt x="46" y="700" on="0"/>
        <pt x="21" y="727" on="0"/>
        <pt x="21" y="737" on="1"/>
        <pt x="135" y="789" on="0"/>
        <pt x="212" y="894" on="1"/>
      </contour>
    </TTGlyph>
    <TTGlyph name="Icircumflex" xMin="-7" yMin="-33" xMax="268" yMax="884">
      <component glyphName="I" x="0" y="0" flags="0x1004"/>
      <component glyphName="circumflex" x="-57" y="177" flags="0x1004"/>
    </TTGlyph>
    <TTGlyph name="Idieresis" xMin="-8" yMin="-33" xMax="293" yMax="851">
      <contour>
        <pt x="144" y="-17" on="1"/>
        <pt x="138" y="-23" on="0"/>
        <pt x="107" y="-33" on="0"/>
        <pt x="90" y="-33" on="0"/>
        <pt x="90" y="-29" on="1"/>
        <pt x="109" y="100" on="0"/>
        <pt x="109" y="235" on="1"/>
        <pt x="109" y="475" on="0"/>
        <pt x="80" y="659" on="1"/>
        <pt x="106" y="677" on="1"/>
        <pt x="196" y="631" on="1"/>
        <pt x="191" y="470" on="0"/>
        <pt x="163" y="77" on="0"/>
      </contour>
      <contour>
        <pt x="-8" y="779" on="1"/>
        <pt x="-8" y="839" on="0"/>
        <pt x="77" y="851" on="1"/>
        <pt x="106" y="828" on="0"/>
        <pt x="106" y="761" on="0"/>
        <pt x="66" y="726" on="0"/>
        <pt x="18" y="726" on="0"/>
        <pt x="-8" y="759" on="0"/>
      </contour>
      <contour>
        <pt x="179" y="779" on="1"/>
        <pt x="179" y="839" on="0"/>
        <pt x="264" y="851" on="1"/>
        <pt x="293" y="828" on="0"/>
        <pt x="293" y="761" on="0"/>
        <pt x="253" y="726" on="0"/>
        <pt x="205" y="726" on="0"/>
        <pt x="179" y="759" on="0"/>
      </contour>
    </TTGlyph>
    <TTGlyph name="Igrave" xMin="21" yMin="-33" xMax="240" yMax="894">
      <component glyphName="I" x="0" y="0" flags="0x1004"/>
      <component glyphName="grave" x="-29" y="177" flags="0x1004"/>
    </TTGlyph>
    <TTGlyph name="J" xMin="-59" yMin="-217" xMax="372" yMax="661">
      <contour>
        <pt x="-59" y="-74" on="1"/>
        <pt x="15" y="-38" on="1"/>
        <pt x="38" y="-52" on="1"/>
        <pt x="38" y="-113" on="0"/>
        <pt x="70" y="-132" on="1"/>
        <pt x="79" y="-138" on="0"/>
        <pt x="88" y="-138" on="1"/>
        <pt x="112" y="-138" on="0"/>
        <pt x="135" y="-102" on="1"/>
        <pt x="195" y="-8" on="0"/>
        <pt x="195" y="257" on="1"/>
        <pt x="195" y="406" on="0"/>
        <pt x="183" y="542" on="1"/>
        <pt x="171" y="540" on="0"/>
        <pt x="108" y="540" on="0"/>
        <pt x="71" y="549" on="1"/>
        <pt x="60" y="575" on="1"/>
        <pt x="86" y="661" on="1"/>
        <pt x="130" y="627" on="0"/>
        <pt x="285" y="627" on="0"/>
        <pt x="368" y="654" on="1"/>
        <pt x="372" y="654" on="0"/>
        <pt x="372" y="620" on="0"/>
        <pt x="357" y="607" on="1"/>
        <pt x="317" y="583" on="0"/>
        <pt x="293" y="573" on="1"/>
        <pt x="274" y="124" on="0"/>
        <pt x="234" y="-19" on="1"/>
        <pt x="201" y="-138" on="0"/>
        <pt x="122" y="-191" on="1"/>
        <pt x="83" y="-217" on="0"/>
        <pt x="24" y="-217" on="0"/>
        <pt x="1" y="-203" on="1"/>
        <pt x="-52" y="-170" on="0"/>
      </contour>
    </TTGlyph>
    <TTGlyph name="K" xMin="75" yMin="-31" xMax="491" yMax="677">
      <contour>
        <pt x="139" y="-12" on="1"/>
        <pt x="133" y="-18" on="0"/>
        <pt x="102" y="-28" on="0"/>
        <pt x="85" y="-28" on="0"/>
        <pt x="85" y="-24" on="1"/>
        <pt x="104" y="105" on="0"/>
        <pt x="104" y="235" on="1"/>
        <pt x="104" y="475" on="0"/>
        <pt x="75" y="659" on="1"/>
        <pt x="101" y="677" on="1"/>
        <pt x="191" y="631" on="1"/>
        <pt x="184" y="444" on="0"/>
        <pt x="174" y="309" on="1"/>
        <pt x="294" y="527" on="0"/>
        <pt x="375" y="643" on="1"/>
        <pt x="462" y="663" on="1"/>
        <pt x="491" y="640" on="1"/>
        <pt x="352" y="468" on="0"/>
        <pt x="278" y="369" on="1"/>
        <pt x="303" y="292" on="0"/>
        <pt x="431" y="45" on="0"/>
        <pt x="480" y="-19" on="1"/>
        <pt x="480" y="-20" on="1"/>
        <pt x="480" y="-31" on="0"/>
        <pt x="447" y="-31" on="1"/>
        <pt x="439" y="-31" on="0"/>
        <pt x="435" y="-30" on="1"/>
        <pt x="356" y="46" on="0"/>
        <pt x="219" y="289" on="1"/>
        <pt x="181" y="235" on="0"/>
        <pt x="167" y="214" on="1"/>
        <pt x="153" y="57" on="0"/>
      </contour>
    </TTGlyph>
    <TTGlyph name="L" xMin="80" yMin="-28" xMax="437" yMax="677">
      <contour>
        <pt x="135" y="-5" on="1"/>
        <pt x="134" y="-12" on="1"/>
        <pt x="128" y="-18" on="0"/>
        <pt x="97" y="-28" on="0"/>
        <pt x="80" y="-28" on="0"/>
        <pt x="80" y="-24" on="1"/>
        <pt x="104" y="120" on="0"/>
        <pt x="104" y="503" on="0"/>
        <pt x="82" y="659" on="1"/>
        <pt x="108" y="677" on="1"/>
        <pt x="197" y="631" on="1"/>
        <pt x="180" y="262" on="0"/>
        <pt x="145" y="47" on="1"/>
        <pt x="159" y="47" on="0"/>
        <pt x="172" y="47" on="1"/>
        <pt x="322" y="47" on="0"/>
        <pt x="420" y="98" on="1"/>
        <pt x="437" y="72" on="1"/>
        <pt x="404" y="-14" on="1"/>
        <pt x="351" y="-19" on="0"/>
        <pt x="215" y="-19" on="0"/>
      </contour>
    </TTGlyph>
    <TTGlyph name="Lslash" xMin="0" yMin="-28" xMax="437" yMax="677">
      <contour>
        <pt x="135" y="-5" on="1"/>
        <pt x="134" y="-12" on="1"/>
        <pt x="128" y="-18" on="0"/>
        <pt x="97" y="-28" on="0"/>
        <pt x="80" y="-28" on="0"/>
        <pt x="80" y="-24" on="1"/>
        <pt x="101" y="103" on="0"/>
        <pt x="103" y="235" on="1"/>
        <pt x="103" y="292" on="1"/>
        <pt x="83" y="286" on="0"/>
        <pt x="21" y="274" on="1"/>
        <pt x="13" y="277" on="0"/>
        <pt x="0" y="299" on="0"/>
        <pt x="0" y="310" on="1"/>
        <pt x="64" y="330" on="0"/>
        <pt x="103" y="347" on="1"/>
        <pt x="101" y="520" on="0"/>
        <pt x="82" y="659" on="1"/>
        <pt x="108" y="677" on="1"/>
        <pt x="197" y="631" on="1"/>
        <pt x="192" y="511" on="0"/>
        <pt x="182" y="386" on="1"/>
        <pt x="215" y="407" on="0"/>
        <pt x="258" y="445" on="0"/>
        <pt x="263" y="449" on="1"/>
        <pt x="281" y="439" on="1"/>
        <pt x="281" y="366" on="1"/>
        <pt x="224" y="334" on="0"/>
        <pt x="176" y="315" on="1"/>
        <pt x="160" y="137" on="0"/>
        <pt x="145" y="47" on="1"/>
        <pt x="159" y="47" on="0"/>
        <pt x="172" y="47" on="1"/>
        <pt x="322" y="47" on="0"/>
        <pt x="420" y="98" on="1"/>
        <pt x="437" y="72" on="1"/>
        <pt x="404" y="-14" on="1"/>
        <pt x="351" y="-19" on="0"/>
        <pt x="215" y="-19" on="0"/>
      </contour>
    </TTGlyph>
    <TTGlyph name="M" xMin="76" yMin="-35" xMax="711" yMax="677">
      <contour>
        <pt x="680" y="-31" on="1"/>
        <pt x="680" y="-34" on="0"/>
        <pt x="672" y="-34" on="1"/>
        <pt x="646" y="-34" on="0"/>
        <pt x="633" y="-19" on="1"/>
        <pt x="581" y="244" on="0"/>
        <pt x="581" y="432" on="1"/>
        <pt x="581" y="481" on="0"/>
        <pt x="584" y="529" on="1"/>
        <pt x="469" y="262" on="0"/>
        <pt x="425" y="26" on="1"/>
        <pt x="437" y="-19" on="1"/>
        <pt x="415" y="-35" on="1"/>
        <pt x="320" y="6" on="1"/>
        <pt x="294" y="245" on="0"/>
        <pt x="203" y="535" on="1"/>
        <pt x="194" y="390" on="0"/>
        <pt x="156" y="67" on="0"/>
        <pt x="136" y="-9" on="1"/>
        <pt x="128" y="-17" on="0"/>
        <pt x="96" y="-28" on="0"/>
        <pt x="76" y="-28" on="0"/>
        <pt x="76" y="-24" on="1"/>
        <pt x="83" y="9" on="1"/>
        <pt x="90" y="42" on="0"/>
        <pt x="106" y="204" on="0"/>
        <pt x="106" y="291" on="1"/>
        <pt x="106" y="458" on="0"/>
        <pt x="85" y="592" on="1"/>
        <pt x="78" y="636" on="1"/>
        <pt x="181" y="677" on="1"/>
        <pt x="207" y="661" on="1"/>
        <pt x="299" y="453" on="0"/>
        <pt x="381" y="182" on="1"/>
        <pt x="449" y="365" on="0"/>
        <pt x="599" y="658" on="1"/>
        <pt x="600" y="660" on="0"/>
        <pt x="600" y="661" on="1"/>
        <pt x="626" y="677" on="1"/>
        <pt x="711" y="636" on="1"/>
        <pt x="665" y="518" on="0"/>
        <pt x="665" y="273" on="1"/>
        <pt x="665" y="91" on="0"/>
      </contour>
    </TTGlyph>
    <TTGlyph name="N" xMin="66" yMin="-28" xMax="558" yMax="677">
      <contour>
        <pt x="558" y="636" on="1"/>
        <pt x="526" y="556" on="0"/>
        <pt x="494" y="311" on="0"/>
        <pt x="494" y="89" on="0"/>
        <pt x="504" y="-25" on="1"/>
        <pt x="504" y="-28" on="0"/>
        <pt x="495" y="-28" on="1"/>
        <pt x="466" y="-28" on="0"/>
        <pt x="457" y="-14" on="1"/>
        <pt x="289" y="233" on="0"/>
        <pt x="183" y="468" on="1"/>
        <pt x="183" y="212" on="0"/>
        <pt x="126" y="-9" on="1"/>
        <pt x="118" y="-17" on="0"/>
        <pt x="86" y="-28" on="0"/>
        <pt x="66" y="-28" on="0"/>
        <pt x="66" y="-24" on="1"/>
        <pt x="70" y="-12" on="1"/>
        <pt x="106" y="119" on="0"/>
        <pt x="106" y="297" on="1"/>
        <pt x="106" y="378" on="0"/>
        <pt x="87" y="547" on="0"/>
        <pt x="78" y="592" on="1"/>
        <pt x="68" y="636" on="1"/>
        <pt x="176" y="677" on="1"/>
        <pt x="202" y="661" on="1"/>
        <pt x="245" y="512" on="0"/>
        <pt x="371" y="232" on="0"/>
        <pt x="436" y="129" on="1"/>
        <pt x="423" y="225" on="0"/>
        <pt x="423" y="487" on="0"/>
        <pt x="457" y="661" on="1"/>
        <pt x="482" y="677" on="1"/>
      </contour>
    </TTGlyph>
    <TTGlyph name="Ntilde" xMin="66" yMin="-28" xMax="558" yMax="850">
      <component glyphName="N" x="0" y="0" flags="0x1004"/>
      <component glyphName="tilde" x="119" y="177" flags="0x1004"/>
    </TTGlyph>
    <TTGlyph name="O" xMin="30" yMin="-34" xMax="551" yMax="676">
      <contour>
        <pt x="448" y="676" on="1"/>
        <pt x="465" y="651" on="1"/>
        <pt x="436" y="593" on="1"/>
        <pt x="486" y="550" on="0"/>
        <pt x="551" y="390" on="0"/>
        <pt x="551" y="238" on="0"/>
        <pt x="520" y="123" on="0"/>
        <pt x="458" y="24" on="0"/>
        <pt x="347" y="-34" on="0"/>
        <pt x="274" y="-34" on="1"/>
        <pt x="170" y="-34" on="0"/>
        <pt x="30" y="124" on="0"/>
        <pt x="30" y="263" on="1"/>
        <pt x="30" y="403" on="0"/>
        <pt x="118" y="518" on="1"/>
        <pt x="164" y="579" on="0"/>
        <pt x="334" y="664" on="0"/>
      </contour>
      <contour>
        <pt x="299" y="49" on="1"/>
        <pt x="390" y="52" on="0"/>
        <pt x="487" y="182" on="0"/>
        <pt x="487" y="357" on="0"/>
        <pt x="429" y="531" on="0"/>
        <pt x="377" y="583" on="1"/>
        <pt x="250" y="565" on="0"/>
        <pt x="126" y="412" on="0"/>
        <pt x="126" y="181" on="0"/>
        <pt x="227" y="49" on="0"/>
      </contour>
    </TTGlyph>
    <TTGlyph name="OE" xMin="30" yMin="-33" xMax="841" yMax="677">
      <contour>
        <pt x="619" y="-33" on="1"/>
        <pt x="499" y="-33" on="0"/>
        <pt x="460" y="125" on="1"/>
        <pt x="399" y="-33" on="0"/>
        <pt x="244" y="-33" on="1"/>
        <pt x="152" y="-33" on="0"/>
        <pt x="30" y="121" on="0"/>
        <pt x="30" y="256" on="1"/>
        <pt x="30" y="399" on="0"/>
        <pt x="113" y="516" on="1"/>
        <pt x="154" y="574" on="0"/>
        <pt x="295" y="646" on="0"/>
        <pt x="384" y="646" on="1"/>
        <pt x="416" y="646" on="0"/>
        <pt x="505" y="639" on="1"/>
        <pt x="561" y="677" on="1"/>
        <pt x="587" y="661" on="1"/>
        <pt x="582" y="650" on="0"/>
        <pt x="578" y="633" on="1"/>
        <pt x="609" y="633" on="1"/>
        <pt x="715" y="633" on="0"/>
        <pt x="824" y="677" on="1"/>
        <pt x="841" y="651" on="1"/>
        <pt x="808" y="565" on="1"/>
        <pt x="738" y="556" on="0"/>
        <pt x="618" y="556" on="0"/>
        <pt x="560" y="563" on="1"/>
        <pt x="536" y="461" on="0"/>
        <pt x="526" y="349" on="1"/>
        <pt x="549" y="349" on="1"/>
        <pt x="657" y="349" on="0"/>
        <pt x="746" y="384" on="1"/>
        <pt x="755" y="367" on="1"/>
        <pt x="725" y="298" on="1"/>
        <pt x="667" y="287" on="0"/>
        <pt x="548" y="287" on="0"/>
        <pt x="522" y="289" on="1"/>
        <pt x="521" y="276" on="0"/>
        <pt x="521" y="250" on="1"/>
        <pt x="521" y="152" on="0"/>
        <pt x="578" y="25" on="0"/>
        <pt x="693" y="25" on="0"/>
        <pt x="763" y="110" on="0"/>
        <pt x="790" y="205" on="1"/>
        <pt x="792" y="213" on="0"/>
        <pt x="797" y="213" on="1"/>
        <pt x="811" y="213" on="0"/>
        <pt x="828" y="199" on="1"/>
        <pt x="782" y="-33" on="0"/>
      </contour>
      <contour>
        <pt x="440" y="320" on="1"/>
        <pt x="440" y="360" on="0"/>
        <pt x="453" y="542" on="0"/>
        <pt x="458" y="578" on="1"/>
        <pt x="407" y="585" on="0"/>
        <pt x="368" y="585" on="1"/>
        <pt x="247" y="585" on="0"/>
        <pt x="117" y="416" on="0"/>
        <pt x="117" y="187" on="0"/>
        <pt x="201" y="67" on="0"/>
        <pt x="267" y="67" on="1"/>
        <pt x="346" y="67" on="0"/>
        <pt x="437" y="216" on="0"/>
        <pt x="440" y="311" on="1"/>
      </contour>
    </TTGlyph>
    <TTGlyph name="Oacute" xMin="30" yMin="-34" xMax="551" yMax="894">
      <contour>
        <pt x="448" y="676" on="1"/>
        <pt x="465" y="651" on="1"/>
        <pt x="436" y="593" on="1"/>
        <pt x="486" y="550" on="0"/>
        <pt x="551" y="390" on="0"/>
        <pt x="551" y="238" on="0"/>
        <pt x="520" y="123" on="0"/>
        <pt x="458" y="24" on="0"/>
        <pt x="347" y="-34" on="0"/>
        <pt x="274" y="-34" on="1"/>
        <pt x="170" y="-34" on="0"/>
        <pt x="30" y="124" on="0"/>
        <pt x="30" y="263" on="1"/>
        <pt x="30" y="403" on="0"/>
        <pt x="118" y="518" on="1"/>
        <pt x="164" y="579" on="0"/>
        <pt x="334" y="664" on="0"/>
      </contour>
      <contour>
        <pt x="299" y="49" on="1"/>
        <pt x="390" y="52" on="0"/>
        <pt x="487" y="182" on="0"/>
        <pt x="487" y="357" on="0"/>
        <pt x="429" y="531" on="0"/>
        <pt x="377" y="583" on="1"/>
        <pt x="250" y="565" on="0"/>
        <pt x="126" y="412" on="0"/>
        <pt x="126" y="181" on="0"/>
        <pt x="227" y="49" on="0"/>
      </contour>
      <contour>
        <pt x="439" y="884" on="1"/>
        <pt x="451" y="797" on="1"/>
        <pt x="408" y="760" on="0"/>
        <pt x="324" y="717" on="0"/>
        <pt x="265" y="699" on="1"/>
        <pt x="257" y="700" on="0"/>
        <pt x="232" y="727" on="0"/>
        <pt x="232" y="737" on="1"/>
        <pt x="346" y="789" on="0"/>
        <pt x="423" y="894" on="1"/>
      </contour>
    </TTGlyph>
    <TTGlyph name="Ocircumflex" xMin="30" yMin="-34" xMax="551" yMax="884">
      <component glyphName="O" x="0" y="0" flags="0x1004"/>
      <component glyphName="circumflex" x="152" y="177" flags="0x1004"/>
    </TTGlyph>
    <TTGlyph name="Odieresis" xMin="30" yMin="-34" xMax="551" yMax="851">
      <component glyphName="O" x="0" y="0" flags="0x1004"/>
      <component glyphName="dieresis" x="154" y="177" flags="0x1004"/>
    </TTGlyph>
    <TTGlyph name="Ograve" xMin="30" yMin="-34" xMax="551" yMax="894">
      <component glyphName="O" x="0" y="0" flags="0x1004"/>
      <component glyphName="grave" x="178" y="177" flags="0x1004"/>
    </TTGlyph>
    <TTGlyph name="Omega" xMin="41" yMin="-30" xMax="692" yMax="612">
      <contour>
        <pt x="188" y="62" on="1"/>
        <pt x="89" y="149" on="0"/>
        <pt x="89" y="411" on="0"/>
        <pt x="275" y="612" on="0"/>
        <pt x="545" y="612" on="0"/>
        <pt x="692" y="457" on="0"/>
        <pt x="692" y="252" on="0"/>
        <pt x="611" y="106" on="0"/>
        <pt x="551" y="62" on="1"/>
        <pt x="624" y="55" on="0"/>
        <pt x="688" y="29" on="1"/>
        <pt x="692" y="13" on="0"/>
        <pt x="692" y="-14" on="1"/>
        <pt x="691" y="-30" on="1"/>
        <pt x="622" y="-5" on="0"/>
        <pt x="477" y="-5" on="0"/>
        <pt x="433" y="-15" on="1"/>
        <pt x="416" y="15" on="1"/>
        <pt x="588" y="123" on="0"/>
        <pt x="588" y="337" on="1"/>
        <pt x="588" y="441" on="0"/>
        <pt x="484" y="551" on="0"/>
        <pt x="409" y="551" on="1"/>
        <pt x="311" y="551" on="0"/>
        <pt x="185" y="380" on="0"/>
        <pt x="185" y="267" on="1"/>
        <pt x="185" y="191" on="0"/>
        <pt x="252" y="57" on="0"/>
        <pt x="319" y="15" on="1"/>
        <pt x="298" y="-15" on="1"/>
        <pt x="257" y="-5" on="0"/>
        <pt x="114" y="-5" on="0"/>
        <pt x="41" y="-30" on="1"/>
        <pt x="40" y="-28" on="0"/>
        <pt x="43" y="16" on="0"/>
        <pt x="49" y="29" on="1"/>
        <pt x="117" y="55" on="0"/>
      </contour>
    </TTGlyph>
    <TTGlyph name="Oslash" xMin="30" yMin="-103" xMax="551" yMax="738">
      <contour>
        <pt x="138" y="-98" on="1"/>
        <pt x="136" y="-103" on="0"/>
        <pt x="126" y="-103" on="1"/>
        <pt x="104" y="-103" on="0"/>
        <pt x="90" y="-81" on="1"/>
        <pt x="130" y="15" on="1"/>
        <pt x="30" y="97" on="0"/>
        <pt x="30" y="263" on="1"/>
        <pt x="30" y="396" on="0"/>
        <pt x="111" y="510" on="1"/>
        <pt x="153" y="569" on="0"/>
        <pt x="309" y="655" on="0"/>
        <pt x="414" y="671" on="1"/>
        <pt x="435" y="716" on="1"/>
        <pt x="518" y="738" on="1"/>
        <pt x="550" y="712" on="1"/>
        <pt x="504" y="638" on="0"/>
        <pt x="463" y="565" on="1"/>
        <pt x="502" y="518" on="0"/>
        <pt x="551" y="377" on="0"/>
        <pt x="551" y="238" on="0"/>
        <pt x="520" y="123" on="0"/>
        <pt x="458" y="24" on="0"/>
        <pt x="347" y="-34" on="0"/>
        <pt x="222" y="-34" on="0"/>
        <pt x="177" y="-13" on="1"/>
      </contour>
      <contour>
        <pt x="299" y="49" on="1"/>
        <pt x="390" y="52" on="0"/>
        <pt x="487" y="182" on="0"/>
        <pt x="487" y="399" on="0"/>
        <pt x="430" y="507" on="1"/>
        <pt x="349" y="356" on="0"/>
        <pt x="218" y="75" on="1"/>
        <pt x="255" y="49" on="0"/>
      </contour>
      <contour>
        <pt x="248" y="564" on="0"/>
        <pt x="126" y="412" on="0"/>
        <pt x="126" y="185" on="0"/>
        <pt x="173" y="119" on="1"/>
        <pt x="278" y="366" on="0"/>
        <pt x="374" y="582" on="1"/>
      </contour>
    </TTGlyph>
    <TTGlyph name="Otilde" xMin="30" yMin="-34" xMax="551" yMax="850">
      <contour>
        <pt x="448" y="676" on="1"/>
        <pt x="465" y="651" on="1"/>
        <pt x="436" y="593" on="1"/>
        <pt x="486" y="550" on="0"/>
        <pt x="551" y="390" on="0"/>
        <pt x="551" y="238" on="0"/>
        <pt x="520" y="123" on="0"/>
        <pt x="458" y="24" on="0"/>
        <pt x="347" y="-34" on="0"/>
        <pt x="274" y="-34" on="1"/>
        <pt x="170" y="-34" on="0"/>
        <pt x="30" y="124" on="0"/>
        <pt x="30" y="263" on="1"/>
        <pt x="30" y="403" on="0"/>
        <pt x="118" y="518" on="1"/>
        <pt x="164" y="579" on="0"/>
        <pt x="334" y="664" on="0"/>
      </contour>
      <contour>
        <pt x="299" y="49" on="1"/>
        <pt x="390" y="52" on="0"/>
        <pt x="487" y="182" on="0"/>
        <pt x="487" y="357" on="0"/>
        <pt x="429" y="531" on="0"/>
        <pt x="377" y="583" on="1"/>
        <pt x="250" y="565" on="0"/>
        <pt x="126" y="412" on="0"/>
        <pt x="126" y="181" on="0"/>
        <pt x="227" y="49" on="0"/>
      </contour>
      <contour>
        <pt x="217" y="723" on="1"/>
        <pt x="203" y="731" on="1"/>
        <pt x="185" y="783" on="1"/>
        <pt x="197" y="805" on="0"/>
        <pt x="246" y="835" on="0"/>
        <pt x="297" y="835" on="0"/>
        <pt x="362" y="806" on="0"/>
        <pt x="382" y="806" on="1"/>
        <pt x="426" y="806" on="0"/>
        <pt x="456" y="850" on="1"/>
        <pt x="466" y="850" on="0"/>
        <pt x="482" y="836" on="0"/>
        <pt x="482" y="829" on="1"/>
        <pt x="442" y="735" on="0"/>
        <pt x="373" y="735" on="1"/>
        <pt x="349" y="735" on="0"/>
        <pt x="291" y="752" on="0"/>
        <pt x="280" y="752" on="1"/>
        <pt x="253" y="752" on="0"/>
      </contour>
    </TTGlyph>
    <TTGlyph name="P" xMin="55" yMin="-34" xMax="485" yMax="689">
      <contour>
        <pt x="72" y="210" on="1"/>
        <pt x="55" y="226" on="0"/>
        <pt x="55" y="250" on="1"/>
        <pt x="55" y="258" on="0"/>
        <pt x="58" y="258" on="1"/>
        <pt x="79" y="254" on="0"/>
        <pt x="120" y="254" on="1"/>
        <pt x="139" y="254" on="1"/>
        <pt x="135" y="533" on="0"/>
        <pt x="59" y="622" on="1"/>
        <pt x="106" y="689" on="1"/>
        <pt x="181" y="638" on="0"/>
        <pt x="320" y="577" on="1"/>
        <pt x="363" y="558" on="0"/>
        <pt x="404" y="534" on="1"/>
        <pt x="485" y="487" on="0"/>
        <pt x="485" y="337" on="0"/>
        <pt x="352" y="223" on="0"/>
        <pt x="199" y="211" on="1"/>
        <pt x="193" y="143" on="0"/>
        <pt x="173" y="-19" on="1"/>
        <pt x="158" y="-34" on="0"/>
        <pt x="125" y="-34" on="0"/>
        <pt x="125" y="-31" on="1"/>
        <pt x="138" y="106" on="0"/>
        <pt x="139" y="209" on="1"/>
        <pt x="134" y="209" on="1"/>
        <pt x="92" y="209" on="0"/>
      </contour>
      <contour>
        <pt x="189" y="577" on="1"/>
        <pt x="206" y="482" on="0"/>
        <pt x="206" y="308" on="0"/>
        <pt x="202" y="259" on="1"/>
        <pt x="292" y="273" on="0"/>
        <pt x="384" y="352" on="0"/>
        <pt x="384" y="403" on="1"/>
        <pt x="384" y="449" on="0"/>
        <pt x="356" y="477" on="1"/>
        <pt x="341" y="493" on="0"/>
        <pt x="316" y="515" on="0"/>
        <pt x="287" y="530" on="1"/>
        <pt x="242" y="553" on="0"/>
      </contour>
    </TTGlyph>
    <TTGlyph name="Q" xMin="27" yMin="-224" xMax="551" yMax="676">
      <contour>
        <pt x="63" y="-206" on="1"/>
        <pt x="46" y="-206" on="0"/>
        <pt x="30" y="-190" on="1"/>
        <pt x="27" y="-190" on="0"/>
        <pt x="27" y="-181" on="1"/>
        <pt x="30" y="-156" on="0"/>
        <pt x="44" y="-147" on="1"/>
        <pt x="69" y="-138" on="0"/>
        <pt x="119" y="-124" on="1"/>
        <pt x="176" y="-81" on="0"/>
        <pt x="223" y="-28" on="1"/>
        <pt x="137" y="-9" on="0"/>
        <pt x="30" y="142" on="0"/>
        <pt x="30" y="263" on="1"/>
        <pt x="30" y="403" on="0"/>
        <pt x="118" y="518" on="1"/>
        <pt x="164" y="579" on="0"/>
        <pt x="334" y="664" on="0"/>
        <pt x="448" y="676" on="1"/>
        <pt x="465" y="651" on="1"/>
        <pt x="436" y="593" on="1"/>
        <pt x="486" y="550" on="0"/>
        <pt x="551" y="390" on="0"/>
        <pt x="551" y="241" on="0"/>
        <pt x="523" y="130" on="0"/>
        <pt x="466" y="34" on="0"/>
        <pt x="366" y="-28" on="0"/>
        <pt x="300" y="-33" on="1"/>
        <pt x="270" y="-67" on="0"/>
        <pt x="228" y="-104" on="1"/>
        <pt x="258" y="-101" on="0"/>
        <pt x="368" y="-101" on="0"/>
        <pt x="437" y="-120" on="1"/>
        <pt x="451" y="-145" on="1"/>
        <pt x="409" y="-224" on="1"/>
        <pt x="335" y="-178" on="0"/>
        <pt x="179" y="-178" on="1"/>
        <pt x="139" y="-178" on="0"/>
        <pt x="121" y="-179" on="1"/>
        <pt x="94" y="-195" on="0"/>
        <pt x="64" y="-206" on="0"/>
      </contour>
      <contour>
        <pt x="299" y="49" on="1"/>
        <pt x="390" y="52" on="0"/>
        <pt x="487" y="182" on="0"/>
        <pt x="487" y="357" on="0"/>
        <pt x="429" y="531" on="0"/>
        <pt x="377" y="583" on="1"/>
        <pt x="250" y="565" on="0"/>
        <pt x="126" y="412" on="0"/>
        <pt x="126" y="181" on="0"/>
        <pt x="227" y="49" on="0"/>
      </contour>
    </TTGlyph>
    <TTGlyph name="R" xMin="55" yMin="-34" xMax="528" yMax="689">
      <contour>
        <pt x="72" y="235" on="1"/>
        <pt x="55" y="251" on="0"/>
        <pt x="55" y="275" on="1"/>
        <pt x="55" y="283" on="0"/>
        <pt x="58" y="283" on="1"/>
        <pt x="79" y="279" on="0"/>
        <pt x="120" y="279" on="1"/>
        <pt x="138" y="279" on="1"/>
        <pt x="132" y="536" on="0"/>
        <pt x="59" y="622" on="1"/>
        <pt x="106" y="689" on="1"/>
        <pt x="184" y="639" on="0"/>
        <pt x="320" y="583" on="1"/>
        <pt x="364" y="565" on="0"/>
        <pt x="404" y="543" on="1"/>
        <pt x="485" y="498" on="0"/>
        <pt x="485" y="425" on="1"/>
        <pt x="485" y="381" on="0"/>
        <pt x="428" y="299" on="0"/>
        <pt x="365" y="272" on="1"/>
        <pt x="451" y="82" on="0"/>
        <pt x="528" y="-19" on="1"/>
        <pt x="528" y="-20" on="1"/>
        <pt x="528" y="-31" on="0"/>
        <pt x="495" y="-31" on="1"/>
        <pt x="487" y="-31" on="0"/>
        <pt x="483" y="-30" on="1"/>
        <pt x="414" y="38" on="0"/>
        <pt x="291" y="249" on="1"/>
        <pt x="254" y="241" on="0"/>
        <pt x="201" y="236" on="1"/>
        <pt x="197" y="172" on="0"/>
        <pt x="173" y="-19" on="1"/>
        <pt x="158" y="-34" on="0"/>
        <pt x="125" y="-34" on="0"/>
        <pt x="125" y="-31" on="1"/>
        <pt x="139" y="102" on="0"/>
        <pt x="139" y="232" on="1"/>
        <pt x="139" y="234" on="1"/>
        <pt x="134" y="234" on="1"/>
        <pt x="92" y="234" on="0"/>
      </contour>
      <contour>
        <pt x="189" y="577" on="1"/>
        <pt x="206" y="482" on="0"/>
        <pt x="206" y="328" on="0"/>
        <pt x="203" y="284" on="1"/>
        <pt x="292" y="296" on="0"/>
        <pt x="384" y="369" on="0"/>
        <pt x="384" y="416" on="1"/>
        <pt x="384" y="458" on="0"/>
        <pt x="356" y="485" on="1"/>
        <pt x="341" y="500" on="0"/>
        <pt x="316" y="520" on="0"/>
        <pt x="258" y="548" on="0"/>
        <pt x="227" y="561" on="0"/>
      </contour>
    </TTGlyph>
    <TTGlyph name="S" xMin="0" yMin="-28" xMax="408" yMax="664">
      <contour>
        <pt x="408" y="638" on="1"/>
        <pt x="375" y="552" on="1"/>
        <pt x="326" y="578" on="0"/>
        <pt x="210" y="578" on="0"/>
        <pt x="139" y="536" on="0"/>
        <pt x="139" y="491" on="1"/>
        <pt x="139" y="436" on="0"/>
        <pt x="231" y="366" on="1"/>
        <pt x="269" y="337" on="0"/>
        <pt x="345" y="276" on="0"/>
        <pt x="399" y="197" on="0"/>
        <pt x="399" y="127" on="0"/>
        <pt x="376" y="70" on="0"/>
        <pt x="322" y="10" on="0"/>
        <pt x="208" y="-28" on="0"/>
        <pt x="66" y="-28" on="0"/>
        <pt x="11" y="-11" on="1"/>
        <pt x="0" y="6" on="0"/>
        <pt x="0" y="32" on="0"/>
        <pt x="3" y="32" on="0"/>
        <pt x="16" y="28" on="1"/>
        <pt x="57" y="17" on="0"/>
        <pt x="98" y="17" on="1"/>
        <pt x="182" y="17" on="0"/>
        <pt x="287" y="85" on="0"/>
        <pt x="287" y="138" on="1"/>
        <pt x="287" y="198" on="0"/>
        <pt x="201" y="267" on="1"/>
        <pt x="165" y="296" on="0"/>
        <pt x="129" y="325" on="1"/>
        <pt x="43" y="394" on="0"/>
        <pt x="43" y="460" on="1"/>
        <pt x="43" y="502" on="0"/>
        <pt x="78" y="542" on="1"/>
        <pt x="155" y="631" on="0"/>
        <pt x="391" y="664" on="1"/>
      </contour>
    </TTGlyph>
    <TTGlyph name="Scaron" xMin="0" yMin="-28" xMax="425" yMax="894">
      <component glyphName="S" x="0" y="0" flags="0x1004"/>
      <component glyphName="caron" x="100" y="177" flags="0x1004"/>
    </TTGlyph>
    <TTGlyph name="T" xMin="20" yMin="-33" xMax="462" yMax="661">
      <contour>
        <pt x="234" y="-19" on="1"/>
        <pt x="220" y="-33" on="0"/>
        <pt x="191" y="-33" on="1"/>
        <pt x="184" y="-33" on="0"/>
        <pt x="184" y="-30" on="1"/>
        <pt x="206" y="103" on="0"/>
        <pt x="206" y="406" on="0"/>
        <pt x="194" y="541" on="1"/>
        <pt x="177" y="540" on="0"/>
        <pt x="90" y="540" on="0"/>
        <pt x="36" y="549" on="1"/>
        <pt x="20" y="575" on="1"/>
        <pt x="58" y="661" on="1"/>
        <pt x="121" y="627" on="0"/>
        <pt x="350" y="627" on="0"/>
        <pt x="458" y="654" on="1"/>
        <pt x="462" y="654" on="0"/>
        <pt x="462" y="620" on="0"/>
        <pt x="447" y="607" on="1"/>
        <pt x="367" y="573" on="0"/>
        <pt x="294" y="556" on="1"/>
        <pt x="276" y="144" on="0"/>
      </contour>
    </TTGlyph>
    <TTGlyph name="Thorn" xMin="70" yMin="-33" xMax="439" yMax="677">
      <contour>
        <pt x="143" y="488" on="1"/>
        <pt x="160" y="393" on="0"/>
        <pt x="160" y="219" on="0"/>
        <pt x="156" y="170" on="1"/>
        <pt x="246" y="184" on="0"/>
        <pt x="338" y="263" on="0"/>
        <pt x="338" y="314" on="1"/>
        <pt x="338" y="360" on="0"/>
        <pt x="310" y="388" on="1"/>
        <pt x="295" y="404" on="0"/>
        <pt x="270" y="426" on="0"/>
        <pt x="241" y="441" on="1"/>
        <pt x="196" y="464" on="0"/>
      </contour>
      <contour>
        <pt x="123" y="300" on="1"/>
        <pt x="118" y="564" on="1"/>
        <pt x="158" y="541" on="0"/>
        <pt x="269" y="490" on="0"/>
        <pt x="338" y="457" on="0"/>
        <pt x="372" y="435" on="1"/>
        <pt x="439" y="392" on="0"/>
        <pt x="439" y="248" on="0"/>
        <pt x="306" y="134" on="0"/>
        <pt x="153" y="122" on="1"/>
        <pt x="151" y="205" on="0"/>
      </contour>
      <contour>
        <pt x="134" y="-17" on="1"/>
        <pt x="128" y="-23" on="0"/>
        <pt x="97" y="-33" on="0"/>
        <pt x="80" y="-33" on="0"/>
        <pt x="80" y="-29" on="1"/>
        <pt x="99" y="100" on="0"/>
        <pt x="99" y="235" on="1"/>
        <pt x="99" y="475" on="0"/>
        <pt x="70" y="659" on="1"/>
        <pt x="96" y="677" on="1"/>
        <pt x="186" y="631" on="1"/>
        <pt x="181" y="470" on="0"/>
        <pt x="153" y="77" on="0"/>
      </contour>
    </TTGlyph>
    <TTGlyph name="U" xMin="80" yMin="-34" xMax="566" yMax="677">
      <contour>
        <pt x="218" y="636" on="1"/>
        <pt x="200" y="579" on="0"/>
        <pt x="170" y="392" on="0"/>
        <pt x="170" y="305" on="1"/>
        <pt x="170" y="51" on="0"/>
        <pt x="300" y="51" on="1"/>
        <pt x="359" y="51" on="0"/>
        <pt x="433" y="173" on="0"/>
        <pt x="445" y="260" on="1"/>
        <pt x="436" y="347" on="0"/>
        <pt x="436" y="539" on="0"/>
        <pt x="455" y="661" on="1"/>
        <pt x="481" y="677" on="1"/>
        <pt x="566" y="636" on="1"/>
        <pt x="520" y="518" on="0"/>
        <pt x="520" y="273" on="1"/>
        <pt x="520" y="91" on="0"/>
        <pt x="535" y="-31" on="1"/>
        <pt x="535" y="-34" on="0"/>
        <pt x="527" y="-34" on="1"/>
        <pt x="501" y="-34" on="0"/>
        <pt x="488" y="-19" on="1"/>
        <pt x="467" y="85" on="0"/>
        <pt x="457" y="159" on="1"/>
        <pt x="407" y="-33" on="0"/>
        <pt x="267" y="-33" on="1"/>
        <pt x="213" y="-33" on="0"/>
        <pt x="137" y="31" on="0"/>
        <pt x="117" y="88" on="1"/>
        <pt x="80" y="192" on="0"/>
        <pt x="80" y="499" on="0"/>
        <pt x="107" y="661" on="1"/>
        <pt x="133" y="677" on="1"/>
      </contour>
    </TTGlyph>
    <TTGlyph name="Uacute" xMin="80" yMin="-34" xMax="566" yMax="894">
      <contour>
        <pt x="218" y="636" on="1"/>
        <pt x="200" y="579" on="0"/>
        <pt x="170" y="392" on="0"/>
        <pt x="170" y="305" on="1"/>
        <pt x="170" y="51" on="0"/>
        <pt x="300" y="51" on="1"/>
        <pt x="359" y="51" on="0"/>
        <pt x="433" y="173" on="0"/>
        <pt x="445" y="260" on="1"/>
        <pt x="436" y="347" on="0"/>
        <pt x="436" y="539" on="0"/>
        <pt x="455" y="661" on="1"/>
        <pt x="481" y="677" on="1"/>
        <pt x="566" y="636" on="1"/>
        <pt x="520" y="518" on="0"/>
        <pt x="520" y="273" on="1"/>
        <pt x="520" y="91" on="0"/>
        <pt x="535" y="-31" on="1"/>
        <pt x="535" y="-34" on="0"/>
        <pt x="527" y="-34" on="1"/>
        <pt x="501" y="-34" on="0"/>
        <pt x="488" y="-19" on="1"/>
        <pt x="467" y="85" on="0"/>
        <pt x="457" y="159" on="1"/>
        <pt x="407" y="-33" on="0"/>
        <pt x="267" y="-33" on="1"/>
        <pt x="213" y="-33" on="0"/>
        <pt x="137" y="31" on="0"/>
        <pt x="117" y="88" on="1"/>
        <pt x="80" y="192" on="0"/>
        <pt x="80" y="499" on="0"/>
        <pt x="107" y="661" on="1"/>
        <pt x="133" y="677" on="1"/>
      </contour>
      <contour>
        <pt x="453" y="884" on="1"/>
        <pt x="465" y="797" on="1"/>
        <pt x="422" y="760" on="0"/>
        <pt x="338" y="717" on="0"/>
        <pt x="279" y="699" on="1"/>
        <pt x="271" y="700" on="0"/>
        <pt x="246" y="727" on="0"/>
        <pt x="246" y="737" on="1"/>
        <pt x="360" y="789" on="0"/>
        <pt x="437" y="894" on="1"/>
      </contour>
    </TTGlyph>
    <TTGlyph name="Ucircumflex" xMin="80" yMin="-34" xMax="566" yMax="884">
      <component glyphName="U" x="0" y="0" flags="0x1004"/>
      <component glyphName="circumflex" x="158" y="177" flags="0x1004"/>
    </TTGlyph>
    <TTGlyph name="Udieresis" xMin="80" yMin="-34" xMax="566" yMax="851">
      <contour>
        <pt x="218" y="636" on="1"/>
        <pt x="200" y="579" on="0"/>
        <pt x="170" y="392" on="0"/>
        <pt x="170" y="305" on="1"/>
        <pt x="170" y="51" on="0"/>
        <pt x="300" y="51" on="1"/>
        <pt x="359" y="51" on="0"/>
        <pt x="433" y="173" on="0"/>
        <pt x="445" y="260" on="1"/>
        <pt x="436" y="347" on="0"/>
        <pt x="436" y="539" on="0"/>
        <pt x="455" y="661" on="1"/>
        <pt x="481" y="677" on="1"/>
        <pt x="566" y="636" on="1"/>
        <pt x="520" y="518" on="0"/>
        <pt x="520" y="273" on="1"/>
        <pt x="520" y="91" on="0"/>
        <pt x="535" y="-31" on="1"/>
        <pt x="535" y="-34" on="0"/>
        <pt x="527" y="-34" on="1"/>
        <pt x="501" y="-34" on="0"/>
        <pt x="488" y="-19" on="1"/>
        <pt x="467" y="85" on="0"/>
        <pt x="457" y="159" on="1"/>
        <pt x="407" y="-33" on="0"/>
        <pt x="267" y="-33" on="1"/>
        <pt x="213" y="-33" on="0"/>
        <pt x="137" y="31" on="0"/>
        <pt x="117" y="88" on="1"/>
        <pt x="80" y="192" on="0"/>
        <pt x="80" y="499" on="0"/>
        <pt x="107" y="661" on="1"/>
        <pt x="133" y="677" on="1"/>
      </contour>
      <contour>
        <pt x="193" y="779" on="1"/>
        <pt x="193" y="839" on="0"/>
        <pt x="278" y="851" on="1"/>
        <pt x="307" y="828" on="0"/>
        <pt x="307" y="761" on="0"/>
        <pt x="267" y="726" on="0"/>
        <pt x="219" y="726" on="0"/>
        <pt x="193" y="759" on="0"/>
      </contour>
      <contour>
        <pt x="380" y="779" on="1"/>
        <pt x="380" y="839" on="0"/>
        <pt x="465" y="851" on="1"/>
        <pt x="494" y="828" on="0"/>
        <pt x="494" y="761" on="0"/>
        <pt x="454" y="726" on="0"/>
        <pt x="406" y="726" on="0"/>
        <pt x="380" y="759" on="0"/>
      </contour>
    </TTGlyph>
    <TTGlyph name="Ugrave" xMin="80" yMin="-34" xMax="566" yMax="894">
      <component glyphName="U" x="0" y="0" flags="0x1004"/>
      <component glyphName="grave" x="146" y="177" flags="0x1004"/>
    </TTGlyph>
    <TTGlyph name="V" xMin="25" yMin="-28" xMax="493" yMax="677">
      <contour>
        <pt x="242" y="-28" on="1"/>
        <pt x="214" y="-28" on="0"/>
        <pt x="198" y="-9" on="1"/>
        <pt x="140" y="109" on="0"/>
        <pt x="38" y="476" on="0"/>
        <pt x="25" y="636" on="1"/>
        <pt x="112" y="677" on="1"/>
        <pt x="138" y="661" on="1"/>
        <pt x="134" y="616" on="0"/>
        <pt x="134" y="560" on="1"/>
        <pt x="134" y="326" on="0"/>
        <pt x="231" y="40" on="1"/>
        <pt x="253" y="175" on="0"/>
        <pt x="377" y="549" on="0"/>
        <pt x="440" y="658" on="1"/>
        <pt x="461" y="677" on="0"/>
        <pt x="489" y="677" on="1"/>
        <pt x="493" y="677" on="0"/>
        <pt x="493" y="667" on="0"/>
        <pt x="469" y="607" on="0"/>
        <pt x="429" y="497" on="0"/>
        <pt x="406" y="426" on="1"/>
        <pt x="353" y="257" on="0"/>
        <pt x="321" y="20" on="1"/>
      </contour>
    </TTGlyph>
    <TTGlyph name="W" xMin="25" yMin="-28" xMax="809" yMax="677">
      <contour>
        <pt x="242" y="-28" on="1"/>
        <pt x="214" y="-28" on="0"/>
        <pt x="198" y="-9" on="1"/>
        <pt x="140" y="109" on="0"/>
        <pt x="38" y="476" on="0"/>
        <pt x="25" y="636" on="1"/>
        <pt x="112" y="677" on="1"/>
        <pt x="138" y="661" on="1"/>
        <pt x="134" y="616" on="0"/>
        <pt x="134" y="560" on="1"/>
        <pt x="134" y="327" on="0"/>
        <pt x="231" y="41" on="1"/>
        <pt x="246" y="148" on="0"/>
        <pt x="327" y="443" on="0"/>
        <pt x="374" y="559" on="1"/>
        <pt x="370" y="584" on="0"/>
        <pt x="366" y="636" on="1"/>
        <pt x="453" y="677" on="1"/>
        <pt x="479" y="661" on="1"/>
        <pt x="475" y="616" on="0"/>
        <pt x="475" y="560" on="1"/>
        <pt x="475" y="327" on="0"/>
        <pt x="572" y="41" on="1"/>
        <pt x="591" y="176" on="0"/>
        <pt x="700" y="549" on="0"/>
        <pt x="756" y="658" on="1"/>
        <pt x="777" y="677" on="0"/>
        <pt x="805" y="677" on="1"/>
        <pt x="809" y="677" on="0"/>
        <pt x="809" y="669" on="0"/>
        <pt x="756" y="519" on="0"/>
        <pt x="682" y="205" on="0"/>
        <pt x="662" y="20" on="1"/>
        <pt x="583" y="-28" on="1"/>
        <pt x="555" y="-28" on="0"/>
        <pt x="539" y="-9" on="1"/>
        <pt x="450" y="173" on="0"/>
        <pt x="396" y="435" on="1"/>
        <pt x="345" y="242" on="0"/>
        <pt x="321" y="20" on="1"/>
      </contour>
    </TTGlyph>
    <TTGlyph name="X" xMin="15" yMin="-33" xMax="529" yMax="668">
      <contour>
        <pt x="59" y="-24" on="1"/>
        <pt x="57" y="-28" on="0"/>
        <pt x="48" y="-28" on="1"/>
        <pt x="27" y="-28" on="0"/>
        <pt x="15" y="-8" on="1"/>
        <pt x="106" y="165" on="0"/>
        <pt x="195" y="310" on="1"/>
        <pt x="102" y="485" on="0"/>
        <pt x="75" y="650" on="1"/>
        <pt x="101" y="668" on="1"/>
        <pt x="186" y="625" on="1"/>
        <pt x="199" y="522" on="0"/>
        <pt x="250" y="399" on="1"/>
        <pt x="332" y="529" on="0"/>
        <pt x="413" y="643" on="1"/>
        <pt x="500" y="663" on="1"/>
        <pt x="529" y="640" on="1"/>
        <pt x="404" y="486" on="0"/>
        <pt x="286" y="318" on="1"/>
        <pt x="350" y="183" on="0"/>
        <pt x="481" y="-24" on="1"/>
        <pt x="481" y="-33" on="0"/>
        <pt x="471" y="-33" on="1"/>
        <pt x="435" y="-33" on="0"/>
        <pt x="424" y="-20" on="1"/>
        <pt x="321" y="89" on="0"/>
        <pt x="232" y="241" on="1"/>
        <pt x="131" y="92" on="0"/>
      </contour>
    </TTGlyph>
    <TTGlyph name="Y" xMin="55" yMin="-34" xMax="491" yMax="679">
      <contour>
        <pt x="142" y="677" on="1"/>
        <pt x="168" y="661" on="1"/>
        <pt x="168" y="477" on="0"/>
        <pt x="219" y="312" on="1"/>
        <pt x="236" y="350" on="0"/>
        <pt x="388" y="598" on="0"/>
        <pt x="442" y="665" on="1"/>
        <pt x="454" y="679" on="0"/>
        <pt x="485" y="679" on="1"/>
        <pt x="491" y="679" on="0"/>
        <pt x="491" y="670" on="0"/>
        <pt x="402" y="525" on="0"/>
        <pt x="290" y="305" on="0"/>
        <pt x="268" y="218" on="1"/>
        <pt x="262" y="160" on="0"/>
        <pt x="262" y="104" on="1"/>
        <pt x="262" y="15" on="0"/>
        <pt x="265" y="-20" on="1"/>
        <pt x="266" y="-31" on="1"/>
        <pt x="266" y="-34" on="0"/>
        <pt x="249" y="-34" on="0"/>
        <pt x="218" y="-25" on="0"/>
        <pt x="213" y="-19" on="1"/>
        <pt x="192" y="93" on="0"/>
        <pt x="190" y="216" on="1"/>
        <pt x="144" y="314" on="0"/>
        <pt x="64" y="557" on="0"/>
        <pt x="55" y="636" on="1"/>
      </contour>
    </TTGlyph>
    <TTGlyph name="Yacute" xMin="25" yMin="-34" xMax="461" yMax="894">
      <contour>
        <pt x="112" y="677" on="1"/>
        <pt x="138" y="661" on="1"/>
        <pt x="138" y="477" on="0"/>
        <pt x="189" y="312" on="1"/>
        <pt x="206" y="350" on="0"/>
        <pt x="358" y="598" on="0"/>
        <pt x="412" y="665" on="1"/>
        <pt x="424" y="679" on="0"/>
        <pt x="455" y="679" on="1"/>
        <pt x="461" y="679" on="0"/>
        <pt x="461" y="670" on="0"/>
        <pt x="372" y="525" on="0"/>
        <pt x="260" y="305" on="0"/>
        <pt x="238" y="218" on="1"/>
        <pt x="232" y="160" on="0"/>
        <pt x="232" y="104" on="1"/>
        <pt x="232" y="15" on="0"/>
        <pt x="235" y="-20" on="1"/>
        <pt x="236" y="-31" on="1"/>
        <pt x="236" y="-34" on="0"/>
        <pt x="219" y="-34" on="0"/>
        <pt x="188" y="-25" on="0"/>
        <pt x="183" y="-19" on="1"/>
        <pt x="162" y="93" on="0"/>
        <pt x="160" y="216" on="1"/>
        <pt x="114" y="314" on="0"/>
        <pt x="34" y="557" on="0"/>
        <pt x="25" y="636" on="1"/>
      </contour>
      <contour>
        <pt x="358" y="884" on="1"/>
        <pt x="370" y="797" on="1"/>
        <pt x="327" y="760" on="0"/>
        <pt x="243" y="717" on="0"/>
        <pt x="184" y="699" on="1"/>
        <pt x="176" y="700" on="0"/>
        <pt x="151" y="727" on="0"/>
        <pt x="151" y="737" on="1"/>
        <pt x="265" y="789" on="0"/>
        <pt x="342" y="894" on="1"/>
      </contour>
    </TTGlyph>
    <TTGlyph name="Ydieresis" xMin="25" yMin="-34" xMax="461" yMax="851">
      <contour>
        <pt x="112" y="677" on="1"/>
        <pt x="138" y="661" on="1"/>
        <pt x="138" y="477" on="0"/>
        <pt x="189" y="312" on="1"/>
        <pt x="206" y="350" on="0"/>
        <pt x="358" y="598" on="0"/>
        <pt x="412" y="665" on="1"/>
        <pt x="424" y="679" on="0"/>
        <pt x="455" y="679" on="1"/>
        <pt x="461" y="679" on="0"/>
        <pt x="461" y="670" on="0"/>
        <pt x="372" y="525" on="0"/>
        <pt x="260" y="305" on="0"/>
        <pt x="238" y="218" on="1"/>
        <pt x="232" y="160" on="0"/>
        <pt x="232" y="104" on="1"/>
        <pt x="232" y="15" on="0"/>
        <pt x="235" y="-20" on="1"/>
        <pt x="236" y="-31" on="1"/>
        <pt x="236" y="-34" on="0"/>
        <pt x="219" y="-34" on="0"/>
        <pt x="188" y="-25" on="0"/>
        <pt x="183" y="-19" on="1"/>
        <pt x="162" y="93" on="0"/>
        <pt x="160" y="216" on="1"/>
        <pt x="114" y="314" on="0"/>
        <pt x="34" y="557" on="0"/>
        <pt x="25" y="636" on="1"/>
      </contour>
      <contour>
        <pt x="117" y="779" on="1"/>
        <pt x="117" y="839" on="0"/>
        <pt x="202" y="851" on="1"/>
        <pt x="231" y="828" on="0"/>
        <pt x="231" y="761" on="0"/>
        <pt x="191" y="726" on="0"/>
        <pt x="143" y="726" on="0"/>
        <pt x="117" y="759" on="0"/>
      </contour>
      <contour>
        <pt x="304" y="779" on="1"/>
        <pt x="304" y="839" on="0"/>
        <pt x="389" y="851" on="1"/>
        <pt x="418" y="828" on="0"/>
        <pt x="418" y="761" on="0"/>
        <pt x="378" y="726" on="0"/>
        <pt x="330" y="726" on="0"/>
        <pt x="304" y="759" on="0"/>
      </contour>
    </TTGlyph>
    <TTGlyph name="Z" xMin="0" yMin="-30" xMax="461" yMax="668">
      <contour>
        <pt x="434" y="668" on="1"/>
        <pt x="460" y="650" on="1"/>
        <pt x="417" y="396" on="0"/>
        <pt x="131" y="78" on="1"/>
        <pt x="370" y="55" on="0"/>
        <pt x="449" y="29" on="1"/>
        <pt x="461" y="14" on="0"/>
        <pt x="461" y="-30" on="0"/>
        <pt x="459" y="-30" on="1"/>
        <pt x="358" y="-8" on="0"/>
        <pt x="124" y="-8" on="0"/>
        <pt x="19" y="-24" on="1"/>
        <pt x="0" y="6" on="1"/>
        <pt x="7" y="13" on="1"/>
        <pt x="279" y="327" on="0"/>
        <pt x="337" y="561" on="1"/>
        <pt x="255" y="543" on="0"/>
        <pt x="123" y="543" on="0"/>
        <pt x="72" y="550" on="1"/>
        <pt x="31" y="633" on="1"/>
        <pt x="46" y="660" on="1"/>
        <pt x="122" y="626" on="0"/>
        <pt x="282" y="626" on="1"/>
        <pt x="321" y="626" on="0"/>
        <pt x="357" y="629" on="1"/>
      </contour>
    </TTGlyph>
    <TTGlyph name="Zcaron" xMin="0" yMin="-30" xMax="461" yMax="894">
      <component glyphName="Z" x="0" y="0" flags="0x1004"/>
      <component glyphName="caron" x="97" y="177" flags="0x1004"/>
    </TTGlyph>
    <TTGlyph name="a" xMin="24" yMin="-28" xMax="422" yMax="493">
      <contour>
        <pt x="317" y="458" on="1"/>
        <pt x="398" y="493" on="1"/>
        <pt x="422" y="479" on="1"/>
        <pt x="389" y="382" on="0"/>
        <pt x="389" y="255" on="1"/>
        <pt x="389" y="201" on="0"/>
        <pt x="407" y="9" on="0"/>
        <pt x="415" y="-25" on="1"/>
        <pt x="415" y="-28" on="0"/>
        <pt x="385" y="-28" on="0"/>
        <pt x="371" y="-14" on="1"/>
        <pt x="339" y="60" on="0"/>
        <pt x="320" y="204" on="1"/>
        <pt x="278" y="104" on="0"/>
        <pt x="161" y="-22" on="0"/>
        <pt x="114" y="-22" on="1"/>
        <pt x="24" y="-22" on="0"/>
        <pt x="24" y="91" on="1"/>
        <pt x="24" y="156" on="0"/>
        <pt x="76" y="276" on="0"/>
        <pt x="120" y="321" on="1"/>
        <pt x="208" y="410" on="0"/>
      </contour>
      <contour>
        <pt x="168" y="98" on="1"/>
        <pt x="200" y="98" on="0"/>
        <pt x="279" y="201" on="0"/>
        <pt x="310" y="295" on="1"/>
        <pt x="309" y="309" on="0"/>
        <pt x="309" y="389" on="0"/>
        <pt x="310" y="408" on="1"/>
        <pt x="224" y="359" on="0"/>
        <pt x="118" y="248" on="0"/>
        <pt x="118" y="98" on="0"/>
      </contour>
    </TTGlyph>
    <TTGlyph name="aacute" xMin="24" yMin="-28" xMax="422" yMax="717">
      <component glyphName="a" x="0" y="0" flags="0x1004"/>
      <component glyphName="acute" x="115" y="0" flags="0x1004"/>
    </TTGlyph>
    <TTGlyph name="acircumflex" xMin="24" yMin="-28" xMax="422" yMax="707">
      <component glyphName="a" x="0" y="0" flags="0x1004"/>
      <component glyphName="circumflex" x="91" y="0" flags="0x1004"/>
    </TTGlyph>
    <TTGlyph name="acute" xMin="50" yMin="522" xMax="269" yMax="717">
      <contour>
        <pt x="257" y="707" on="1"/>
        <pt x="269" y="620" on="1"/>
        <pt x="226" y="583" on="0"/>
        <pt x="142" y="540" on="0"/>
        <pt x="83" y="522" on="1"/>
        <pt x="75" y="523" on="0"/>
        <pt x="50" y="550" on="0"/>
        <pt x="50" y="560" on="1"/>
        <pt x="164" y="612" on="0"/>
        <pt x="241" y="717" on="1"/>
      </contour>
    </TTGlyph>
    <TTGlyph name="adieresis" xMin="24" yMin="-28" xMax="429" yMax="674">
      <component glyphName="a" x="0" y="0" flags="0x1004"/>
      <component glyphName="dieresis" x="78" y="0" flags="0x1004"/>
    </TTGlyph>
    <TTGlyph name="ae" xMin="24" yMin="-22" xMax="653" yMax="493">
      <contour>
        <pt x="317" y="458" on="1"/>
        <pt x="398" y="493" on="1"/>
        <pt x="422" y="479" on="1"/>
        <pt x="398" y="421" on="0"/>
        <pt x="385" y="380" on="1"/>
        <pt x="456" y="451" on="0"/>
        <pt x="571" y="477" on="1"/>
        <pt x="632" y="456" on="0"/>
        <pt x="632" y="368" on="1"/>
        <pt x="621" y="322" on="0"/>
        <pt x="555" y="248" on="0"/>
        <pt x="513" y="226" on="1"/>
        <pt x="436" y="186" on="0"/>
        <pt x="378" y="175" on="1"/>
        <pt x="382" y="125" on="0"/>
        <pt x="426" y="77" on="0"/>
        <pt x="457" y="77" on="1"/>
        <pt x="545" y="77" on="0"/>
        <pt x="616" y="225" on="1"/>
        <pt x="618" y="231" on="0"/>
        <pt x="635" y="231" on="0"/>
        <pt x="653" y="217" on="1"/>
        <pt x="610" y="113" on="0"/>
        <pt x="485" y="-22" on="0"/>
        <pt x="361" y="-22" on="0"/>
        <pt x="292" y="68" on="0"/>
        <pt x="292" y="144" on="1"/>
        <pt x="292" y="145" on="1"/>
        <pt x="251" y="69" on="0"/>
        <pt x="153" y="-22" on="0"/>
        <pt x="67" y="-22" on="0"/>
        <pt x="24" y="39" on="0"/>
        <pt x="24" y="156" on="0"/>
        <pt x="76" y="276" on="0"/>
        <pt x="120" y="321" on="1"/>
        <pt x="208" y="410" on="0"/>
      </contour>
      <contour>
        <pt x="168" y="98" on="1"/>
        <pt x="205" y="98" on="0"/>
        <pt x="286" y="215" on="0"/>
        <pt x="338" y="365" on="0"/>
        <pt x="346" y="427" on="1"/>
        <pt x="180" y="342" on="0"/>
        <pt x="137" y="254" on="1"/>
        <pt x="118" y="215" on="0"/>
        <pt x="118" y="172" on="1"/>
        <pt x="118" y="98" on="0"/>
      </contour>
      <contour>
        <pt x="515" y="398" on="1"/>
        <pt x="473" y="398" on="0"/>
        <pt x="383" y="301" on="0"/>
        <pt x="378" y="215" on="1"/>
        <pt x="461" y="237" on="0"/>
        <pt x="550" y="322" on="0"/>
        <pt x="550" y="363" on="1"/>
        <pt x="550" y="378" on="0"/>
        <pt x="532" y="398" on="0"/>
      </contour>
    </TTGlyph>
    <TTGlyph name="agrave" xMin="24" yMin="-28" xMax="422" yMax="717">
      <component glyphName="a" x="0" y="0" flags="0x1004"/>
      <component glyphName="grave" x="148" y="0" flags="0x1004"/>
    </TTGlyph>
    <TTGlyph name="ampersand" xMin="25" yMin="-33" xMax="533" yMax="664">
      <contour>
        <pt x="174" y="-22" on="1"/>
        <pt x="103" y="-22" on="0"/>
        <pt x="25" y="66" on="0"/>
        <pt x="25" y="198" on="0"/>
        <pt x="96" y="327" on="0"/>
        <pt x="164" y="374" on="1"/>
        <pt x="140" y="430" on="0"/>
        <pt x="140" y="505" on="0"/>
        <pt x="163" y="558" on="0"/>
        <pt x="195" y="586" on="1"/>
        <pt x="261" y="644" on="0"/>
        <pt x="474" y="664" on="1"/>
        <pt x="490" y="638" on="1"/>
        <pt x="458" y="552" on="1"/>
        <pt x="399" y="588" on="0"/>
        <pt x="299" y="588" on="0"/>
        <pt x="243" y="534" on="0"/>
        <pt x="243" y="481" on="1"/>
        <pt x="243" y="372" on="0"/>
        <pt x="368" y="191" on="1"/>
        <pt x="408" y="256" on="0"/>
        <pt x="433" y="341" on="1"/>
        <pt x="435" y="349" on="0"/>
        <pt x="440" y="349" on="1"/>
        <pt x="454" y="349" on="0"/>
        <pt x="471" y="335" on="1"/>
        <pt x="454" y="228" on="0"/>
        <pt x="404" y="141" on="1"/>
        <pt x="446" y="84" on="0"/>
        <pt x="533" y="-24" on="1"/>
        <pt x="533" y="-33" on="0"/>
        <pt x="524" y="-33" on="1"/>
        <pt x="492" y="-33" on="0"/>
        <pt x="476" y="-20" on="1"/>
        <pt x="428" y="24" on="0"/>
        <pt x="368" y="89" on="1"/>
        <pt x="280" y="-22" on="0"/>
      </contour>
      <contour>
        <pt x="327" y="134" on="1"/>
        <pt x="238" y="238" on="0"/>
        <pt x="189" y="323" on="1"/>
        <pt x="122" y="260" on="0"/>
        <pt x="122" y="176" on="1"/>
        <pt x="122" y="132" on="0"/>
        <pt x="168" y="67" on="0"/>
        <pt x="208" y="67" on="1"/>
        <pt x="270" y="67" on="0"/>
      </contour>
    </TTGlyph>
    <TTGlyph name="approxequal" xMin="51" yMin="178" xMax="449" yMax="465">
      <contour>
        <pt x="430" y="299" on="1"/>
        <pt x="449" y="258" on="1"/>
        <pt x="448" y="241" on="0"/>
        <pt x="444" y="212" on="1"/>
        <pt x="410" y="189" on="0"/>
        <pt x="337" y="189" on="0"/>
        <pt x="208" y="233" on="0"/>
        <pt x="173" y="233" on="1"/>
        <pt x="113" y="233" on="0"/>
        <pt x="66" y="180" on="1"/>
        <pt x="64" y="178" on="0"/>
        <pt x="63" y="178" on="1"/>
        <pt x="57" y="178" on="0"/>
        <pt x="57" y="229" on="0"/>
        <pt x="58" y="235" on="1"/>
        <pt x="111" y="304" on="0"/>
        <pt x="188" y="304" on="1"/>
        <pt x="216" y="304" on="0"/>
        <pt x="324" y="277" on="0"/>
        <pt x="391" y="277" on="0"/>
      </contour>
      <contour>
        <pt x="424" y="460" on="1"/>
        <pt x="443" y="419" on="1"/>
        <pt x="442" y="402" on="0"/>
        <pt x="438" y="373" on="1"/>
        <pt x="404" y="350" on="0"/>
        <pt x="331" y="350" on="0"/>
        <pt x="202" y="394" on="0"/>
        <pt x="167" y="394" on="1"/>
        <pt x="107" y="394" on="0"/>
        <pt x="60" y="341" on="1"/>
        <pt x="58" y="339" on="0"/>
        <pt x="57" y="339" on="1"/>
        <pt x="51" y="339" on="0"/>
        <pt x="51" y="390" on="0"/>
        <pt x="52" y="396" on="1"/>
        <pt x="105" y="465" on="0"/>
        <pt x="182" y="465" on="1"/>
        <pt x="210" y="465" on="0"/>
        <pt x="318" y="438" on="0"/>
        <pt x="385" y="438" on="0"/>
      </contour>
    </TTGlyph>
    <TTGlyph name="aring" xMin="24" yMin="-28" xMax="422" yMax="705">
      <component glyphName="a" x="0" y="0" flags="0x1004"/>
      <component glyphName="ring" x="164" y="0" flags="0x1004"/>
    </TTGlyph>
    <TTGlyph name="asciicircum" xMin="50" yMin="305" xMax="454" yMax="677">
      <contour>
        <pt x="278" y="564" on="1"/>
        <pt x="266" y="564" on="1"/>
        <pt x="205" y="423" on="0"/>
        <pt x="110" y="305" on="1"/>
        <pt x="57" y="333" on="1"/>
        <pt x="50" y="364" on="1"/>
        <pt x="174" y="515" on="0"/>
        <pt x="254" y="677" on="1"/>
        <pt x="314" y="677" on="1"/>
        <pt x="367" y="501" on="0"/>
        <pt x="454" y="364" on="1"/>
        <pt x="439" y="333" on="1"/>
        <pt x="382" y="305" on="1"/>
        <pt x="315" y="420" on="0"/>
      </contour>
    </TTGlyph>
    <TTGlyph name="asciitilde" xMin="51" yMin="257" xMax="443" yMax="383">
      <contour>
        <pt x="424" y="378" on="1"/>
        <pt x="443" y="337" on="1"/>
        <pt x="442" y="320" on="0"/>
        <pt x="438" y="291" on="1"/>
        <pt x="404" y="268" on="0"/>
        <pt x="331" y="268" on="0"/>
        <pt x="202" y="312" on="0"/>
        <pt x="167" y="312" on="1"/>
        <pt x="107" y="312" on="0"/>
        <pt x="60" y="259" on="1"/>
        <pt x="58" y="257" on="0"/>
        <pt x="57" y="257" on="1"/>
        <pt x="51" y="257" on="0"/>
        <pt x="51" y="308" on="0"/>
        <pt x="52" y="314" on="1"/>
        <pt x="105" y="383" on="0"/>
        <pt x="182" y="383" on="1"/>
        <pt x="210" y="383" on="0"/>
        <pt x="318" y="356" on="0"/>
        <pt x="385" y="356" on="0"/>
      </contour>
    </TTGlyph>
    <TTGlyph name="asterisk" xMin="80" yMin="360" xMax="395" yMax="700">
      <contour>
        <pt x="197" y="480" on="1"/>
        <pt x="106" y="417" on="1"/>
        <pt x="100" y="417" on="0"/>
        <pt x="84" y="452" on="0"/>
        <pt x="84" y="460" on="1"/>
        <pt x="137" y="505" on="0"/>
        <pt x="167" y="529" on="1"/>
        <pt x="114" y="568" on="0"/>
        <pt x="80" y="605" on="1"/>
        <pt x="102" y="648" on="1"/>
        <pt x="128" y="666" on="1"/>
        <pt x="164" y="621" on="0"/>
        <pt x="201" y="588" on="1"/>
        <pt x="207" y="644" on="0"/>
        <pt x="222" y="696" on="1"/>
        <pt x="269" y="700" on="1"/>
        <pt x="297" y="687" on="1"/>
        <pt x="284" y="647" on="0"/>
        <pt x="274" y="602" on="1"/>
        <pt x="311" y="625" on="0"/>
        <pt x="355" y="642" on="1"/>
        <pt x="388" y="608" on="1"/>
        <pt x="395" y="577" on="1"/>
        <pt x="341" y="557" on="0"/>
        <pt x="276" y="525" on="1"/>
        <pt x="328" y="486" on="0"/>
        <pt x="379" y="455" on="1"/>
        <pt x="381" y="453" on="0"/>
        <pt x="381" y="452" on="1"/>
        <pt x="366" y="423" on="0"/>
        <pt x="348" y="418" on="1"/>
        <pt x="293" y="447" on="0"/>
        <pt x="254" y="470" on="1"/>
        <pt x="251" y="421" on="0"/>
        <pt x="251" y="363" on="1"/>
        <pt x="249" y="359" on="0"/>
        <pt x="216" y="361" on="0"/>
        <pt x="204" y="368" on="1"/>
        <pt x="198" y="447" on="0"/>
      </contour>
    </TTGlyph>
    <TTGlyph name="at" xMin="66" yMin="-107" xMax="824" yMax="605">
      <contour>
        <pt x="492" y="212" on="1"/>
        <pt x="486" y="216" on="1"/>
        <pt x="447" y="138" on="0"/>
        <pt x="350" y="42" on="0"/>
        <pt x="308" y="42" on="1"/>
        <pt x="239" y="42" on="0"/>
        <pt x="239" y="128" on="1"/>
        <pt x="239" y="184" on="0"/>
        <pt x="291" y="292" on="0"/>
        <pt x="333" y="334" on="1"/>
        <pt x="413" y="413" on="0"/>
        <pt x="514" y="457" on="1"/>
        <pt x="584" y="487" on="1"/>
        <pt x="604" y="475" on="1"/>
        <pt x="586" y="435" on="0"/>
        <pt x="550" y="223" on="0"/>
        <pt x="550" y="143" on="1"/>
        <pt x="550" y="39" on="0"/>
        <pt x="593" y="39" on="1"/>
        <pt x="639" y="39" on="0"/>
        <pt x="728" y="185" on="0"/>
        <pt x="728" y="433" on="0"/>
        <pt x="593" y="555" on="0"/>
        <pt x="487" y="555" on="1"/>
        <pt x="347" y="555" on="0"/>
        <pt x="152" y="336" on="0"/>
        <pt x="152" y="174" on="1"/>
        <pt x="152" y="61" on="0"/>
        <pt x="266" y="-57" on="0"/>
        <pt x="358" y="-57" on="1"/>
        <pt x="365" y="-57" on="0"/>
        <pt x="365" y="-63" on="1"/>
        <pt x="362" y="-91" on="0"/>
        <pt x="350" y="-107" on="1"/>
        <pt x="222" y="-107" on="0"/>
        <pt x="66" y="34" on="0"/>
        <pt x="66" y="172" on="1"/>
        <pt x="66" y="356" on="0"/>
        <pt x="321" y="605" on="0"/>
        <pt x="505" y="605" on="1"/>
        <pt x="647" y="605" on="0"/>
        <pt x="824" y="461" on="0"/>
        <pt x="824" y="185" on="0"/>
        <pt x="658" y="-19" on="0"/>
        <pt x="567" y="-19" on="1"/>
        <pt x="520" y="-19" on="0"/>
        <pt x="485" y="47" on="0"/>
        <pt x="485" y="149" on="0"/>
      </contour>
      <contour>
        <pt x="361" y="144" on="1"/>
        <pt x="390" y="144" on="0"/>
        <pt x="468" y="229" on="0"/>
        <pt x="501" y="311" on="1"/>
        <pt x="516" y="407" on="1"/>
        <pt x="443" y="378" on="0"/>
        <pt x="322" y="271" on="0"/>
        <pt x="322" y="144" on="0"/>
      </contour>
    </TTGlyph>
    <TTGlyph name="atilde" xMin="24" yMin="-28" xMax="431" yMax="673">
      <contour>
        <pt x="317" y="458" on="1"/>
        <pt x="398" y="493" on="1"/>
        <pt x="422" y="479" on="1"/>
        <pt x="389" y="382" on="0"/>
        <pt x="389" y="255" on="1"/>
        <pt x="389" y="201" on="0"/>
        <pt x="407" y="9" on="0"/>
        <pt x="415" y="-25" on="1"/>
        <pt x="415" y="-28" on="0"/>
        <pt x="385" y="-28" on="0"/>
        <pt x="371" y="-14" on="1"/>
        <pt x="339" y="60" on="0"/>
        <pt x="320" y="204" on="1"/>
        <pt x="278" y="104" on="0"/>
        <pt x="161" y="-22" on="0"/>
        <pt x="114" y="-22" on="1"/>
        <pt x="24" y="-22" on="0"/>
        <pt x="24" y="91" on="1"/>
        <pt x="24" y="156" on="0"/>
        <pt x="76" y="276" on="0"/>
        <pt x="120" y="321" on="1"/>
        <pt x="208" y="410" on="0"/>
      </contour>
      <contour>
        <pt x="168" y="98" on="1"/>
        <pt x="200" y="98" on="0"/>
        <pt x="279" y="201" on="0"/>
        <pt x="310" y="295" on="1"/>
        <pt x="309" y="309" on="0"/>
        <pt x="309" y="389" on="0"/>
        <pt x="310" y="408" on="1"/>
        <pt x="224" y="359" on="0"/>
        <pt x="118" y="248" on="0"/>
        <pt x="118" y="98" on="0"/>
      </contour>
      <contour>
        <pt x="166" y="546" on="1"/>
        <pt x="152" y="554" on="1"/>
        <pt x="134" y="606" on="1"/>
        <pt x="146" y="628" on="0"/>
        <pt x="195" y="658" on="0"/>
        <pt x="246" y="658" on="0"/>
        <pt x="311" y="629" on="0"/>
        <pt x="331" y="629" on="1"/>
        <pt x="375" y="629" on="0"/>
        <pt x="405" y="673" on="1"/>
        <pt x="415" y="673" on="0"/>
        <pt x="431" y="659" on="0"/>
        <pt x="431" y="652" on="1"/>
        <pt x="391" y="558" on="0"/>
        <pt x="322" y="558" on="1"/>
        <pt x="298" y="558" on="0"/>
        <pt x="240" y="575" on="0"/>
        <pt x="229" y="575" on="1"/>
        <pt x="202" y="575" on="0"/>
      </contour>
    </TTGlyph>
    <TTGlyph name="b" xMin="54" yMin="-31" xMax="442" yMax="712">
      <contour>
        <pt x="87" y="712" on="1"/>
        <pt x="168" y="674" on="1"/>
        <pt x="178" y="603" on="0"/>
        <pt x="178" y="423" on="0"/>
        <pt x="166" y="310" on="1"/>
        <pt x="207" y="392" on="0"/>
        <pt x="310" y="491" on="0"/>
        <pt x="356" y="491" on="1"/>
        <pt x="442" y="491" on="0"/>
        <pt x="442" y="378" on="1"/>
        <pt x="442" y="288" on="0"/>
        <pt x="343" y="105" on="0"/>
        <pt x="168" y="-23" on="0"/>
        <pt x="69" y="-30" on="1"/>
        <pt x="67" y="-31" on="0"/>
        <pt x="54" y="-31" on="0"/>
        <pt x="54" y="-26" on="1"/>
        <pt x="101" y="174" on="0"/>
        <pt x="101" y="560" on="0"/>
        <pt x="63" y="696" on="1"/>
      </contour>
      <contour>
        <pt x="137" y="109" on="1"/>
        <pt x="119" y="25" on="1"/>
        <pt x="231" y="63" on="0"/>
        <pt x="348" y="224" on="0"/>
        <pt x="348" y="371" on="0"/>
        <pt x="299" y="371" on="1"/>
        <pt x="260" y="371" on="0"/>
        <pt x="167" y="232" on="0"/>
      </contour>
    </TTGlyph>
    <TTGlyph name="backslash" xMin="0" yMin="-103" xMax="460" yMax="738">
      <contour>
        <pt x="412" y="-98" on="1"/>
        <pt x="391" y="-54" on="0"/>
        <pt x="287" y="173" on="0"/>
        <pt x="231" y="289" on="0"/>
        <pt x="185" y="382" on="1"/>
        <pt x="99" y="554" on="0"/>
        <pt x="0" y="712" on="1"/>
        <pt x="32" y="738" on="1"/>
        <pt x="115" y="716" on="1"/>
        <pt x="259" y="401" on="0"/>
        <pt x="460" y="-81" on="1"/>
        <pt x="446" y="-103" on="0"/>
        <pt x="424" y="-103" on="1"/>
        <pt x="414" y="-103" on="0"/>
      </contour>
    </TTGlyph>
    <TTGlyph name="bar" xMin="108" yMin="-114" xMax="236" yMax="750">
      <contour>
        <pt x="120" y="-74" on="0"/>
        <pt x="108" y="146" on="0"/>
        <pt x="108" y="552" on="0"/>
        <pt x="126" y="735" on="1"/>
        <pt x="152" y="750" on="1"/>
        <pt x="236" y="695" on="1"/>
        <pt x="208" y="580" on="0"/>
        <pt x="173" y="112" on="0"/>
        <pt x="173" y="-94" on="1"/>
        <pt x="160" y="-114" on="0"/>
        <pt x="137" y="-114" on="1"/>
        <pt x="127" y="-114" on="0"/>
      </contour>
    </TTGlyph>
    <TTGlyph name="braceleft" xMin="36" yMin="-83" xMax="347" yMax="744">
      <contour>
        <pt x="36" y="321" on="1"/>
        <pt x="39" y="372" on="1"/>
        <pt x="73" y="372" on="0"/>
        <pt x="98" y="387" on="1"/>
        <pt x="96" y="425" on="0"/>
        <pt x="96" y="517" on="0"/>
        <pt x="106" y="608" on="0"/>
        <pt x="129" y="694" on="0"/>
        <pt x="174" y="744" on="0"/>
        <pt x="205" y="744" on="1"/>
        <pt x="253" y="744" on="0"/>
        <pt x="338" y="712" on="1"/>
        <pt x="347" y="703" on="0"/>
        <pt x="347" y="656" on="0"/>
        <pt x="341" y="650" on="1"/>
        <pt x="280" y="666" on="0"/>
        <pt x="223" y="670" on="1"/>
        <pt x="192" y="584" on="0"/>
        <pt x="176" y="440" on="1"/>
        <pt x="168" y="376" on="0"/>
        <pt x="117" y="343" on="1"/>
        <pt x="146" y="323" on="0"/>
        <pt x="168" y="276" on="0"/>
        <pt x="168" y="223" on="0"/>
        <pt x="158" y="75" on="0"/>
        <pt x="158" y="-15" on="1"/>
        <pt x="229" y="-8" on="0"/>
        <pt x="304" y="20" on="1"/>
        <pt x="315" y="2" on="1"/>
        <pt x="282" y="-76" on="1"/>
        <pt x="247" y="-83" on="0"/>
        <pt x="216" y="-83" on="1"/>
        <pt x="134" y="-83" on="0"/>
        <pt x="74" y="16" on="0"/>
        <pt x="74" y="205" on="0"/>
        <pt x="95" y="291" on="1"/>
        <pt x="72" y="311" on="0"/>
      </contour>
    </TTGlyph>
    <TTGlyph name="braceright" xMin="0" yMin="-83" xMax="311" yMax="744">
      <contour>
        <pt x="311" y="340" on="1"/>
        <pt x="308" y="289" on="1"/>
        <pt x="274" y="289" on="0"/>
        <pt x="249" y="274" on="1"/>
        <pt x="251" y="236" on="0"/>
        <pt x="251" y="144" on="0"/>
        <pt x="241" y="53" on="0"/>
        <pt x="218" y="-33" on="0"/>
        <pt x="173" y="-83" on="0"/>
        <pt x="142" y="-83" on="1"/>
        <pt x="94" y="-83" on="0"/>
        <pt x="9" y="-51" on="1"/>
        <pt x="0" y="-42" on="0"/>
        <pt x="0" y="5" on="0"/>
        <pt x="6" y="11" on="1"/>
        <pt x="67" y="-5" on="0"/>
        <pt x="124" y="-9" on="1"/>
        <pt x="155" y="77" on="0"/>
        <pt x="171" y="221" on="1"/>
        <pt x="179" y="285" on="0"/>
        <pt x="230" y="318" on="1"/>
        <pt x="201" y="338" on="0"/>
        <pt x="179" y="385" on="0"/>
        <pt x="179" y="438" on="0"/>
        <pt x="189" y="586" on="0"/>
        <pt x="189" y="676" on="1"/>
        <pt x="118" y="669" on="0"/>
        <pt x="43" y="641" on="1"/>
        <pt x="32" y="659" on="1"/>
        <pt x="65" y="737" on="1"/>
        <pt x="100" y="744" on="0"/>
        <pt x="131" y="744" on="1"/>
        <pt x="213" y="744" on="0"/>
        <pt x="273" y="645" on="0"/>
        <pt x="273" y="456" on="0"/>
        <pt x="252" y="370" on="1"/>
        <pt x="275" y="350" on="0"/>
      </contour>
    </TTGlyph>
    <TTGlyph name="bracketleft" xMin="85" yMin="-87" xMax="347" yMax="750">
      <contour>
        <pt x="123" y="750" on="1"/>
        <pt x="257" y="750" on="0"/>
        <pt x="338" y="712" on="1"/>
        <pt x="347" y="703" on="0"/>
        <pt x="347" y="656" on="0"/>
        <pt x="341" y="650" on="1"/>
        <pt x="280" y="666" on="0"/>
        <pt x="223" y="670" on="1"/>
        <pt x="158" y="486" on="0"/>
        <pt x="158" y="58" on="1"/>
        <pt x="158" y="-15" on="1"/>
        <pt x="229" y="-8" on="0"/>
        <pt x="304" y="20" on="1"/>
        <pt x="315" y="2" on="1"/>
        <pt x="282" y="-76" on="1"/>
        <pt x="218" y="-87" on="0"/>
        <pt x="134" y="-87" on="1"/>
        <pt x="114" y="-70" on="1"/>
        <pt x="85" y="154" on="0"/>
        <pt x="85" y="355" on="1"/>
        <pt x="85" y="441" on="0"/>
        <pt x="106" y="675" on="0"/>
      </contour>
    </TTGlyph>
    <TTGlyph name="bracketright" xMin="0" yMin="-87" xMax="262" yMax="750">
      <contour>
        <pt x="224" y="-87" on="1"/>
        <pt x="90" y="-87" on="0"/>
        <pt x="9" y="-49" on="1"/>
        <pt x="0" y="-40" on="0"/>
        <pt x="0" y="7" on="0"/>
        <pt x="6" y="13" on="1"/>
        <pt x="67" y="-3" on="0"/>
        <pt x="124" y="-7" on="1"/>
        <pt x="189" y="177" on="0"/>
        <pt x="189" y="605" on="1"/>
        <pt x="189" y="678" on="1"/>
        <pt x="118" y="671" on="0"/>
        <pt x="43" y="643" on="1"/>
        <pt x="32" y="661" on="1"/>
        <pt x="65" y="739" on="1"/>
        <pt x="129" y="750" on="0"/>
        <pt x="213" y="750" on="1"/>
        <pt x="233" y="733" on="1"/>
        <pt x="262" y="509" on="0"/>
        <pt x="262" y="308" on="1"/>
        <pt x="262" y="222" on="0"/>
        <pt x="241" y="-12" on="0"/>
      </contour>
    </TTGlyph>
    <TTGlyph name="breve" xMin="51" yMin="548" xMax="302" yMax="691">
      <contour>
        <pt x="236" y="664" on="1"/>
        <pt x="288" y="691" on="1"/>
        <pt x="302" y="681" on="1"/>
        <pt x="302" y="627" on="0"/>
        <pt x="220" y="548" on="0"/>
        <pt x="111" y="548" on="0"/>
        <pt x="51" y="597" on="0"/>
        <pt x="51" y="646" on="1"/>
        <pt x="102" y="673" on="1"/>
        <pt x="117" y="663" on="1"/>
        <pt x="117" y="625" on="0"/>
        <pt x="146" y="611" on="1"/>
        <pt x="160" y="605" on="0"/>
        <pt x="190" y="605" on="0"/>
        <pt x="206" y="614" on="1"/>
        <pt x="236" y="630" on="0"/>
      </contour>
    </TTGlyph>
    <TTGlyph name="brokenbar" xMin="108" yMin="-114" xMax="236" yMax="750">
      <contour>
        <pt x="167" y="260" on="1"/>
        <pt x="184" y="260" on="0"/>
        <pt x="184" y="241" on="1"/>
        <pt x="184" y="233" on="0"/>
        <pt x="181" y="196" on="1"/>
        <pt x="173" y="99" on="0"/>
        <pt x="173" y="-95" on="1"/>
        <pt x="160" y="-114" on="0"/>
        <pt x="137" y="-114" on="1"/>
        <pt x="129" y="-114" on="0"/>
        <pt x="121" y="-89" on="0"/>
        <pt x="110" y="93" on="0"/>
        <pt x="108" y="241" on="1"/>
        <pt x="133" y="260" on="0"/>
      </contour>
      <contour>
        <pt x="197" y="427" on="1"/>
        <pt x="170" y="403" on="0"/>
        <pt x="129" y="403" on="1"/>
        <pt x="118" y="403" on="0"/>
        <pt x="110" y="424" on="0"/>
        <pt x="110" y="573" on="0"/>
        <pt x="126" y="735" on="1"/>
        <pt x="152" y="750" on="1"/>
        <pt x="236" y="695" on="1"/>
        <pt x="213" y="601" on="0"/>
      </contour>
    </TTGlyph>
    <TTGlyph name="bullet" xMin="39" yMin="169" xMax="233" yMax="378">
      <contour>
        <pt x="84" y="169" on="0"/>
        <pt x="39" y="223" on="0"/>
        <pt x="39" y="305" on="0"/>
        <pt x="115" y="368" on="0"/>
        <pt x="184" y="378" on="1"/>
        <pt x="233" y="338" on="0"/>
        <pt x="233" y="227" on="0"/>
        <pt x="165" y="169" on="0"/>
      </contour>
    </TTGlyph>
    <TTGlyph name="c" xMin="41" yMin="-22" xMax="379" yMax="498">
      <contour>
        <pt x="355" y="116" on="0"/>
        <pt x="236" y="-22" on="0"/>
        <pt x="110" y="-22" on="0"/>
        <pt x="41" y="68" on="0"/>
        <pt x="41" y="144" on="1"/>
        <pt x="41" y="230" on="0"/>
        <pt x="80" y="306" on="1"/>
        <pt x="102" y="349" on="0"/>
        <pt x="170" y="419" on="0"/>
        <pt x="283" y="480" on="0"/>
        <pt x="356" y="498" on="1"/>
        <pt x="378" y="479" on="1"/>
        <pt x="346" y="390" on="1"/>
        <pt x="313" y="403" on="0"/>
        <pt x="282" y="403" on="1"/>
        <pt x="211" y="403" on="0"/>
        <pt x="127" y="277" on="0"/>
        <pt x="127" y="195" on="1"/>
        <pt x="127" y="139" on="0"/>
        <pt x="173" y="77" on="0"/>
        <pt x="206" y="77" on="1"/>
        <pt x="281" y="77" on="0"/>
        <pt x="341" y="225" on="1"/>
        <pt x="342" y="231" on="0"/>
        <pt x="359" y="231" on="0"/>
        <pt x="379" y="217" on="1"/>
      </contour>
    </TTGlyph>
    <TTGlyph name="caron" xMin="50" yMin="532" xMax="325" yMax="717">
      <contour>
        <pt x="152" y="532" on="1"/>
        <pt x="115" y="620" on="0"/>
        <pt x="50" y="685" on="1"/>
        <pt x="60" y="701" on="1"/>
        <pt x="123" y="711" on="1"/>
        <pt x="153" y="678" on="0"/>
        <pt x="171" y="639" on="1"/>
        <pt x="224" y="688" on="0"/>
        <pt x="292" y="717" on="1"/>
        <pt x="300" y="716" on="0"/>
        <pt x="325" y="689" on="0"/>
        <pt x="325" y="679" on="1"/>
        <pt x="229" y="615" on="0"/>
        <pt x="176" y="532" on="1"/>
      </contour>
    </TTGlyph>
    <TTGlyph name="ccedilla" xMin="41" yMin="-225" xMax="379" yMax="498">
      <contour>
        <pt x="379" y="217" on="1"/>
        <pt x="355" y="118" on="0"/>
        <pt x="239" y="-19" on="0"/>
        <pt x="176" y="-22" on="1"/>
        <pt x="155" y="-63" on="1"/>
        <pt x="172" y="-57" on="0"/>
        <pt x="223" y="-57" on="0"/>
        <pt x="269" y="-92" on="0"/>
        <pt x="269" y="-163" on="0"/>
        <pt x="201" y="-225" on="0"/>
        <pt x="103" y="-225" on="0"/>
        <pt x="69" y="-206" on="1"/>
        <pt x="64" y="-191" on="1"/>
        <pt x="89" y="-143" on="1"/>
        <pt x="111" y="-183" on="0"/>
        <pt x="155" y="-183" on="1"/>
        <pt x="177" y="-183" on="0"/>
        <pt x="205" y="-154" on="0"/>
        <pt x="205" y="-120" on="0"/>
        <pt x="184" y="-99" on="0"/>
        <pt x="143" y="-99" on="0"/>
        <pt x="125" y="-108" on="1"/>
        <pt x="111" y="-89" on="1"/>
        <pt x="143" y="-19" on="1"/>
        <pt x="94" y="-9" on="0"/>
        <pt x="41" y="78" on="0"/>
        <pt x="41" y="185" on="0"/>
        <pt x="58" y="263" on="0"/>
        <pt x="102" y="349" on="0"/>
        <pt x="170" y="419" on="0"/>
        <pt x="283" y="480" on="0"/>
        <pt x="356" y="498" on="1"/>
        <pt x="378" y="479" on="1"/>
        <pt x="346" y="390" on="1"/>
        <pt x="313" y="403" on="0"/>
        <pt x="282" y="403" on="1"/>
        <pt x="211" y="403" on="0"/>
        <pt x="127" y="277" on="0"/>
        <pt x="127" y="195" on="1"/>
        <pt x="127" y="139" on="0"/>
        <pt x="173" y="77" on="0"/>
        <pt x="206" y="77" on="1"/>
        <pt x="281" y="77" on="0"/>
        <pt x="341" y="225" on="1"/>
        <pt x="342" y="231" on="0"/>
        <pt x="359" y="231" on="0"/>
      </contour>
    </TTGlyph>
    <TTGlyph name="cedilla" xMin="77" yMin="-225" xMax="282" yMax="0">
      <contour>
        <pt x="165" y="0" on="1"/>
        <pt x="201" y="0" on="1"/>
        <pt x="168" y="-63" on="1"/>
        <pt x="184" y="-57" on="0"/>
        <pt x="236" y="-57" on="0"/>
        <pt x="282" y="-92" on="0"/>
        <pt x="282" y="-163" on="0"/>
        <pt x="214" y="-225" on="0"/>
        <pt x="116" y="-225" on="0"/>
        <pt x="82" y="-206" on="1"/>
        <pt x="77" y="-191" on="1"/>
        <pt x="102" y="-143" on="1"/>
        <pt x="124" y="-183" on="0"/>
        <pt x="168" y="-183" on="1"/>
        <pt x="190" y="-183" on="0"/>
        <pt x="218" y="-154" on="0"/>
        <pt x="218" y="-120" on="0"/>
        <pt x="196" y="-99" on="0"/>
        <pt x="156" y="-99" on="0"/>
        <pt x="138" y="-108" on="1"/>
        <pt x="124" y="-89" on="1"/>
      </contour>
    </TTGlyph>
    <TTGlyph name="cent" xMin="97" yMin="-69" xMax="401" yMax="717">
      <contour>
        <pt x="391" y="546" on="1"/>
        <pt x="366" y="482" on="1"/>
        <pt x="343" y="486" on="0"/>
        <pt x="281" y="486" on="0"/>
        <pt x="220" y="457" on="0"/>
        <pt x="204" y="432" on="1"/>
        <pt x="173" y="385" on="0"/>
        <pt x="173" y="255" on="0"/>
        <pt x="215" y="177" on="0"/>
        <pt x="250" y="177" on="1"/>
        <pt x="319" y="177" on="0"/>
        <pt x="356" y="310" on="1"/>
        <pt x="360" y="321" on="0"/>
        <pt x="381" y="321" on="0"/>
        <pt x="401" y="307" on="1"/>
        <pt x="389" y="234" on="0"/>
        <pt x="323" y="135" on="0"/>
        <pt x="279" y="116" on="1"/>
        <pt x="272" y="17" on="0"/>
        <pt x="262" y="-66" on="1"/>
        <pt x="253" y="-69" on="0"/>
        <pt x="207" y="-69" on="0"/>
        <pt x="190" y="-61" on="1"/>
        <pt x="202" y="-6" on="0"/>
        <pt x="215" y="108" on="1"/>
        <pt x="160" y="116" on="0"/>
        <pt x="97" y="216" on="0"/>
        <pt x="97" y="294" on="1"/>
        <pt x="97" y="391" on="0"/>
        <pt x="166" y="468" on="1"/>
        <pt x="204" y="511" on="0"/>
        <pt x="262" y="537" on="1"/>
        <pt x="280" y="654" on="0"/>
        <pt x="287" y="717" on="1"/>
        <pt x="314" y="717" on="0"/>
        <pt x="321" y="703" on="1"/>
        <pt x="315" y="605" on="0"/>
        <pt x="310" y="555" on="1"/>
        <pt x="339" y="564" on="0"/>
        <pt x="375" y="570" on="1"/>
      </contour>
    </TTGlyph>
    <TTGlyph name="circumflex" xMin="50" yMin="522" xMax="325" yMax="707">
      <contour>
        <pt x="223" y="707" on="1"/>
        <pt x="260" y="619" on="0"/>
        <pt x="325" y="554" on="1"/>
        <pt x="315" y="538" on="1"/>
        <pt x="252" y="528" on="1"/>
        <pt x="223" y="558" on="0"/>
        <pt x="204" y="600" on="1"/>
        <pt x="149" y="548" on="0"/>
        <pt x="83" y="522" on="1"/>
        <pt x="75" y="523" on="0"/>
        <pt x="50" y="550" on="0"/>
        <pt x="50" y="560" on="1"/>
        <pt x="146" y="624" on="0"/>
        <pt x="199" y="707" on="1"/>
      </contour>
    </TTGlyph>
    <TTGlyph name="colon" xMin="39" yMin="-28" xMax="203" yMax="456">
      <contour>
        <pt x="71" y="-28" on="0"/>
        <pt x="39" y="10" on="0"/>
        <pt x="39" y="69" on="0"/>
        <pt x="93" y="114" on="0"/>
        <pt x="142" y="121" on="1"/>
        <pt x="177" y="94" on="0"/>
        <pt x="177" y="13" on="0"/>
        <pt x="129" y="-28" on="0"/>
      </contour>
      <contour>
        <pt x="171" y="456" on="0"/>
        <pt x="203" y="418" on="0"/>
        <pt x="203" y="359" on="0"/>
        <pt x="149" y="314" on="0"/>
        <pt x="100" y="307" on="1"/>
        <pt x="65" y="334" on="0"/>
        <pt x="65" y="415" on="0"/>
        <pt x="113" y="456" on="0"/>
      </contour>
    </TTGlyph>
    <TTGlyph name="comma" xMin="10" yMin="-138" xMax="178" yMax="129">
      <contour>
        <pt x="144" y="129" on="0"/>
        <pt x="178" y="87" on="0"/>
        <pt x="178" y="15" on="0"/>
        <pt x="149" y="-52" on="0"/>
        <pt x="108" y="-94" on="0"/>
        <pt x="85" y="-110" on="1"/>
        <pt x="43" y="-138" on="0"/>
        <pt x="26" y="-138" on="1"/>
        <pt x="22" y="-138" on="0"/>
        <pt x="10" y="-115" on="0"/>
        <pt x="10" y="-107" on="1"/>
        <pt x="81" y="-74" on="0"/>
        <pt x="86" y="-6" on="1"/>
        <pt x="43" y="56" on="1"/>
        <pt x="43" y="90" on="0"/>
        <pt x="86" y="129" on="0"/>
      </contour>
    </TTGlyph>
    <TTGlyph name="copyright" xMin="50" yMin="66" xMax="692" yMax="744">
      <contour>
        <pt x="498" y="619" on="1"/>
        <pt x="473" y="555" on="1"/>
        <pt x="450" y="559" on="0"/>
        <pt x="388" y="559" on="0"/>
        <pt x="327" y="530" on="0"/>
        <pt x="311" y="506" on="1"/>
        <pt x="280" y="458" on="0"/>
        <pt x="280" y="328" on="0"/>
        <pt x="322" y="250" on="0"/>
        <pt x="356" y="250" on="1"/>
        <pt x="426" y="250" on="0"/>
        <pt x="463" y="383" on="1"/>
        <pt x="467" y="394" on="0"/>
        <pt x="488" y="394" on="0"/>
        <pt x="508" y="380" on="1"/>
        <pt x="494" y="288" on="0"/>
        <pt x="398" y="180" on="0"/>
        <pt x="278" y="180" on="0"/>
        <pt x="204" y="283" on="0"/>
        <pt x="204" y="367" on="1"/>
        <pt x="204" y="455" on="0"/>
        <pt x="264" y="532" on="1"/>
        <pt x="295" y="572" on="0"/>
        <pt x="407" y="632" on="0"/>
        <pt x="482" y="643" on="1"/>
      </contour>
      <contour>
        <pt x="415" y="744" on="1"/>
        <pt x="536" y="744" on="0"/>
        <pt x="692" y="589" on="0"/>
        <pt x="692" y="279" on="0"/>
        <pt x="483" y="66" on="0"/>
        <pt x="326" y="66" on="1"/>
        <pt x="205" y="66" on="0"/>
        <pt x="50" y="220" on="0"/>
        <pt x="50" y="531" on="0"/>
        <pt x="258" y="744" on="0"/>
      </contour>
      <contour>
        <pt x="415" y="699" on="1"/>
        <pt x="284" y="699" on="0"/>
        <pt x="110" y="512" on="0"/>
        <pt x="110" y="243" on="0"/>
        <pt x="231" y="111" on="0"/>
        <pt x="326" y="111" on="1"/>
        <pt x="457" y="111" on="0"/>
        <pt x="632" y="298" on="0"/>
        <pt x="632" y="567" on="0"/>
        <pt x="509" y="699" on="0"/>
      </contour>
    </TTGlyph>
    <TTGlyph name="currency" xMin="30" yMin="89" xMax="473" yMax="567">
      <contour>
        <pt x="276" y="502" on="1"/>
        <pt x="304" y="502" on="0"/>
        <pt x="328" y="493" on="1"/>
        <pt x="368" y="541" on="0"/>
        <pt x="401" y="567" on="1"/>
        <pt x="452" y="543" on="1"/>
        <pt x="473" y="511" on="1"/>
        <pt x="436" y="480" on="0"/>
        <pt x="397" y="440" on="1"/>
        <pt x="420" y="401" on="0"/>
        <pt x="420" y="280" on="0"/>
        <pt x="381" y="226" on="1"/>
        <pt x="430" y="177" on="0"/>
        <pt x="471" y="143" on="1"/>
        <pt x="472" y="142" on="0"/>
        <pt x="472" y="135" on="0"/>
        <pt x="443" y="111" on="0"/>
        <pt x="429" y="106" on="1"/>
        <pt x="369" y="153" on="0"/>
        <pt x="335" y="183" on="1"/>
        <pt x="291" y="154" on="0"/>
        <pt x="196" y="154" on="0"/>
        <pt x="164" y="169" on="1"/>
        <pt x="120" y="117" on="0"/>
        <pt x="101" y="91" on="1"/>
        <pt x="99" y="89" on="0"/>
        <pt x="93" y="90" on="0"/>
        <pt x="66" y="118" on="0"/>
        <pt x="61" y="131" on="1"/>
        <pt x="69" y="143" on="0"/>
        <pt x="117" y="210" on="1"/>
        <pt x="91" y="247" on="0"/>
        <pt x="91" y="352" on="0"/>
        <pt x="104" y="385" on="1"/>
        <pt x="62" y="421" on="0"/>
        <pt x="30" y="462" on="1"/>
        <pt x="57" y="512" on="1"/>
        <pt x="88" y="531" on="1"/>
        <pt x="115" y="496" on="0"/>
        <pt x="153" y="458" on="1"/>
        <pt x="203" y="502" on="0"/>
      </contour>
      <contour>
        <pt x="370" y="384" on="0"/>
        <pt x="315" y="429" on="0"/>
        <pt x="215" y="429" on="0"/>
        <pt x="140" y="365" on="0"/>
        <pt x="140" y="272" on="0"/>
        <pt x="194" y="227" on="0"/>
        <pt x="292" y="227" on="0"/>
        <pt x="370" y="292" on="0"/>
      </contour>
    </TTGlyph>
    <TTGlyph name="d" xMin="24" yMin="-31" xMax="420" yMax="712">
      <contour>
        <pt x="309" y="674" on="1"/>
        <pt x="389" y="712" on="1"/>
        <pt x="414" y="696" on="1"/>
        <pt x="375" y="564" on="0"/>
        <pt x="375" y="183" on="0"/>
        <pt x="420" y="-26" on="1"/>
        <pt x="420" y="-31" on="0"/>
        <pt x="412" y="-31" on="1"/>
        <pt x="386" y="-31" on="0"/>
        <pt x="371" y="-14" on="1"/>
        <pt x="347" y="79" on="0"/>
        <pt x="325" y="217" on="1"/>
        <pt x="284" y="112" on="0"/>
        <pt x="164" y="-22" on="0"/>
        <pt x="110" y="-22" on="1"/>
        <pt x="67" y="-22" on="0"/>
        <pt x="24" y="39" on="0"/>
        <pt x="24" y="155" on="0"/>
        <pt x="75" y="289" on="0"/>
        <pt x="205" y="430" on="0"/>
        <pt x="300" y="472" on="1"/>
        <pt x="299" y="495" on="0"/>
        <pt x="299" y="606" on="0"/>
      </contour>
      <contour>
        <pt x="313" y="304" on="1"/>
        <pt x="305" y="380" on="0"/>
        <pt x="303" y="418" on="1"/>
        <pt x="240" y="390" on="0"/>
        <pt x="196" y="344" on="1"/>
        <pt x="118" y="261" on="0"/>
        <pt x="118" y="172" on="1"/>
        <pt x="118" y="98" on="0"/>
        <pt x="168" y="98" on="1"/>
        <pt x="201" y="98" on="0"/>
        <pt x="282" y="206" on="0"/>
      </contour>
    </TTGlyph>
    <TTGlyph name="dagger" xMin="-18" yMin="-114" xMax="344" yMax="750">
      <contour>
        <pt x="344" y="532" on="1"/>
        <pt x="314" y="463" on="1"/>
        <pt x="256" y="452" on="0"/>
        <pt x="95" y="452" on="0"/>
        <pt x="9" y="468" on="1"/>
        <pt x="0" y="471" on="0"/>
        <pt x="-17" y="506" on="0"/>
        <pt x="-18" y="516" on="1"/>
        <pt x="-13" y="522" on="1"/>
        <pt x="55" y="514" on="0"/>
        <pt x="246" y="514" on="0"/>
        <pt x="335" y="549" on="1"/>
      </contour>
      <contour>
        <pt x="120" y="-74" on="0"/>
        <pt x="108" y="146" on="0"/>
        <pt x="108" y="552" on="0"/>
        <pt x="126" y="735" on="1"/>
        <pt x="152" y="750" on="1"/>
        <pt x="236" y="695" on="1"/>
        <pt x="208" y="580" on="0"/>
        <pt x="173" y="112" on="0"/>
        <pt x="173" y="-94" on="1"/>
        <pt x="160" y="-114" on="0"/>
        <pt x="137" y="-114" on="1"/>
        <pt x="127" y="-114" on="0"/>
      </contour>
    </TTGlyph>
    <TTGlyph name="daggerdbl" xMin="-33" yMin="-114" xMax="344" yMax="750">
      <contour>
        <pt x="329" y="144" on="1"/>
        <pt x="299" y="75" on="1"/>
        <pt x="241" y="64" on="0"/>
        <pt x="80" y="64" on="0"/>
        <pt x="-6" y="80" on="1"/>
        <pt x="-15" y="83" on="0"/>
        <pt x="-32" y="118" on="0"/>
        <pt x="-33" y="128" on="1"/>
        <pt x="-28" y="134" on="1"/>
        <pt x="40" y="126" on="0"/>
        <pt x="231" y="126" on="0"/>
        <pt x="320" y="161" on="1"/>
      </contour>
      <contour>
        <pt x="344" y="532" on="1"/>
        <pt x="314" y="463" on="1"/>
        <pt x="256" y="452" on="0"/>
        <pt x="95" y="452" on="0"/>
        <pt x="9" y="468" on="1"/>
        <pt x="0" y="471" on="0"/>
        <pt x="-17" y="506" on="0"/>
        <pt x="-18" y="516" on="1"/>
        <pt x="-13" y="522" on="1"/>
        <pt x="55" y="514" on="0"/>
        <pt x="246" y="514" on="0"/>
        <pt x="335" y="549" on="1"/>
      </contour>
      <contour>
        <pt x="120" y="-74" on="0"/>
        <pt x="108" y="146" on="0"/>
        <pt x="108" y="552" on="0"/>
        <pt x="126" y="735" on="1"/>
        <pt x="152" y="750" on="1"/>
        <pt x="236" y="695" on="1"/>
        <pt x="208" y="580" on="0"/>
        <pt x="173" y="112" on="0"/>
        <pt x="173" y="-94" on="1"/>
        <pt x="160" y="-114" on="0"/>
        <pt x="137" y="-114" on="1"/>
        <pt x="127" y="-114" on="0"/>
      </contour>
    </TTGlyph>
    <TTGlyph name="degree" xMin="30" yMin="447" xMax="273" yMax="705">
      <contour>
        <pt x="30" y="624" on="0"/>
        <pt x="107" y="705" on="0"/>
        <pt x="213" y="705" on="0"/>
        <pt x="273" y="647" on="0"/>
        <pt x="273" y="528" on="0"/>
        <pt x="194" y="447" on="0"/>
        <pt x="89" y="447" on="0"/>
        <pt x="30" y="505" on="0"/>
      </contour>
      <contour>
        <pt x="225" y="585" on="1"/>
        <pt x="225" y="638" on="0"/>
        <pt x="158" y="638" on="1"/>
        <pt x="125" y="638" on="0"/>
        <pt x="77" y="598" on="0"/>
        <pt x="77" y="541" on="0"/>
        <pt x="112" y="514" on="0"/>
        <pt x="175" y="514" on="0"/>
        <pt x="225" y="554" on="0"/>
      </contour>
    </TTGlyph>
    <TTGlyph name="dieresis" xMin="50" yMin="549" xMax="351" yMax="674">
      <contour>
        <pt x="50" y="602" on="1"/>
        <pt x="50" y="662" on="0"/>
        <pt x="135" y="674" on="1"/>
        <pt x="164" y="651" on="0"/>
        <pt x="164" y="584" on="0"/>
        <pt x="124" y="549" on="0"/>
        <pt x="76" y="549" on="0"/>
        <pt x="50" y="582" on="0"/>
      </contour>
      <contour>
        <pt x="237" y="602" on="1"/>
        <pt x="237" y="662" on="0"/>
        <pt x="322" y="674" on="1"/>
        <pt x="351" y="651" on="0"/>
        <pt x="351" y="584" on="0"/>
        <pt x="311" y="549" on="0"/>
        <pt x="263" y="549" on="0"/>
        <pt x="237" y="582" on="0"/>
      </contour>
    </TTGlyph>
    <TTGlyph name="divide" xMin="46" yMin="86" xMax="458" yMax="570">
      <contour>
        <pt x="440" y="384" on="1"/>
        <pt x="458" y="329" on="1"/>
        <pt x="449" y="291" on="1"/>
        <pt x="383" y="299" on="0"/>
        <pt x="334" y="299" on="1"/>
        <pt x="212" y="299" on="0"/>
        <pt x="54" y="265" on="1"/>
        <pt x="46" y="265" on="0"/>
        <pt x="46" y="316" on="0"/>
        <pt x="48" y="323" on="1"/>
        <pt x="263" y="385" on="0"/>
        <pt x="397" y="385" on="1"/>
        <pt x="426" y="385" on="0"/>
      </contour>
      <contour>
        <pt x="189" y="86" on="0"/>
        <pt x="157" y="124" on="0"/>
        <pt x="157" y="183" on="0"/>
        <pt x="211" y="228" on="0"/>
        <pt x="260" y="235" on="1"/>
        <pt x="295" y="208" on="0"/>
        <pt x="295" y="127" on="0"/>
        <pt x="247" y="86" on="0"/>
      </contour>
      <contour>
        <pt x="289" y="570" on="0"/>
        <pt x="321" y="532" on="0"/>
        <pt x="321" y="473" on="0"/>
        <pt x="267" y="428" on="0"/>
        <pt x="218" y="421" on="1"/>
        <pt x="183" y="448" on="0"/>
        <pt x="183" y="529" on="0"/>
        <pt x="231" y="570" on="0"/>
      </contour>
    </TTGlyph>
    <TTGlyph name="dollar" xMin="38" yMin="-121" xMax="446" yMax="750">
      <contour>
        <pt x="446" y="638" on="1"/>
        <pt x="413" y="552" on="1"/>
        <pt x="367" y="576" on="0"/>
        <pt x="307" y="578" on="1"/>
        <pt x="298" y="463" on="0"/>
        <pt x="283" y="355" on="1"/>
        <pt x="367" y="290" on="0"/>
        <pt x="394" y="258" on="1"/>
        <pt x="437" y="207" on="0"/>
        <pt x="437" y="155" on="1"/>
        <pt x="437" y="101" on="0"/>
        <pt x="394" y="48" on="1"/>
        <pt x="371" y="19" on="0"/>
        <pt x="275" y="-21" on="0"/>
        <pt x="209" y="-26" on="1"/>
        <pt x="203" y="-49" on="0"/>
        <pt x="183" y="-121" on="1"/>
        <pt x="139" y="-121" on="0"/>
        <pt x="113" y="-102" on="1"/>
        <pt x="132" y="-48" on="0"/>
        <pt x="138" y="-27" on="1"/>
        <pt x="99" y="-25" on="0"/>
        <pt x="49" y="-11" on="1"/>
        <pt x="38" y="6" on="0"/>
        <pt x="38" y="32" on="0"/>
        <pt x="41" y="32" on="0"/>
        <pt x="54" y="28" on="1"/>
        <pt x="95" y="17" on="0"/>
        <pt x="136" y="17" on="1"/>
        <pt x="152" y="17" on="1"/>
        <pt x="183" y="127" on="0"/>
        <pt x="215" y="286" on="1"/>
        <pt x="168" y="324" on="0"/>
        <pt x="128" y="358" on="0"/>
        <pt x="81" y="427" on="0"/>
        <pt x="81" y="503" on="0"/>
        <pt x="162" y="595" on="0"/>
        <pt x="270" y="630" on="1"/>
        <pt x="284" y="750" on="1"/>
        <pt x="311" y="750" on="0"/>
        <pt x="318" y="734" on="1"/>
        <pt x="312" y="641" on="1"/>
        <pt x="367" y="656" on="0"/>
        <pt x="429" y="664" on="1"/>
      </contour>
      <contour>
        <pt x="234" y="395" on="1"/>
        <pt x="252" y="493" on="0"/>
        <pt x="263" y="575" on="1"/>
        <pt x="177" y="560" on="0"/>
        <pt x="177" y="491" on="1"/>
        <pt x="177" y="447" on="0"/>
      </contour>
      <contour>
        <pt x="266" y="242" on="1"/>
        <pt x="244" y="119" on="0"/>
        <pt x="222" y="28" on="1"/>
        <pt x="270" y="42" on="0"/>
        <pt x="325" y="100" on="0"/>
        <pt x="325" y="186" on="0"/>
      </contour>
    </TTGlyph>
    <TTGlyph name="dotaccent" xMin="50" yMin="535" xMax="188" yMax="686">
      <contour>
        <pt x="82" y="535" on="0"/>
        <pt x="50" y="575" on="0"/>
        <pt x="50" y="634" on="0"/>
        <pt x="104" y="679" on="0"/>
        <pt x="153" y="686" on="1"/>
        <pt x="188" y="658" on="0"/>
        <pt x="188" y="578" on="0"/>
        <pt x="140" y="535" on="0"/>
      </contour>
    </TTGlyph>
    <TTGlyph name="dotlessi" xMin="70" yMin="-13" xMax="177" yMax="485">
      <contour>
        <pt x="175" y="446" on="1"/>
        <pt x="177" y="402" on="0"/>
        <pt x="177" y="380" on="1"/>
        <pt x="177" y="212" on="0"/>
        <pt x="116" y="1" on="1"/>
        <pt x="102" y="-13" on="0"/>
        <pt x="71" y="-13" on="0"/>
        <pt x="71" y="-10" on="1"/>
        <pt x="71" y="-9" on="1"/>
        <pt x="96" y="141" on="0"/>
        <pt x="96" y="369" on="0"/>
        <pt x="70" y="470" on="1"/>
        <pt x="94" y="485" on="1"/>
      </contour>
    </TTGlyph>
    <TTGlyph name="e" xMin="41" yMin="-22" xMax="402" yMax="477">
      <contour>
        <pt x="381" y="368" on="1"/>
        <pt x="370" y="322" on="0"/>
        <pt x="304" y="248" on="0"/>
        <pt x="262" y="226" on="1"/>
        <pt x="185" y="186" on="0"/>
        <pt x="127" y="175" on="1"/>
        <pt x="131" y="125" on="0"/>
        <pt x="175" y="77" on="0"/>
        <pt x="206" y="77" on="1"/>
        <pt x="294" y="77" on="0"/>
        <pt x="365" y="225" on="1"/>
        <pt x="366" y="231" on="0"/>
        <pt x="384" y="231" on="0"/>
        <pt x="402" y="217" on="1"/>
        <pt x="359" y="113" on="0"/>
        <pt x="234" y="-22" on="0"/>
        <pt x="110" y="-22" on="0"/>
        <pt x="41" y="68" on="0"/>
        <pt x="41" y="144" on="1"/>
        <pt x="41" y="249" on="0"/>
        <pt x="98" y="338" on="1"/>
        <pt x="129" y="386" on="0"/>
        <pt x="242" y="459" on="0"/>
        <pt x="320" y="477" on="1"/>
        <pt x="381" y="456" on="0"/>
      </contour>
      <contour>
        <pt x="264" y="398" on="1"/>
        <pt x="222" y="398" on="0"/>
        <pt x="132" y="301" on="0"/>
        <pt x="127" y="215" on="1"/>
        <pt x="210" y="237" on="0"/>
        <pt x="299" y="322" on="0"/>
        <pt x="299" y="363" on="1"/>
        <pt x="299" y="378" on="0"/>
        <pt x="281" y="398" on="0"/>
      </contour>
    </TTGlyph>
    <TTGlyph name="eacute" xMin="41" yMin="-22" xMax="402" yMax="717">
      <component glyphName="e" x="0" y="0" flags="0x1004"/>
      <component glyphName="acute" x="90" y="0" flags="0x1004"/>
    </TTGlyph>
    <TTGlyph name="ecircumflex" xMin="41" yMin="-22" xMax="404" yMax="707">
      <contour>
        <pt x="381" y="368" on="1"/>
        <pt x="370" y="322" on="0"/>
        <pt x="304" y="248" on="0"/>
        <pt x="262" y="226" on="1"/>
        <pt x="185" y="186" on="0"/>
        <pt x="127" y="175" on="1"/>
        <pt x="131" y="125" on="0"/>
        <pt x="175" y="77" on="0"/>
        <pt x="206" y="77" on="1"/>
        <pt x="294" y="77" on="0"/>
        <pt x="365" y="225" on="1"/>
        <pt x="366" y="231" on="0"/>
        <pt x="384" y="231" on="0"/>
        <pt x="402" y="217" on="1"/>
        <pt x="359" y="113" on="0"/>
        <pt x="234" y="-22" on="0"/>
        <pt x="110" y="-22" on="0"/>
        <pt x="41" y="68" on="0"/>
        <pt x="41" y="144" on="1"/>
        <pt x="41" y="249" on="0"/>
        <pt x="98" y="338" on="1"/>
        <pt x="129" y="386" on="0"/>
        <pt x="242" y="459" on="0"/>
        <pt x="320" y="477" on="1"/>
        <pt x="381" y="456" on="0"/>
      </contour>
      <contour>
        <pt x="264" y="398" on="1"/>
        <pt x="222" y="398" on="0"/>
        <pt x="132" y="301" on="0"/>
        <pt x="127" y="215" on="1"/>
        <pt x="210" y="237" on="0"/>
        <pt x="299" y="322" on="0"/>
        <pt x="299" y="363" on="1"/>
        <pt x="299" y="378" on="0"/>
        <pt x="281" y="398" on="0"/>
      </contour>
      <contour>
        <pt x="302" y="707" on="1"/>
        <pt x="339" y="619" on="0"/>
        <pt x="404" y="554" on="1"/>
        <pt x="394" y="538" on="1"/>
        <pt x="331" y="528" on="1"/>
        <pt x="302" y="558" on="0"/>
        <pt x="283" y="600" on="1"/>
        <pt x="228" y="548" on="0"/>
        <pt x="162" y="522" on="1"/>
        <pt x="154" y="523" on="0"/>
        <pt x="129" y="550" on="0"/>
        <pt x="129" y="560" on="1"/>
        <pt x="225" y="624" on="0"/>
        <pt x="278" y="707" on="1"/>
      </contour>
    </TTGlyph>
    <TTGlyph name="edieresis" xMin="41" yMin="-22" xMax="417" yMax="674">
      <contour>
        <pt x="381" y="368" on="1"/>
        <pt x="370" y="322" on="0"/>
        <pt x="304" y="248" on="0"/>
        <pt x="262" y="226" on="1"/>
        <pt x="185" y="186" on="0"/>
        <pt x="127" y="175" on="1"/>
        <pt x="131" y="125" on="0"/>
        <pt x="175" y="77" on="0"/>
        <pt x="206" y="77" on="1"/>
        <pt x="294" y="77" on="0"/>
        <pt x="365" y="225" on="1"/>
        <pt x="366" y="231" on="0"/>
        <pt x="384" y="231" on="0"/>
        <pt x="402" y="217" on="1"/>
        <pt x="359" y="113" on="0"/>
        <pt x="234" y="-22" on="0"/>
        <pt x="110" y="-22" on="0"/>
        <pt x="41" y="68" on="0"/>
        <pt x="41" y="144" on="1"/>
        <pt x="41" y="249" on="0"/>
        <pt x="98" y="338" on="1"/>
        <pt x="129" y="386" on="0"/>
        <pt x="242" y="459" on="0"/>
        <pt x="320" y="477" on="1"/>
        <pt x="381" y="456" on="0"/>
      </contour>
      <contour>
        <pt x="264" y="398" on="1"/>
        <pt x="222" y="398" on="0"/>
        <pt x="132" y="301" on="0"/>
        <pt x="127" y="215" on="1"/>
        <pt x="210" y="237" on="0"/>
        <pt x="299" y="322" on="0"/>
        <pt x="299" y="363" on="1"/>
        <pt x="299" y="378" on="0"/>
        <pt x="281" y="398" on="0"/>
      </contour>
      <contour>
        <pt x="116" y="602" on="1"/>
        <pt x="116" y="662" on="0"/>
        <pt x="201" y="674" on="1"/>
        <pt x="230" y="651" on="0"/>
        <pt x="230" y="584" on="0"/>
        <pt x="190" y="549" on="0"/>
        <pt x="142" y="549" on="0"/>
        <pt x="116" y="582" on="0"/>
      </contour>
      <contour>
        <pt x="303" y="602" on="1"/>
        <pt x="303" y="662" on="0"/>
        <pt x="388" y="674" on="1"/>
        <pt x="417" y="651" on="0"/>
        <pt x="417" y="584" on="0"/>
        <pt x="377" y="549" on="0"/>
        <pt x="329" y="549" on="0"/>
        <pt x="303" y="582" on="0"/>
      </contour>
    </TTGlyph>
    <TTGlyph name="egrave" xMin="41" yMin="-22" xMax="402" yMax="717">
      <contour>
        <pt x="381" y="368" on="1"/>
        <pt x="370" y="322" on="0"/>
        <pt x="304" y="248" on="0"/>
        <pt x="262" y="226" on="1"/>
        <pt x="185" y="186" on="0"/>
        <pt x="127" y="175" on="1"/>
        <pt x="131" y="125" on="0"/>
        <pt x="175" y="77" on="0"/>
        <pt x="206" y="77" on="1"/>
        <pt x="294" y="77" on="0"/>
        <pt x="365" y="225" on="1"/>
        <pt x="366" y="231" on="0"/>
        <pt x="384" y="231" on="0"/>
        <pt x="402" y="217" on="1"/>
        <pt x="359" y="113" on="0"/>
        <pt x="234" y="-22" on="0"/>
        <pt x="110" y="-22" on="0"/>
        <pt x="41" y="68" on="0"/>
        <pt x="41" y="144" on="1"/>
        <pt x="41" y="249" on="0"/>
        <pt x="98" y="338" on="1"/>
        <pt x="129" y="386" on="0"/>
        <pt x="242" y="459" on="0"/>
        <pt x="320" y="477" on="1"/>
        <pt x="381" y="456" on="0"/>
      </contour>
      <contour>
        <pt x="264" y="398" on="1"/>
        <pt x="222" y="398" on="0"/>
        <pt x="132" y="301" on="0"/>
        <pt x="127" y="215" on="1"/>
        <pt x="210" y="237" on="0"/>
        <pt x="299" y="322" on="0"/>
        <pt x="299" y="363" on="1"/>
        <pt x="299" y="378" on="0"/>
        <pt x="281" y="398" on="0"/>
      </contour>
      <contour>
        <pt x="162" y="620" on="1"/>
        <pt x="174" y="707" on="1"/>
        <pt x="190" y="717" on="1"/>
        <pt x="267" y="612" on="0"/>
        <pt x="381" y="560" on="1"/>
        <pt x="381" y="550" on="0"/>
        <pt x="356" y="523" on="0"/>
        <pt x="348" y="522" on="1"/>
        <pt x="289" y="540" on="0"/>
        <pt x="205" y="583" on="0"/>
      </contour>
    </TTGlyph>
    <TTGlyph name="eight" xMin="54" yMin="-38" xMax="500" yMax="671">
      <contour>
        <pt x="367" y="315" on="1"/>
        <pt x="434" y="286" on="0"/>
        <pt x="500" y="189" on="0"/>
        <pt x="500" y="134" on="1"/>
        <pt x="500" y="61" on="0"/>
        <pt x="379" y="-38" on="0"/>
        <pt x="178" y="-38" on="0"/>
        <pt x="54" y="65" on="0"/>
        <pt x="54" y="191" on="0"/>
        <pt x="121" y="289" on="0"/>
        <pt x="187" y="318" on="1"/>
        <pt x="65" y="372" on="0"/>
        <pt x="65" y="496" on="1"/>
        <pt x="65" y="570" on="0"/>
        <pt x="180" y="671" on="0"/>
        <pt x="370" y="671" on="0"/>
        <pt x="489" y="566" on="0"/>
        <pt x="489" y="496" on="1"/>
        <pt x="489" y="367" on="0"/>
      </contour>
      <contour>
        <pt x="222" y="275" on="0"/>
        <pt x="151" y="186" on="0"/>
        <pt x="151" y="82" on="0"/>
        <pt x="228" y="17" on="0"/>
        <pt x="331" y="17" on="0"/>
        <pt x="404" y="77" on="0"/>
        <pt x="404" y="182" on="0"/>
        <pt x="342" y="266" on="0"/>
        <pt x="279" y="290" on="1"/>
      </contour>
      <contour>
        <pt x="331" y="358" on="0"/>
        <pt x="397" y="446" on="0"/>
        <pt x="397" y="550" on="0"/>
        <pt x="322" y="616" on="0"/>
        <pt x="225" y="616" on="0"/>
        <pt x="156" y="556" on="0"/>
        <pt x="156" y="501" on="1"/>
        <pt x="156" y="388" on="0"/>
        <pt x="275" y="343" on="1"/>
      </contour>
    </TTGlyph>
    <TTGlyph name="ellipsis" xMin="39" yMin="-28" xMax="601" yMax="121">
      <contour>
        <pt x="71" y="-28" on="0"/>
        <pt x="39" y="10" on="0"/>
        <pt x="39" y="69" on="0"/>
        <pt x="93" y="114" on="0"/>
        <pt x="142" y="121" on="1"/>
        <pt x="177" y="94" on="0"/>
        <pt x="177" y="13" on="0"/>
        <pt x="129" y="-28" on="0"/>
      </contour>
      <contour>
        <pt x="283" y="-28" on="0"/>
        <pt x="251" y="10" on="0"/>
        <pt x="251" y="69" on="0"/>
        <pt x="305" y="114" on="0"/>
        <pt x="354" y="121" on="1"/>
        <pt x="389" y="94" on="0"/>
        <pt x="389" y="13" on="0"/>
        <pt x="341" y="-28" on="0"/>
      </contour>
      <contour>
        <pt x="495" y="-28" on="0"/>
        <pt x="463" y="10" on="0"/>
        <pt x="463" y="69" on="0"/>
        <pt x="517" y="114" on="0"/>
        <pt x="566" y="121" on="1"/>
        <pt x="601" y="94" on="0"/>
        <pt x="601" y="13" on="0"/>
        <pt x="553" y="-28" on="0"/>
      </contour>
    </TTGlyph>
    <TTGlyph name="emdash" xMin="0" yMin="214" xMax="761" yMax="327">
      <contour>
        <pt x="748" y="232" on="1"/>
        <pt x="588" y="214" on="0"/>
        <pt x="269" y="214" on="0"/>
        <pt x="174" y="220" on="1"/>
        <pt x="0" y="230" on="0"/>
        <pt x="0" y="243" on="1"/>
        <pt x="0" y="266" on="0"/>
        <pt x="18" y="279" on="1"/>
        <pt x="473" y="279" on="0"/>
        <pt x="721" y="327" on="1"/>
        <pt x="761" y="258" on="1"/>
      </contour>
    </TTGlyph>
    <TTGlyph name="endash" xMin="0" yMin="214" xMax="588" yMax="327">
      <contour>
        <pt x="578" y="232" on="1"/>
        <pt x="454" y="214" on="0"/>
        <pt x="208" y="214" on="0"/>
        <pt x="134" y="220" on="1"/>
        <pt x="0" y="230" on="0"/>
        <pt x="0" y="243" on="1"/>
        <pt x="0" y="266" on="0"/>
        <pt x="18" y="279" on="1"/>
        <pt x="368" y="279" on="0"/>
        <pt x="557" y="327" on="1"/>
        <pt x="588" y="258" on="1"/>
      </contour>
    </TTGlyph>
    <TTGlyph name="equal" xMin="46" yMin="190" xMax="463" yMax="466">
      <contour>
        <pt x="449" y="283" on="1"/>
        <pt x="463" y="227" on="1"/>
        <pt x="451" y="190" on="1"/>
        <pt x="361" y="208" on="0"/>
        <pt x="160" y="208" on="0"/>
        <pt x="54" y="194" on="1"/>
        <pt x="49" y="194" on="0"/>
        <pt x="49" y="242" on="0"/>
        <pt x="53" y="251" on="1"/>
        <pt x="233" y="290" on="0"/>
        <pt x="340" y="290" on="1"/>
        <pt x="394" y="290" on="0"/>
      </contour>
      <contour>
        <pt x="440" y="464" on="1"/>
        <pt x="458" y="410" on="1"/>
        <pt x="449" y="372" on="1"/>
        <pt x="377" y="379" on="0"/>
        <pt x="334" y="379" on="1"/>
        <pt x="208" y="379" on="0"/>
        <pt x="53" y="346" on="1"/>
        <pt x="46" y="346" on="0"/>
        <pt x="46" y="396" on="0"/>
        <pt x="48" y="404" on="1"/>
        <pt x="268" y="466" on="0"/>
        <pt x="397" y="466" on="1"/>
        <pt x="426" y="466" on="0"/>
      </contour>
    </TTGlyph>
    <TTGlyph name="eth" xMin="42" yMin="-33" xMax="458" yMax="704">
      <contour>
        <pt x="458" y="578" on="1"/>
        <pt x="413" y="553" on="0"/>
        <pt x="371" y="534" on="1"/>
        <pt x="434" y="414" on="0"/>
        <pt x="434" y="247" on="1"/>
        <pt x="434" y="123" on="0"/>
        <pt x="322" y="-33" on="0"/>
        <pt x="218" y="-33" on="1"/>
        <pt x="143" y="-33" on="0"/>
        <pt x="42" y="73" on="0"/>
        <pt x="42" y="167" on="1"/>
        <pt x="42" y="380" on="0"/>
        <pt x="343" y="436" on="1"/>
        <pt x="332" y="481" on="0"/>
        <pt x="315" y="514" on="1"/>
        <pt x="278" y="502" on="0"/>
        <pt x="198" y="486" on="1"/>
        <pt x="190" y="489" on="0"/>
        <pt x="177" y="511" on="0"/>
        <pt x="177" y="522" on="1"/>
        <pt x="220" y="535" on="0"/>
        <pt x="285" y="561" on="1"/>
        <pt x="240" y="612" on="0"/>
        <pt x="168" y="612" on="1"/>
        <pt x="137" y="612" on="0"/>
        <pt x="93" y="601" on="1"/>
        <pt x="74" y="686" on="1"/>
        <pt x="98" y="704" on="1"/>
        <pt x="251" y="697" on="0"/>
        <pt x="337" y="586" on="1"/>
        <pt x="384" y="612" on="0"/>
        <pt x="436" y="658" on="0"/>
        <pt x="440" y="661" on="1"/>
        <pt x="458" y="651" on="1"/>
      </contour>
      <contour>
        <pt x="229" y="58" on="1"/>
        <pt x="298" y="58" on="0"/>
        <pt x="373" y="162" on="0"/>
        <pt x="373" y="319" on="0"/>
        <pt x="328" y="374" on="1"/>
        <pt x="242" y="359" on="0"/>
        <pt x="133" y="259" on="0"/>
        <pt x="133" y="130" on="0"/>
        <pt x="184" y="58" on="0"/>
      </contour>
    </TTGlyph>
    <TTGlyph name="exclam" xMin="60" yMin="-28" xMax="257" yMax="707">
      <contour>
        <pt x="101" y="224" on="1"/>
        <pt x="101" y="503" on="0"/>
        <pt x="149" y="694" on="1"/>
        <pt x="176" y="707" on="1"/>
        <pt x="257" y="659" on="1"/>
        <pt x="223" y="590" on="0"/>
        <pt x="162" y="314" on="0"/>
        <pt x="153" y="194" on="1"/>
        <pt x="138" y="182" on="0"/>
        <pt x="116" y="182" on="1"/>
        <pt x="101" y="182" on="0"/>
      </contour>
      <contour>
        <pt x="114" y="114" on="0"/>
        <pt x="60" y="69" on="0"/>
        <pt x="60" y="10" on="0"/>
        <pt x="92" y="-28" on="0"/>
        <pt x="150" y="-28" on="0"/>
        <pt x="198" y="13" on="0"/>
        <pt x="198" y="94" on="0"/>
        <pt x="163" y="121" on="1"/>
      </contour>
    </TTGlyph>
    <TTGlyph name="exclamdown" xMin="-5" yMin="-235" xMax="192" yMax="500">
      <contour>
        <pt x="151" y="248" on="1"/>
        <pt x="151" y="-31" on="0"/>
        <pt x="103" y="-222" on="1"/>
        <pt x="76" y="-235" on="1"/>
        <pt x="-5" y="-187" on="1"/>
        <pt x="29" y="-118" on="0"/>
        <pt x="90" y="158" on="0"/>
        <pt x="99" y="278" on="1"/>
        <pt x="114" y="290" on="0"/>
        <pt x="136" y="290" on="1"/>
        <pt x="151" y="290" on="0"/>
      </contour>
      <contour>
        <pt x="160" y="500" on="0"/>
        <pt x="192" y="462" on="0"/>
        <pt x="192" y="403" on="0"/>
        <pt x="138" y="358" on="0"/>
        <pt x="89" y="351" on="1"/>
        <pt x="54" y="378" on="0"/>
        <pt x="54" y="459" on="0"/>
        <pt x="102" y="500" on="0"/>
      </contour>
    </TTGlyph>
    <TTGlyph name="f" xMin="11" yMin="-110" xMax="338" yMax="712">
      <contour>
        <pt x="308" y="442" on="1"/>
        <pt x="278" y="373" on="1"/>
        <pt x="226" y="362" on="0"/>
        <pt x="176" y="362" on="1"/>
        <pt x="167" y="150" on="0"/>
        <pt x="130" y="-93" on="1"/>
        <pt x="113" y="-110" on="0"/>
        <pt x="88" y="-110" on="1"/>
        <pt x="80" y="-110" on="0"/>
        <pt x="80" y="-105" on="1"/>
        <pt x="105" y="90" on="0"/>
        <pt x="105" y="308" on="1"/>
        <pt x="105" y="347" on="0"/>
        <pt x="104" y="365" on="1"/>
        <pt x="73" y="367" on="0"/>
        <pt x="31" y="378" on="1"/>
        <pt x="24" y="381" on="0"/>
        <pt x="12" y="415" on="0"/>
        <pt x="11" y="426" on="1"/>
        <pt x="14" y="432" on="1"/>
        <pt x="54" y="424" on="0"/>
        <pt x="102" y="424" on="1"/>
        <pt x="101" y="440" on="0"/>
        <pt x="91" y="543" on="1"/>
        <pt x="99" y="587" on="0"/>
        <pt x="204" y="685" on="0"/>
        <pt x="314" y="712" on="1"/>
        <pt x="338" y="694" on="1"/>
        <pt x="315" y="608" on="1"/>
        <pt x="271" y="627" on="0"/>
        <pt x="243" y="627" on="1"/>
        <pt x="179" y="627" on="0"/>
        <pt x="179" y="497" on="1"/>
        <pt x="179" y="486" on="0"/>
        <pt x="178" y="439" on="0"/>
        <pt x="178" y="427" on="1"/>
        <pt x="237" y="434" on="0"/>
        <pt x="299" y="459" on="1"/>
      </contour>
    </TTGlyph>
    <TTGlyph name="fi" xMin="11" yMin="-110" xMax="458" yMax="698">
      <contour>
        <pt x="458" y="595" on="1"/>
        <pt x="434" y="577" on="1"/>
        <pt x="344" y="648" on="0"/>
        <pt x="277" y="648" on="1"/>
        <pt x="179" y="648" on="0"/>
        <pt x="179" y="497" on="1"/>
        <pt x="179" y="486" on="0"/>
        <pt x="178" y="440" on="0"/>
        <pt x="178" y="428" on="1"/>
        <pt x="306" y="444" on="0"/>
        <pt x="362" y="485" on="1"/>
        <pt x="443" y="446" on="1"/>
        <pt x="445" y="402" on="0"/>
        <pt x="445" y="380" on="1"/>
        <pt x="445" y="212" on="0"/>
        <pt x="384" y="1" on="1"/>
        <pt x="370" y="-13" on="0"/>
        <pt x="340" y="-13" on="0"/>
        <pt x="340" y="-9" on="1"/>
        <pt x="364" y="134" on="0"/>
        <pt x="364" y="333" on="0"/>
        <pt x="354" y="395" on="1"/>
        <pt x="326" y="380" on="0"/>
        <pt x="217" y="363" on="0"/>
        <pt x="176" y="362" on="1"/>
        <pt x="167" y="150" on="0"/>
        <pt x="130" y="-93" on="1"/>
        <pt x="113" y="-110" on="0"/>
        <pt x="88" y="-110" on="1"/>
        <pt x="80" y="-110" on="0"/>
        <pt x="80" y="-105" on="1"/>
        <pt x="105" y="90" on="0"/>
        <pt x="105" y="308" on="1"/>
        <pt x="105" y="347" on="0"/>
        <pt x="104" y="365" on="1"/>
        <pt x="73" y="367" on="0"/>
        <pt x="31" y="378" on="1"/>
        <pt x="24" y="381" on="0"/>
        <pt x="12" y="415" on="0"/>
        <pt x="11" y="426" on="1"/>
        <pt x="14" y="432" on="1"/>
        <pt x="54" y="424" on="0"/>
        <pt x="102" y="424" on="1"/>
        <pt x="101" y="440" on="0"/>
        <pt x="91" y="543" on="1"/>
        <pt x="146" y="698" on="0"/>
        <pt x="313" y="698" on="1"/>
        <pt x="372" y="698" on="0"/>
        <pt x="435" y="681" on="1"/>
      </contour>
    </TTGlyph>
    <TTGlyph name="five" xMin="41" yMin="-39" xMax="442" yMax="640">
      <contour>
        <pt x="320" y="362" on="0"/>
        <pt x="442" y="254" on="0"/>
        <pt x="442" y="73" on="0"/>
        <pt x="301" y="-39" on="0"/>
        <pt x="118" y="-39" on="0"/>
        <pt x="41" y="4" on="1"/>
        <pt x="41" y="15" on="0"/>
        <pt x="54" y="50" on="0"/>
        <pt x="60" y="50" on="1"/>
        <pt x="119" y="16" on="0"/>
        <pt x="244" y="16" on="0"/>
        <pt x="333" y="98" on="0"/>
        <pt x="333" y="227" on="0"/>
        <pt x="261" y="297" on="0"/>
        <pt x="160" y="297" on="0"/>
        <pt x="116" y="268" on="1"/>
        <pt x="101" y="257" on="0"/>
        <pt x="63" y="257" on="0"/>
        <pt x="63" y="259" on="1"/>
        <pt x="83" y="340" on="0"/>
        <pt x="83" y="476" on="1"/>
        <pt x="83" y="514" on="0"/>
        <pt x="80" y="552" on="1"/>
        <pt x="80" y="580" on="0"/>
        <pt x="98" y="599" on="1"/>
        <pt x="190" y="640" on="0"/>
        <pt x="324" y="640" on="1"/>
        <pt x="358" y="640" on="0"/>
        <pt x="393" y="637" on="1"/>
        <pt x="433" y="566" on="1"/>
        <pt x="422" y="538" on="1"/>
        <pt x="351" y="568" on="0"/>
        <pt x="233" y="568" on="1"/>
        <pt x="194" y="568" on="0"/>
        <pt x="162" y="565" on="1"/>
        <pt x="144" y="383" on="0"/>
        <pt x="134" y="332" on="1"/>
        <pt x="182" y="362" on="0"/>
        <pt x="239" y="362" on="1"/>
      </contour>
    </TTGlyph>
    <TTGlyph name="fl" xMin="11" yMin="-110" xMax="471" yMax="698">
      <contour>
        <pt x="80" y="-105" on="1"/>
        <pt x="105" y="90" on="0"/>
        <pt x="105" y="308" on="1"/>
        <pt x="105" y="347" on="0"/>
        <pt x="104" y="365" on="1"/>
        <pt x="73" y="367" on="0"/>
        <pt x="31" y="378" on="1"/>
        <pt x="24" y="381" on="0"/>
        <pt x="12" y="415" on="0"/>
        <pt x="11" y="426" on="1"/>
        <pt x="14" y="432" on="1"/>
        <pt x="54" y="424" on="0"/>
        <pt x="102" y="424" on="1"/>
        <pt x="101" y="440" on="0"/>
        <pt x="91" y="543" on="1"/>
        <pt x="146" y="698" on="0"/>
        <pt x="313" y="698" on="1"/>
        <pt x="372" y="698" on="0"/>
        <pt x="461" y="674" on="1"/>
        <pt x="471" y="603" on="0"/>
        <pt x="471" y="381" on="0"/>
        <pt x="431" y="91" on="0"/>
        <pt x="402" y="-14" on="1"/>
        <pt x="396" y="-21" on="0"/>
        <pt x="366" y="-31" on="0"/>
        <pt x="348" y="-31" on="0"/>
        <pt x="348" y="-26" on="1"/>
        <pt x="395" y="174" on="0"/>
        <pt x="395" y="379" on="1"/>
        <pt x="395" y="494" on="0"/>
        <pt x="374" y="616" on="1"/>
        <pt x="321" y="649" on="0"/>
        <pt x="233" y="649" on="0"/>
        <pt x="179" y="576" on="0"/>
        <pt x="179" y="497" on="1"/>
        <pt x="179" y="486" on="0"/>
        <pt x="178" y="439" on="0"/>
        <pt x="178" y="427" on="1"/>
        <pt x="237" y="434" on="0"/>
        <pt x="299" y="459" on="1"/>
        <pt x="308" y="442" on="1"/>
        <pt x="278" y="373" on="1"/>
        <pt x="226" y="362" on="0"/>
        <pt x="176" y="362" on="1"/>
        <pt x="167" y="150" on="0"/>
        <pt x="130" y="-93" on="1"/>
        <pt x="113" y="-110" on="0"/>
        <pt x="88" y="-110" on="1"/>
        <pt x="80" y="-110" on="0"/>
      </contour>
    </TTGlyph>
    <TTGlyph name="florin" xMin="-33" yMin="-284" xMax="477" yMax="664">
      <contour>
        <pt x="174" y="198" on="1"/>
        <pt x="173" y="263" on="1"/>
        <pt x="129" y="266" on="0"/>
        <pt x="85" y="275" on="1"/>
        <pt x="76" y="278" on="0"/>
        <pt x="59" y="313" on="0"/>
        <pt x="58" y="323" on="1"/>
        <pt x="63" y="329" on="1"/>
        <pt x="108" y="323" on="0"/>
        <pt x="170" y="321" on="1"/>
        <pt x="166" y="415" on="0"/>
        <pt x="166" y="499" on="0"/>
        <pt x="175" y="540" on="0"/>
        <pt x="210" y="589" on="0"/>
        <pt x="240" y="607" on="1"/>
        <pt x="311" y="649" on="0"/>
        <pt x="461" y="664" on="1"/>
        <pt x="477" y="638" on="1"/>
        <pt x="445" y="552" on="1"/>
        <pt x="399" y="588" on="0"/>
        <pt x="299" y="588" on="0"/>
        <pt x="263" y="540" on="0"/>
        <pt x="263" y="481" on="1"/>
        <pt x="263" y="376" on="0"/>
        <pt x="261" y="322" on="1"/>
        <pt x="341" y="328" on="0"/>
        <pt x="411" y="356" on="1"/>
        <pt x="420" y="339" on="1"/>
        <pt x="390" y="270" on="1"/>
        <pt x="332" y="259" on="0"/>
        <pt x="266" y="259" on="1"/>
        <pt x="259" y="259" on="1"/>
        <pt x="242" y="-83" on="0"/>
        <pt x="118" y="-209" on="1"/>
        <pt x="66" y="-262" on="0"/>
        <pt x="-8" y="-284" on="1"/>
        <pt x="-33" y="-266" on="1"/>
        <pt x="-10" y="-169" on="1"/>
        <pt x="9" y="-172" on="0"/>
        <pt x="25" y="-172" on="1"/>
        <pt x="71" y="-172" on="0"/>
        <pt x="134" y="-98" on="0"/>
        <pt x="148" y="-36" on="1"/>
        <pt x="174" y="73" on="0"/>
      </contour>
    </TTGlyph>
    <TTGlyph name="four" xMin="-6" yMin="-34" xMax="445" yMax="652">
      <contour>
        <pt x="250" y="633" on="1"/>
        <pt x="268" y="652" on="0"/>
        <pt x="298" y="652" on="1"/>
        <pt x="428" y="604" on="1"/>
        <pt x="372" y="467" on="0"/>
        <pt x="362" y="220" on="1"/>
        <pt x="401" y="231" on="0"/>
        <pt x="430" y="244" on="1"/>
        <pt x="445" y="217" on="1"/>
        <pt x="406" y="133" on="1"/>
        <pt x="393" y="130" on="0"/>
        <pt x="360" y="126" on="1"/>
        <pt x="360" y="92" on="1"/>
        <pt x="360" y="10" on="0"/>
        <pt x="364" y="-31" on="1"/>
        <pt x="364" y="-34" on="0"/>
        <pt x="356" y="-34" on="1"/>
        <pt x="330" y="-34" on="0"/>
        <pt x="318" y="-19" on="1"/>
        <pt x="308" y="50" on="0"/>
        <pt x="300" y="121" on="1"/>
        <pt x="250" y="119" on="0"/>
        <pt x="224" y="119" on="1"/>
        <pt x="98" y="119" on="0"/>
        <pt x="9" y="149" on="1"/>
        <pt x="3" y="154" on="0"/>
        <pt x="-6" y="186" on="0"/>
        <pt x="-6" y="195" on="1"/>
        <pt x="162" y="458" on="0"/>
      </contour>
      <contour>
        <pt x="97" y="188" on="1"/>
        <pt x="203" y="188" on="0"/>
        <pt x="292" y="204" on="1"/>
        <pt x="287" y="281" on="0"/>
        <pt x="287" y="425" on="0"/>
        <pt x="298" y="572" on="1"/>
        <pt x="288" y="572" on="1"/>
        <pt x="265" y="529" on="0"/>
        <pt x="145" y="281" on="0"/>
      </contour>
    </TTGlyph>
    <TTGlyph name="foursuperior" xMin="-7" yMin="421" xMax="272" yMax="840">
      <contour>
        <pt x="168" y="840" on="1"/>
        <pt x="219" y="840" on="0"/>
        <pt x="264" y="811" on="1"/>
        <pt x="229" y="730" on="0"/>
        <pt x="224" y="585" on="1"/>
        <pt x="259" y="598" on="1"/>
        <pt x="272" y="574" on="1"/>
        <pt x="247" y="519" on="1"/>
        <pt x="239" y="516" on="0"/>
        <pt x="222" y="514" on="1"/>
        <pt x="222" y="500" on="1"/>
        <pt x="222" y="458" on="0"/>
        <pt x="225" y="423" on="0"/>
        <pt x="220" y="421" on="0"/>
        <pt x="190" y="421" on="0"/>
        <pt x="182" y="433" on="1"/>
        <pt x="172" y="499" on="0"/>
        <pt x="171" y="510" on="1"/>
        <pt x="157" y="509" on="0"/>
        <pt x="135" y="509" on="1"/>
        <pt x="61" y="509" on="0"/>
        <pt x="8" y="527" on="1"/>
        <pt x="-7" y="538" on="0"/>
        <pt x="-7" y="563" on="1"/>
        <pt x="44" y="644" on="1"/>
        <pt x="127" y="777" on="0"/>
      </contour>
      <contour>
        <pt x="169" y="750" on="1"/>
        <pt x="92" y="604" on="0"/>
        <pt x="72" y="564" on="1"/>
        <pt x="121" y="564" on="0"/>
        <pt x="166" y="571" on="1"/>
        <pt x="164" y="599" on="0"/>
        <pt x="164" y="711" on="0"/>
      </contour>
    </TTGlyph>
    <TTGlyph name="fraction" xMin="174" yMin="-103" xMax="634" yMax="738">
      <contour>
        <pt x="222" y="-98" on="1"/>
        <pt x="220" y="-103" on="0"/>
        <pt x="210" y="-103" on="1"/>
        <pt x="188" y="-103" on="0"/>
        <pt x="174" y="-81" on="1"/>
        <pt x="375" y="401" on="0"/>
        <pt x="519" y="716" on="1"/>
        <pt x="602" y="738" on="1"/>
        <pt x="634" y="712" on="1"/>
        <pt x="535" y="554" on="0"/>
        <pt x="403" y="289" on="0"/>
        <pt x="347" y="173" on="0"/>
        <pt x="243" y="-54" on="0"/>
      </contour>
    </TTGlyph>
    <TTGlyph name="g" xMin="18" yMin="-284" xMax="399" yMax="485">
      <contour>
        <pt x="315" y="458" on="1"/>
        <pt x="373" y="485" on="1"/>
        <pt x="398" y="468" on="1"/>
        <pt x="399" y="448" on="0"/>
        <pt x="399" y="385" on="1"/>
        <pt x="399" y="228" on="0"/>
        <pt x="349" y="7" on="1"/>
        <pt x="325" y="-103" on="0"/>
        <pt x="250" y="-189" on="1"/>
        <pt x="212" y="-232" on="0"/>
        <pt x="104" y="-284" on="0"/>
        <pt x="42" y="-284" on="1"/>
        <pt x="18" y="-266" on="1"/>
        <pt x="41" y="-169" on="1"/>
        <pt x="87" y="-182" on="0"/>
        <pt x="125" y="-182" on="1"/>
        <pt x="311" y="-182" on="0"/>
        <pt x="314" y="203" on="1"/>
        <pt x="271" y="103" on="0"/>
        <pt x="165" y="-12" on="0"/>
        <pt x="113" y="-12" on="1"/>
        <pt x="74" y="-12" on="0"/>
        <pt x="32" y="51" on="0"/>
        <pt x="32" y="170" on="0"/>
        <pt x="84" y="283" on="0"/>
        <pt x="127" y="326" on="1"/>
        <pt x="208" y="409" on="0"/>
      </contour>
      <contour>
        <pt x="312" y="304" on="1"/>
        <pt x="310" y="337" on="0"/>
        <pt x="300" y="404" on="1"/>
        <pt x="208" y="364" on="0"/>
        <pt x="112" y="227" on="0"/>
        <pt x="112" y="166" on="1"/>
        <pt x="112" y="135" on="0"/>
        <pt x="139" y="98" on="0"/>
        <pt x="164" y="98" on="1"/>
        <pt x="198" y="98" on="0"/>
        <pt x="282" y="206" on="0"/>
      </contour>
    </TTGlyph>
    <TTGlyph name="germandbls" xMin="11" yMin="-110" xMax="529" yMax="712">
      <contour>
        <pt x="240" y="266" on="1"/>
        <pt x="219" y="304" on="1"/>
        <pt x="269" y="364" on="0"/>
        <pt x="354" y="500" on="0"/>
        <pt x="354" y="545" on="0"/>
        <pt x="300" y="620" on="0"/>
        <pt x="275" y="640" on="1"/>
        <pt x="213" y="640" on="0"/>
        <pt x="194" y="594" on="1"/>
        <pt x="179" y="556" on="0"/>
        <pt x="179" y="497" on="1"/>
        <pt x="179" y="229" on="0"/>
        <pt x="130" y="-93" on="1"/>
        <pt x="113" y="-110" on="0"/>
        <pt x="88" y="-110" on="1"/>
        <pt x="80" y="-110" on="0"/>
        <pt x="80" y="-105" on="1"/>
        <pt x="105" y="90" on="0"/>
        <pt x="105" y="308" on="1"/>
        <pt x="105" y="347" on="0"/>
        <pt x="104" y="364" on="1"/>
        <pt x="62" y="369" on="0"/>
        <pt x="31" y="378" on="1"/>
        <pt x="24" y="381" on="0"/>
        <pt x="12" y="415" on="0"/>
        <pt x="11" y="426" on="1"/>
        <pt x="14" y="432" on="1"/>
        <pt x="54" y="424" on="0"/>
        <pt x="102" y="424" on="1"/>
        <pt x="101" y="440" on="0"/>
        <pt x="91" y="543" on="1"/>
        <pt x="95" y="564" on="0"/>
        <pt x="112" y="599" on="0"/>
        <pt x="134" y="624" on="1"/>
        <pt x="181" y="676" on="0"/>
        <pt x="314" y="712" on="1"/>
        <pt x="381" y="668" on="0"/>
        <pt x="439" y="554" on="1"/>
        <pt x="402" y="443" on="0"/>
        <pt x="309" y="344" on="1"/>
        <pt x="334" y="350" on="0"/>
        <pt x="359" y="350" on="1"/>
        <pt x="434" y="350" on="0"/>
        <pt x="529" y="249" on="0"/>
        <pt x="529" y="73" on="0"/>
        <pt x="401" y="-39" on="0"/>
        <pt x="238" y="-39" on="0"/>
        <pt x="165" y="4" on="1"/>
        <pt x="165" y="15" on="0"/>
        <pt x="178" y="50" on="0"/>
        <pt x="184" y="50" on="1"/>
        <pt x="236" y="16" on="0"/>
        <pt x="343" y="16" on="0"/>
        <pt x="420" y="98" on="0"/>
        <pt x="420" y="221" on="0"/>
        <pt x="364" y="290" on="0"/>
        <pt x="282" y="290" on="0"/>
      </contour>
    </TTGlyph>
    <TTGlyph name="grave" xMin="50" yMin="522" xMax="269" yMax="717">
      <contour>
        <pt x="50" y="620" on="1"/>
        <pt x="62" y="707" on="1"/>
        <pt x="78" y="717" on="1"/>
        <pt x="155" y="612" on="0"/>
        <pt x="269" y="560" on="1"/>
        <pt x="269" y="550" on="0"/>
        <pt x="244" y="523" on="0"/>
        <pt x="236" y="522" on="1"/>
        <pt x="177" y="540" on="0"/>
        <pt x="93" y="583" on="0"/>
      </contour>
    </TTGlyph>
    <TTGlyph name="greater" xMin="45" yMin="96" xMax="456" yMax="503">
      <contour>
        <pt x="456" y="332" on="1"/>
        <pt x="447" y="271" on="1"/>
        <pt x="222" y="189" on="0"/>
        <pt x="88" y="96" on="1"/>
        <pt x="58" y="107" on="1"/>
        <pt x="45" y="175" on="1"/>
        <pt x="161" y="241" on="0"/>
        <pt x="341" y="295" on="1"/>
        <pt x="343" y="308" on="1"/>
        <pt x="172" y="367" on="0"/>
        <pt x="84" y="428" on="1"/>
        <pt x="118" y="492" on="1"/>
        <pt x="149" y="503" on="1"/>
        <pt x="198" y="454" on="0"/>
        <pt x="345" y="376" on="0"/>
      </contour>
    </TTGlyph>
    <TTGlyph name="greaterequal" xMin="45" yMin="30" xMax="458" yMax="623">
      <contour>
        <pt x="456" y="452" on="1"/>
        <pt x="447" y="391" on="1"/>
        <pt x="222" y="309" on="0"/>
        <pt x="88" y="216" on="1"/>
        <pt x="58" y="227" on="1"/>
        <pt x="45" y="295" on="1"/>
        <pt x="161" y="361" on="0"/>
        <pt x="341" y="415" on="1"/>
        <pt x="343" y="428" on="1"/>
        <pt x="172" y="487" on="0"/>
        <pt x="84" y="548" on="1"/>
        <pt x="118" y="612" on="1"/>
        <pt x="149" y="623" on="1"/>
        <pt x="198" y="574" on="0"/>
        <pt x="345" y="496" on="0"/>
      </contour>
      <contour>
        <pt x="440" y="149" on="1"/>
        <pt x="458" y="94" on="1"/>
        <pt x="449" y="56" on="1"/>
        <pt x="383" y="64" on="0"/>
        <pt x="334" y="64" on="1"/>
        <pt x="212" y="64" on="0"/>
        <pt x="54" y="30" on="1"/>
        <pt x="46" y="30" on="0"/>
        <pt x="46" y="81" on="0"/>
        <pt x="48" y="88" on="1"/>
        <pt x="263" y="150" on="0"/>
        <pt x="397" y="150" on="1"/>
        <pt x="426" y="150" on="0"/>
      </contour>
    </TTGlyph>
    <TTGlyph name="guillemotleft" xMin="40" yMin="44" xMax="484" yMax="485">
      <contour>
        <pt x="40" y="234" on="1"/>
        <pt x="45" y="295" on="1"/>
        <pt x="99" y="330" on="0"/>
        <pt x="183" y="414" on="0"/>
        <pt x="241" y="485" on="1"/>
        <pt x="259" y="473" on="1"/>
        <pt x="269" y="386" on="1"/>
        <pt x="215" y="331" on="0"/>
        <pt x="119" y="271" on="1"/>
        <pt x="118" y="258" on="1"/>
        <pt x="178" y="215" on="0"/>
        <pt x="227" y="169" on="0"/>
        <pt x="248" y="143" on="1"/>
        <pt x="222" y="56" on="1"/>
        <pt x="202" y="44" on="1"/>
        <pt x="131" y="170" on="0"/>
      </contour>
      <contour>
        <pt x="255" y="234" on="1"/>
        <pt x="260" y="295" on="1"/>
        <pt x="314" y="330" on="0"/>
        <pt x="398" y="414" on="0"/>
        <pt x="456" y="485" on="1"/>
        <pt x="474" y="473" on="1"/>
        <pt x="484" y="386" on="1"/>
        <pt x="430" y="331" on="0"/>
        <pt x="334" y="271" on="1"/>
        <pt x="333" y="258" on="1"/>
        <pt x="393" y="215" on="0"/>
        <pt x="442" y="169" on="0"/>
        <pt x="463" y="143" on="1"/>
        <pt x="437" y="56" on="1"/>
        <pt x="417" y="44" on="1"/>
        <pt x="346" y="170" on="0"/>
      </contour>
    </TTGlyph>
    <TTGlyph name="guillemotright" xMin="60" yMin="44" xMax="504" yMax="485">
      <contour>
        <pt x="289" y="295" on="1"/>
        <pt x="284" y="234" on="1"/>
        <pt x="230" y="199" on="0"/>
        <pt x="146" y="115" on="0"/>
        <pt x="88" y="44" on="1"/>
        <pt x="70" y="56" on="1"/>
        <pt x="60" y="143" on="1"/>
        <pt x="114" y="198" on="0"/>
        <pt x="210" y="258" on="1"/>
        <pt x="211" y="271" on="1"/>
        <pt x="151" y="314" on="0"/>
        <pt x="102" y="360" on="0"/>
        <pt x="81" y="386" on="1"/>
        <pt x="107" y="473" on="1"/>
        <pt x="127" y="485" on="1"/>
        <pt x="198" y="359" on="0"/>
      </contour>
      <contour>
        <pt x="504" y="295" on="1"/>
        <pt x="499" y="234" on="1"/>
        <pt x="445" y="199" on="0"/>
        <pt x="361" y="115" on="0"/>
        <pt x="303" y="44" on="1"/>
        <pt x="285" y="56" on="1"/>
        <pt x="275" y="143" on="1"/>
        <pt x="329" y="198" on="0"/>
        <pt x="425" y="258" on="1"/>
        <pt x="426" y="271" on="1"/>
        <pt x="366" y="314" on="0"/>
        <pt x="317" y="360" on="0"/>
        <pt x="296" y="386" on="1"/>
        <pt x="322" y="473" on="1"/>
        <pt x="342" y="485" on="1"/>
        <pt x="413" y="359" on="0"/>
      </contour>
    </TTGlyph>
    <TTGlyph name="guilsinglleft" xMin="40" yMin="44" xMax="269" yMax="485">
      <contour>
        <pt x="40" y="234" on="1"/>
        <pt x="45" y="295" on="1"/>
        <pt x="99" y="330" on="0"/>
        <pt x="183" y="414" on="0"/>
        <pt x="241" y="485" on="1"/>
        <pt x="259" y="473" on="1"/>
        <pt x="269" y="386" on="1"/>
        <pt x="215" y="331" on="0"/>
        <pt x="119" y="271" on="1"/>
        <pt x="118" y="258" on="1"/>
        <pt x="178" y="215" on="0"/>
        <pt x="227" y="169" on="0"/>
        <pt x="248" y="143" on="1"/>
        <pt x="222" y="56" on="1"/>
        <pt x="202" y="44" on="1"/>
        <pt x="131" y="170" on="0"/>
      </contour>
    </TTGlyph>
    <TTGlyph name="guilsinglright" xMin="60" yMin="44" xMax="289" yMax="485">
      <contour>
        <pt x="289" y="295" on="1"/>
        <pt x="284" y="234" on="1"/>
        <pt x="230" y="199" on="0"/>
        <pt x="146" y="115" on="0"/>
        <pt x="88" y="44" on="1"/>
        <pt x="70" y="56" on="1"/>
        <pt x="60" y="143" on="1"/>
        <pt x="114" y="198" on="0"/>
        <pt x="210" y="258" on="1"/>
        <pt x="211" y="271" on="1"/>
        <pt x="151" y="314" on="0"/>
        <pt x="102" y="360" on="0"/>
        <pt x="81" y="386" on="1"/>
        <pt x="107" y="473" on="1"/>
        <pt x="127" y="485" on="1"/>
        <pt x="198" y="359" on="0"/>
      </contour>
    </TTGlyph>
    <TTGlyph name="h" xMin="68" yMin="-31" xMax="441" yMax="712">
      <contour>
        <pt x="353" y="-19" on="1"/>
        <pt x="367" y="116" on="0"/>
        <pt x="367" y="195" on="1"/>
        <pt x="367" y="352" on="0"/>
        <pt x="308" y="352" on="1"/>
        <pt x="264" y="352" on="0"/>
        <pt x="169" y="206" on="0"/>
        <pt x="138" y="73" on="1"/>
        <pt x="137" y="73" on="1"/>
        <pt x="132" y="48" on="0"/>
        <pt x="118" y="-14" on="1"/>
        <pt x="112" y="-21" on="0"/>
        <pt x="85" y="-31" on="0"/>
        <pt x="68" y="-31" on="0"/>
        <pt x="68" y="-26" on="1"/>
        <pt x="113" y="183" on="0"/>
        <pt x="113" y="564" on="0"/>
        <pt x="74" y="696" on="1"/>
        <pt x="99" y="712" on="1"/>
        <pt x="179" y="674" on="1"/>
        <pt x="189" y="607" on="0"/>
        <pt x="189" y="422" on="0"/>
        <pt x="173" y="296" on="1"/>
        <pt x="215" y="376" on="0"/>
        <pt x="316" y="472" on="0"/>
        <pt x="361" y="472" on="1"/>
        <pt x="441" y="472" on="0"/>
        <pt x="441" y="359" on="1"/>
        <pt x="441" y="266" on="0"/>
        <pt x="407" y="21" on="0"/>
        <pt x="404" y="-8" on="1"/>
        <pt x="390" y="-22" on="0"/>
        <pt x="360" y="-22" on="1"/>
        <pt x="353" y="-22" on="0"/>
      </contour>
    </TTGlyph>
    <TTGlyph name="hungarumlaut" xMin="50" yMin="517" xMax="386" yMax="711">
      <contour>
        <pt x="203" y="703" on="1"/>
        <pt x="228" y="628" on="1"/>
        <pt x="191" y="586" on="0"/>
        <pt x="128" y="538" on="0"/>
        <pt x="82" y="517" on="1"/>
        <pt x="75" y="517" on="0"/>
        <pt x="51" y="542" on="0"/>
        <pt x="50" y="552" on="1"/>
        <pt x="144" y="627" on="0"/>
        <pt x="188" y="711" on="1"/>
      </contour>
      <contour>
        <pt x="361" y="703" on="1"/>
        <pt x="386" y="628" on="1"/>
        <pt x="349" y="586" on="0"/>
        <pt x="286" y="538" on="0"/>
        <pt x="240" y="517" on="1"/>
        <pt x="233" y="517" on="0"/>
        <pt x="209" y="542" on="0"/>
        <pt x="208" y="552" on="1"/>
        <pt x="302" y="627" on="0"/>
        <pt x="346" y="711" on="1"/>
      </contour>
    </TTGlyph>
    <TTGlyph name="hyphen" xMin="35" yMin="219" xMax="366" yMax="326">
      <contour>
        <pt x="366" y="308" on="1"/>
        <pt x="333" y="230" on="1"/>
        <pt x="267" y="219" on="0"/>
        <pt x="126" y="219" on="0"/>
        <pt x="58" y="236" on="1"/>
        <pt x="51" y="240" on="0"/>
        <pt x="37" y="278" on="0"/>
        <pt x="35" y="290" on="1"/>
        <pt x="39" y="296" on="1"/>
        <pt x="90" y="288" on="0"/>
        <pt x="149" y="288" on="1"/>
        <pt x="256" y="288" on="0"/>
        <pt x="355" y="326" on="1"/>
      </contour>
    </TTGlyph>
    <TTGlyph name="i" xMin="70" yMin="-13" xMax="202" yMax="676">
      <contour>
        <pt x="175" y="446" on="1"/>
        <pt x="177" y="416" on="0"/>
        <pt x="177" y="384" on="1"/>
        <pt x="177" y="210" on="0"/>
        <pt x="116" y="1" on="1"/>
        <pt x="102" y="-13" on="0"/>
        <pt x="78" y="-13" on="1"/>
        <pt x="73" y="-13" on="0"/>
        <pt x="70" y="-11" on="0"/>
        <pt x="71" y="-9" on="1"/>
        <pt x="95" y="134" on="0"/>
        <pt x="95" y="374" on="0"/>
        <pt x="70" y="470" on="1"/>
        <pt x="94" y="485" on="1"/>
      </contour>
      <contour>
        <pt x="109" y="545" on="0"/>
        <pt x="82" y="579" on="0"/>
        <pt x="82" y="631" on="0"/>
        <pt x="128" y="670" on="0"/>
        <pt x="172" y="676" on="1"/>
        <pt x="202" y="651" on="0"/>
        <pt x="202" y="582" on="0"/>
        <pt x="160" y="545" on="0"/>
      </contour>
    </TTGlyph>
    <TTGlyph name="iacute" xMin="6" yMin="-13" xMax="225" yMax="717">
      <contour>
        <pt x="175" y="446" on="1"/>
        <pt x="177" y="402" on="0"/>
        <pt x="177" y="380" on="1"/>
        <pt x="177" y="212" on="0"/>
        <pt x="116" y="1" on="1"/>
        <pt x="102" y="-13" on="0"/>
        <pt x="71" y="-13" on="0"/>
        <pt x="71" y="-10" on="1"/>
        <pt x="71" y="-9" on="1"/>
        <pt x="96" y="141" on="0"/>
        <pt x="96" y="369" on="0"/>
        <pt x="70" y="470" on="1"/>
        <pt x="94" y="485" on="1"/>
      </contour>
      <contour>
        <pt x="213" y="707" on="1"/>
        <pt x="225" y="620" on="1"/>
        <pt x="182" y="583" on="0"/>
        <pt x="98" y="540" on="0"/>
        <pt x="39" y="522" on="1"/>
        <pt x="31" y="523" on="0"/>
        <pt x="6" y="550" on="0"/>
        <pt x="6" y="560" on="1"/>
        <pt x="120" y="612" on="0"/>
        <pt x="197" y="717" on="1"/>
      </contour>
    </TTGlyph>
    <TTGlyph name="icircumflex" xMin="-3" yMin="-13" xMax="272" yMax="707">
      <component glyphName="dotlessi" x="0" y="0" flags="0x1004"/>
      <component glyphName="circumflex" x="-53" y="0" flags="0x1004"/>
    </TTGlyph>
    <TTGlyph name="idieresis" xMin="-11" yMin="-13" xMax="290" yMax="674">
      <component glyphName="dotlessi" x="0" y="0" flags="0x1004"/>
      <component glyphName="dieresis" x="-61" y="0" flags="0x1004"/>
    </TTGlyph>
    <TTGlyph name="igrave" xMin="27" yMin="-13" xMax="246" yMax="717">
      <component glyphName="dotlessi" x="0" y="0" flags="0x1004"/>
      <component glyphName="grave" x="-23" y="0" flags="0x1004"/>
    </TTGlyph>
    <TTGlyph name="infinity" xMin="53" yMin="114" xMax="656" yMax="481">
      <contour>
        <pt x="345" y="224" on="1"/>
        <pt x="316" y="169" on="0"/>
        <pt x="236" y="114" on="0"/>
        <pt x="194" y="114" on="1"/>
        <pt x="132" y="114" on="0"/>
        <pt x="53" y="199" on="0"/>
        <pt x="53" y="271" on="1"/>
        <pt x="53" y="364" on="0"/>
        <pt x="163" y="481" on="0"/>
        <pt x="232" y="481" on="1"/>
        <pt x="276" y="481" on="0"/>
        <pt x="347" y="426" on="0"/>
        <pt x="363" y="371" on="1"/>
        <pt x="422" y="481" on="0"/>
        <pt x="515" y="481" on="1"/>
        <pt x="576" y="481" on="0"/>
        <pt x="656" y="395" on="0"/>
        <pt x="656" y="324" on="1"/>
        <pt x="656" y="232" on="0"/>
        <pt x="545" y="114" on="0"/>
        <pt x="476" y="114" on="1"/>
        <pt x="432" y="114" on="0"/>
        <pt x="361" y="169" on="0"/>
      </contour>
      <contour>
        <pt x="332" y="296" on="1"/>
        <pt x="300" y="386" on="0"/>
        <pt x="222" y="386" on="1"/>
        <pt x="183" y="386" on="0"/>
        <pt x="125" y="323" on="0"/>
        <pt x="125" y="252" on="0"/>
        <pt x="166" y="208" on="0"/>
        <pt x="204" y="208" on="1"/>
        <pt x="289" y="208" on="0"/>
      </contour>
      <contour>
        <pt x="391" y="257" on="0"/>
        <pt x="447" y="209" on="0"/>
        <pt x="526" y="209" on="0"/>
        <pt x="582" y="271" on="0"/>
        <pt x="582" y="343" on="0"/>
        <pt x="543" y="387" on="0"/>
        <pt x="467" y="387" on="0"/>
        <pt x="398" y="344" on="0"/>
        <pt x="376" y="299" on="1"/>
      </contour>
    </TTGlyph>
    <TTGlyph name="integral" xMin="-59" yMin="-220" xMax="355" yMax="716">
      <contour>
        <pt x="355" y="698" on="1"/>
        <pt x="332" y="601" on="1"/>
        <pt x="314" y="604" on="0"/>
        <pt x="298" y="604" on="1"/>
        <pt x="195" y="604" on="0"/>
        <pt x="195" y="323" on="1"/>
        <pt x="195" y="281" on="1"/>
        <pt x="195" y="75" on="0"/>
        <pt x="48" y="-217" on="0"/>
        <pt x="-35" y="-220" on="1"/>
        <pt x="-59" y="-202" on="1"/>
        <pt x="-36" y="-105" on="1"/>
        <pt x="-18" y="-108" on="0"/>
        <pt x="-2" y="-108" on="1"/>
        <pt x="101" y="-108" on="0"/>
        <pt x="101" y="172" on="1"/>
        <pt x="101" y="215" on="1"/>
        <pt x="101" y="421" on="0"/>
        <pt x="248" y="713" on="0"/>
        <pt x="331" y="716" on="1"/>
      </contour>
    </TTGlyph>
    <TTGlyph name="j" xMin="-106" yMin="-284" xMax="214" yMax="696">
      <contour>
        <pt x="83" y="-11" on="1"/>
        <pt x="105" y="116" on="0"/>
        <pt x="105" y="358" on="0"/>
        <pt x="84" y="468" on="1"/>
        <pt x="109" y="485" on="1"/>
        <pt x="189" y="442" on="1"/>
        <pt x="190" y="422" on="0"/>
        <pt x="190" y="385" on="1"/>
        <pt x="190" y="228" on="0"/>
        <pt x="140" y="7" on="1"/>
        <pt x="85" y="-235" on="0"/>
        <pt x="-81" y="-284" on="1"/>
        <pt x="-106" y="-266" on="1"/>
        <pt x="-83" y="-169" on="1"/>
        <pt x="-64" y="-172" on="0"/>
        <pt x="-48" y="-172" on="1"/>
        <pt x="2" y="-172" on="0"/>
        <pt x="69" y="-86" on="0"/>
      </contour>
      <contour>
        <pt x="121" y="565" on="0"/>
        <pt x="93" y="600" on="0"/>
        <pt x="94" y="651" on="0"/>
        <pt x="140" y="690" on="0"/>
        <pt x="184" y="696" on="1"/>
        <pt x="214" y="671" on="0"/>
        <pt x="214" y="602" on="0"/>
        <pt x="172" y="565" on="0"/>
      </contour>
    </TTGlyph>
    <TTGlyph name="k" xMin="60" yMin="-31" xMax="426" yMax="712">
      <contour>
        <pt x="417" y="455" on="1"/>
        <pt x="391" y="349" on="1"/>
        <pt x="374" y="353" on="0"/>
        <pt x="356" y="353" on="1"/>
        <pt x="299" y="353" on="0"/>
        <pt x="244" y="303" on="1"/>
        <pt x="273" y="223" on="0"/>
        <pt x="376" y="36" on="0"/>
        <pt x="426" y="-19" on="1"/>
        <pt x="426" y="-20" on="1"/>
        <pt x="426" y="-31" on="0"/>
        <pt x="393" y="-31" on="1"/>
        <pt x="384" y="-31" on="0"/>
        <pt x="381" y="-30" on="1"/>
        <pt x="327" y="16" on="0"/>
        <pt x="209" y="173" on="0"/>
        <pt x="183" y="224" on="1"/>
        <pt x="182" y="225" on="1"/>
        <pt x="140" y="153" on="0"/>
        <pt x="127" y="73" on="1"/>
        <pt x="123" y="69" on="1"/>
        <pt x="107" y="-2" on="1"/>
        <pt x="101" y="-9" on="0"/>
        <pt x="74" y="-19" on="0"/>
        <pt x="60" y="-19" on="0"/>
        <pt x="60" y="-14" on="1"/>
        <pt x="102" y="182" on="0"/>
        <pt x="102" y="564" on="0"/>
        <pt x="63" y="696" on="1"/>
        <pt x="88" y="712" on="1"/>
        <pt x="168" y="674" on="1"/>
        <pt x="178" y="599" on="0"/>
        <pt x="178" y="402" on="0"/>
        <pt x="154" y="243" on="1"/>
        <pt x="245" y="428" on="0"/>
        <pt x="391" y="474" on="1"/>
      </contour>
    </TTGlyph>
    <TTGlyph name="l" xMin="60" yMin="-31" xMax="184" yMax="712">
      <contour>
        <pt x="93" y="712" on="1"/>
        <pt x="173" y="674" on="1"/>
        <pt x="184" y="600" on="0"/>
        <pt x="184" y="427" on="0"/>
        <pt x="174" y="329" on="1"/>
        <pt x="153" y="131" on="0"/>
        <pt x="114" y="-14" on="1"/>
        <pt x="108" y="-21" on="0"/>
        <pt x="78" y="-31" on="0"/>
        <pt x="60" y="-31" on="0"/>
        <pt x="60" y="-26" on="1"/>
        <pt x="107" y="174" on="0"/>
        <pt x="107" y="564" on="0"/>
        <pt x="68" y="696" on="1"/>
      </contour>
    </TTGlyph>
    <TTGlyph name="less" xMin="44" yMin="96" xMax="455" yMax="503">
      <contour>
        <pt x="44" y="267" on="1"/>
        <pt x="53" y="328" on="1"/>
        <pt x="278" y="410" on="0"/>
        <pt x="412" y="503" on="1"/>
        <pt x="442" y="492" on="1"/>
        <pt x="455" y="424" on="1"/>
        <pt x="339" y="358" on="0"/>
        <pt x="159" y="304" on="1"/>
        <pt x="157" y="291" on="1"/>
        <pt x="328" y="232" on="0"/>
        <pt x="416" y="171" on="1"/>
        <pt x="382" y="107" on="1"/>
        <pt x="351" y="96" on="1"/>
        <pt x="302" y="145" on="0"/>
        <pt x="155" y="223" on="0"/>
      </contour>
    </TTGlyph>
    <TTGlyph name="lessequal" xMin="44" yMin="30" xMax="458" yMax="623">
      <contour>
        <pt x="44" y="387" on="1"/>
        <pt x="53" y="448" on="1"/>
        <pt x="278" y="530" on="0"/>
        <pt x="412" y="623" on="1"/>
        <pt x="442" y="612" on="1"/>
        <pt x="455" y="544" on="1"/>
        <pt x="339" y="478" on="0"/>
        <pt x="159" y="424" on="1"/>
        <pt x="157" y="411" on="1"/>
        <pt x="328" y="352" on="0"/>
        <pt x="416" y="291" on="1"/>
        <pt x="382" y="227" on="1"/>
        <pt x="351" y="216" on="1"/>
        <pt x="302" y="265" on="0"/>
        <pt x="155" y="343" on="0"/>
      </contour>
      <contour>
        <pt x="440" y="149" on="1"/>
        <pt x="458" y="94" on="1"/>
        <pt x="449" y="56" on="1"/>
        <pt x="383" y="64" on="0"/>
        <pt x="334" y="64" on="1"/>
        <pt x="212" y="64" on="0"/>
        <pt x="54" y="30" on="1"/>
        <pt x="46" y="30" on="0"/>
        <pt x="46" y="81" on="0"/>
        <pt x="48" y="88" on="1"/>
        <pt x="263" y="150" on="0"/>
        <pt x="397" y="150" on="1"/>
        <pt x="426" y="150" on="0"/>
      </contour>
    </TTGlyph>
    <TTGlyph name="logicalnot" xMin="38" yMin="99" xMax="445" yMax="393">
      <contour>
        <pt x="445" y="375" on="1"/>
        <pt x="413" y="299" on="1"/>
        <pt x="407" y="258" on="0"/>
        <pt x="407" y="162" on="0"/>
        <pt x="426" y="101" on="1"/>
        <pt x="426" y="99" on="0"/>
        <pt x="393" y="99" on="0"/>
        <pt x="382" y="107" on="1"/>
        <pt x="336" y="198" on="0"/>
        <pt x="333" y="286" on="1"/>
        <pt x="275" y="281" on="0"/>
        <pt x="136" y="281" on="0"/>
        <pt x="61" y="299" on="1"/>
        <pt x="54" y="303" on="0"/>
        <pt x="40" y="341" on="0"/>
        <pt x="38" y="353" on="1"/>
        <pt x="42" y="359" on="1"/>
        <pt x="93" y="351" on="0"/>
        <pt x="222" y="351" on="0"/>
        <pt x="396" y="378" on="0"/>
        <pt x="434" y="393" on="1"/>
      </contour>
    </TTGlyph>
    <TTGlyph name="lozenge" xMin="35" yMin="-217" xMax="516" yMax="677">
      <contour>
        <pt x="516" y="227" on="1"/>
        <pt x="467" y="143" on="0"/>
        <pt x="421" y="57" on="0"/>
        <pt x="365" y="-94" on="0"/>
        <pt x="354" y="-169" on="1"/>
        <pt x="275" y="-217" on="1"/>
        <pt x="247" y="-217" on="0"/>
        <pt x="231" y="-198" on="1"/>
        <pt x="174" y="-103" on="0"/>
        <pt x="122" y="-10" on="0"/>
        <pt x="54" y="152" on="0"/>
        <pt x="35" y="233" on="1"/>
        <pt x="84" y="317" on="0"/>
        <pt x="130" y="403" on="0"/>
        <pt x="186" y="554" on="0"/>
        <pt x="197" y="629" on="1"/>
        <pt x="276" y="677" on="1"/>
        <pt x="304" y="677" on="0"/>
        <pt x="320" y="658" on="1"/>
        <pt x="377" y="563" on="0"/>
        <pt x="429" y="470" on="0"/>
        <pt x="497" y="308" on="0"/>
      </contour>
      <contour>
        <pt x="418" y="190" on="1"/>
        <pt x="415" y="287" on="0"/>
        <pt x="343" y="508" on="0"/>
        <pt x="286" y="599" on="1"/>
        <pt x="224" y="404" on="0"/>
        <pt x="133" y="270" on="1"/>
        <pt x="136" y="173" on="0"/>
        <pt x="208" y="-48" on="0"/>
        <pt x="265" y="-139" on="1"/>
        <pt x="327" y="56" on="0"/>
      </contour>
    </TTGlyph>
    <TTGlyph name="lslash" xMin="-10" yMin="-31" xMax="271" yMax="712">
      <contour>
        <pt x="179" y="391" on="1"/>
        <pt x="218" y="414" on="0"/>
        <pt x="253" y="449" on="1"/>
        <pt x="271" y="439" on="1"/>
        <pt x="271" y="366" on="1"/>
        <pt x="223" y="338" on="0"/>
        <pt x="173" y="317" on="1"/>
        <pt x="154" y="134" on="0"/>
        <pt x="114" y="-14" on="1"/>
        <pt x="108" y="-21" on="0"/>
        <pt x="78" y="-31" on="0"/>
        <pt x="60" y="-31" on="0"/>
        <pt x="60" y="-26" on="1"/>
        <pt x="97" y="132" on="0"/>
        <pt x="105" y="295" on="1"/>
        <pt x="79" y="288" on="0"/>
        <pt x="11" y="274" on="1"/>
        <pt x="3" y="277" on="0"/>
        <pt x="-10" y="299" on="0"/>
        <pt x="-10" y="310" on="1"/>
        <pt x="61" y="332" on="0"/>
        <pt x="107" y="353" on="1"/>
        <pt x="107" y="379" on="1"/>
        <pt x="107" y="564" on="0"/>
        <pt x="68" y="696" on="1"/>
        <pt x="93" y="712" on="1"/>
        <pt x="173" y="674" on="1"/>
        <pt x="183" y="603" on="0"/>
        <pt x="183" y="456" on="0"/>
      </contour>
    </TTGlyph>
    <TTGlyph name="m" xMin="63" yMin="-22" xMax="695" yMax="485">
      <contour>
        <pt x="72" y="-9" on="1"/>
        <pt x="96" y="117" on="0"/>
        <pt x="96" y="323" on="0"/>
        <pt x="81" y="408" on="0"/>
        <pt x="64" y="466" on="0"/>
        <pt x="63" y="470" on="1"/>
        <pt x="87" y="485" on="1"/>
        <pt x="168" y="446" on="1"/>
        <pt x="176" y="377" on="0"/>
        <pt x="176" y="308" on="0"/>
        <pt x="176" y="301" on="1"/>
        <pt x="215" y="379" on="0"/>
        <pt x="310" y="472" on="0"/>
        <pt x="392" y="472" on="0"/>
        <pt x="432" y="411" on="0"/>
        <pt x="432" y="319" on="0"/>
        <pt x="429" y="280" on="1"/>
        <pt x="468" y="366" on="0"/>
        <pt x="570" y="472" on="0"/>
        <pt x="655" y="472" on="0"/>
        <pt x="695" y="411" on="0"/>
        <pt x="695" y="318" on="0"/>
        <pt x="687" y="217" on="0"/>
        <pt x="678" y="146" on="0"/>
        <pt x="661" y="23" on="0"/>
        <pt x="657" y="-8" on="1"/>
        <pt x="645" y="-22" on="0"/>
        <pt x="614" y="-22" on="1"/>
        <pt x="608" y="-22" on="0"/>
        <pt x="608" y="-19" on="1"/>
        <pt x="621" y="124" on="0"/>
        <pt x="621" y="195" on="1"/>
        <pt x="621" y="352" on="0"/>
        <pt x="565" y="352" on="1"/>
        <pt x="522" y="352" on="0"/>
        <pt x="433" y="206" on="0"/>
        <pt x="404" y="73" on="1"/>
        <pt x="400" y="46" on="0"/>
        <pt x="394" y="-8" on="1"/>
        <pt x="382" y="-22" on="0"/>
        <pt x="350" y="-22" on="1"/>
        <pt x="345" y="-22" on="0"/>
        <pt x="345" y="-19" on="1"/>
        <pt x="358" y="124" on="0"/>
        <pt x="358" y="195" on="1"/>
        <pt x="358" y="352" on="0"/>
        <pt x="302" y="352" on="1"/>
        <pt x="266" y="352" on="0"/>
        <pt x="188" y="245" on="0"/>
        <pt x="158" y="145" on="1"/>
        <pt x="145" y="76" on="0"/>
        <pt x="117" y="1" on="1"/>
        <pt x="103" y="-13" on="0"/>
        <pt x="72" y="-13" on="0"/>
      </contour>
    </TTGlyph>
    <TTGlyph name="macron" xMin="40" yMin="565" xMax="287" yMax="667">
      <contour>
        <pt x="45" y="636" on="1"/>
        <pt x="83" y="628" on="0"/>
        <pt x="125" y="628" on="1"/>
        <pt x="215" y="628" on="0"/>
        <pt x="274" y="667" on="1"/>
        <pt x="287" y="648" on="1"/>
        <pt x="263" y="576" on="1"/>
        <pt x="213" y="565" on="0"/>
        <pt x="108" y="565" on="0"/>
        <pt x="57" y="582" on="1"/>
        <pt x="51" y="586" on="0"/>
        <pt x="40" y="621" on="0"/>
        <pt x="40" y="636" on="0"/>
      </contour>
    </TTGlyph>
    <TTGlyph name="minus" xMin="46" yMin="265" xMax="458" yMax="385">
      <contour>
        <pt x="440" y="384" on="1"/>
        <pt x="458" y="329" on="1"/>
        <pt x="449" y="291" on="1"/>
        <pt x="383" y="299" on="0"/>
        <pt x="334" y="299" on="1"/>
        <pt x="212" y="299" on="0"/>
        <pt x="54" y="265" on="1"/>
        <pt x="46" y="265" on="0"/>
        <pt x="46" y="316" on="0"/>
        <pt x="48" y="323" on="1"/>
        <pt x="263" y="385" on="0"/>
        <pt x="397" y="385" on="1"/>
        <pt x="426" y="385" on="0"/>
      </contour>
    </TTGlyph>
    <TTGlyph name="mu" xMin="69" yMin="-226" xMax="464" yMax="493">
      <contour>
        <pt x="159" y="468" on="1"/>
        <pt x="145" y="335" on="0"/>
        <pt x="145" y="255" on="1"/>
        <pt x="145" y="90" on="0"/>
        <pt x="204" y="90" on="1"/>
        <pt x="241" y="90" on="0"/>
        <pt x="321" y="196" on="0"/>
        <pt x="351" y="293" on="1"/>
        <pt x="350" y="309" on="0"/>
        <pt x="350" y="407" on="0"/>
        <pt x="359" y="458" on="1"/>
        <pt x="439" y="493" on="1"/>
        <pt x="464" y="479" on="1"/>
        <pt x="431" y="382" on="0"/>
        <pt x="431" y="255" on="1"/>
        <pt x="431" y="200" on="0"/>
        <pt x="448" y="8" on="0"/>
        <pt x="457" y="-25" on="1"/>
        <pt x="457" y="-28" on="0"/>
        <pt x="426" y="-28" on="0"/>
        <pt x="412" y="-14" on="1"/>
        <pt x="382" y="58" on="0"/>
        <pt x="361" y="203" on="1"/>
        <pt x="278" y="-1" on="0"/>
        <pt x="202" y="-1" on="1"/>
        <pt x="168" y="-1" on="0"/>
        <pt x="136" y="42" on="1"/>
        <pt x="126" y="-26" on="0"/>
        <pt x="126" y="-180" on="0"/>
        <pt x="128" y="-224" on="0"/>
        <pt x="124" y="-226" on="0"/>
        <pt x="93" y="-226" on="0"/>
        <pt x="86" y="-214" on="1"/>
        <pt x="69" y="-72" on="0"/>
        <pt x="69" y="47" on="1"/>
        <pt x="69" y="232" on="0"/>
        <pt x="109" y="458" on="1"/>
        <pt x="114" y="463" on="0"/>
        <pt x="144" y="472" on="0"/>
        <pt x="159" y="472" on="0"/>
      </contour>
    </TTGlyph>
    <TTGlyph name="multiply" xMin="71" yMin="124" xMax="450" yMax="525">
      <contour>
        <pt x="73" y="466" on="1"/>
        <pt x="106" y="510" on="1"/>
        <pt x="140" y="525" on="1"/>
        <pt x="182" y="452" on="0"/>
        <pt x="236" y="382" on="1"/>
        <pt x="315" y="471" on="0"/>
        <pt x="385" y="517" on="1"/>
        <pt x="433" y="487" on="1"/>
        <pt x="450" y="453" on="1"/>
        <pt x="370" y="400" on="0"/>
        <pt x="285" y="322" on="1"/>
        <pt x="364" y="230" on="0"/>
        <pt x="444" y="164" on="1"/>
        <pt x="445" y="163" on="0"/>
        <pt x="445" y="156" on="0"/>
        <pt x="416" y="132" on="0"/>
        <pt x="402" y="127" on="1"/>
        <pt x="310" y="197" on="0"/>
        <pt x="233" y="271" on="1"/>
        <pt x="166" y="203" on="0"/>
        <pt x="111" y="126" on="1"/>
        <pt x="109" y="124" on="0"/>
        <pt x="103" y="125" on="0"/>
        <pt x="76" y="153" on="0"/>
        <pt x="71" y="166" on="1"/>
        <pt x="119" y="240" on="0"/>
        <pt x="184" y="320" on="1"/>
        <pt x="110" y="399" on="0"/>
      </contour>
    </TTGlyph>
    <TTGlyph name="n" xMin="63" yMin="-22" xMax="445" yMax="485">
      <contour>
        <pt x="72" y="-9" on="1"/>
        <pt x="96" y="117" on="0"/>
        <pt x="96" y="323" on="0"/>
        <pt x="81" y="408" on="0"/>
        <pt x="64" y="466" on="0"/>
        <pt x="63" y="470" on="1"/>
        <pt x="87" y="485" on="1"/>
        <pt x="168" y="446" on="1"/>
        <pt x="176" y="388" on="0"/>
        <pt x="176" y="310" on="0"/>
        <pt x="175" y="292" on="1"/>
        <pt x="217" y="374" on="0"/>
        <pt x="319" y="472" on="0"/>
        <pt x="362" y="472" on="1"/>
        <pt x="445" y="472" on="0"/>
        <pt x="445" y="359" on="1"/>
        <pt x="445" y="271" on="0"/>
        <pt x="411" y="26" on="0"/>
        <pt x="407" y="-8" on="1"/>
        <pt x="395" y="-22" on="0"/>
        <pt x="363" y="-22" on="1"/>
        <pt x="356" y="-22" on="0"/>
        <pt x="356" y="-19" on="1"/>
        <pt x="371" y="109" on="0"/>
        <pt x="371" y="195" on="1"/>
        <pt x="371" y="352" on="0"/>
        <pt x="312" y="352" on="1"/>
        <pt x="267" y="352" on="0"/>
        <pt x="172" y="206" on="0"/>
        <pt x="142" y="73" on="1"/>
        <pt x="140" y="73" on="1"/>
        <pt x="126" y="25" on="0"/>
        <pt x="117" y="1" on="1"/>
        <pt x="103" y="-13" on="0"/>
        <pt x="72" y="-13" on="0"/>
      </contour>
    </TTGlyph>
    <TTGlyph name="nine" xMin="38" yMin="-45" xMax="465" yMax="665">
      <contour>
        <pt x="334" y="276" on="1"/>
        <pt x="325" y="282" on="1"/>
        <pt x="276" y="250" on="0"/>
        <pt x="223" y="250" on="1"/>
        <pt x="149" y="250" on="0"/>
        <pt x="38" y="359" on="0"/>
        <pt x="38" y="534" on="0"/>
        <pt x="149" y="665" on="0"/>
        <pt x="249" y="665" on="1"/>
        <pt x="306" y="665" on="0"/>
        <pt x="393" y="625" on="0"/>
        <pt x="418" y="591" on="1"/>
        <pt x="465" y="525" on="0"/>
        <pt x="465" y="334" on="0"/>
        <pt x="320" y="64" on="0"/>
        <pt x="230" y="-43" on="1"/>
        <pt x="224" y="-45" on="0"/>
        <pt x="206" y="-45" on="0"/>
        <pt x="196" y="-43" on="1"/>
        <pt x="176" y="-39" on="0"/>
        <pt x="176" y="-35" on="1"/>
        <pt x="176" y="-33" on="1"/>
        <pt x="289" y="139" on="0"/>
      </contour>
      <contour>
        <pt x="270" y="611" on="1"/>
        <pt x="222" y="611" on="0"/>
        <pt x="138" y="511" on="0"/>
        <pt x="138" y="378" on="0"/>
        <pt x="205" y="308" on="0"/>
        <pt x="299" y="308" on="0"/>
        <pt x="369" y="378" on="0"/>
        <pt x="369" y="492" on="0"/>
        <pt x="314" y="593" on="0"/>
      </contour>
    </TTGlyph>
    <TTGlyph name="notequal" xMin="46" yMin="-15" xMax="463" yMax="657">
      <contour>
        <pt x="449" y="283" on="1"/>
        <pt x="463" y="227" on="1"/>
        <pt x="451" y="190" on="1"/>
        <pt x="361" y="208" on="0"/>
        <pt x="160" y="208" on="0"/>
        <pt x="54" y="194" on="1"/>
        <pt x="49" y="194" on="0"/>
        <pt x="49" y="242" on="0"/>
        <pt x="53" y="251" on="1"/>
        <pt x="233" y="290" on="0"/>
        <pt x="340" y="290" on="1"/>
        <pt x="394" y="290" on="0"/>
      </contour>
      <contour>
        <pt x="440" y="464" on="1"/>
        <pt x="458" y="410" on="1"/>
        <pt x="449" y="372" on="1"/>
        <pt x="377" y="379" on="0"/>
        <pt x="334" y="379" on="1"/>
        <pt x="208" y="379" on="0"/>
        <pt x="53" y="346" on="1"/>
        <pt x="46" y="346" on="0"/>
        <pt x="46" y="396" on="0"/>
        <pt x="48" y="404" on="1"/>
        <pt x="268" y="466" on="0"/>
        <pt x="397" y="466" on="1"/>
        <pt x="426" y="466" on="0"/>
      </contour>
      <contour>
        <pt x="104" y="-11" on="1"/>
        <pt x="104" y="-15" on="0"/>
        <pt x="76" y="-15" on="0"/>
        <pt x="66" y="2" on="1"/>
        <pt x="236" y="408" on="0"/>
        <pt x="342" y="640" on="1"/>
        <pt x="408" y="657" on="1"/>
        <pt x="434" y="637" on="1"/>
        <pt x="349" y="502" on="0"/>
        <pt x="260" y="320" on="1"/>
        <pt x="216" y="230" on="0"/>
      </contour>
    </TTGlyph>
    <TTGlyph name="ntilde" xMin="63" yMin="-22" xMax="445" yMax="673">
      <component glyphName="n" x="0" y="0" flags="0x1004"/>
      <component glyphName="tilde" x="76" y="0" flags="0x1004"/>
    </TTGlyph>
    <TTGlyph name="numbersign" xMin="-84" yMin="-38" xMax="560" yMax="719">
      <contour>
        <pt x="34" y="-33" on="1"/>
        <pt x="32" y="-38" on="0"/>
        <pt x="15" y="-38" on="0"/>
        <pt x="-12" y="-26" on="0"/>
        <pt x="-18" y="-18" on="1"/>
        <pt x="17" y="160" on="0"/>
        <pt x="22" y="184" on="1"/>
        <pt x="-50" y="180" on="1"/>
        <pt x="-84" y="238" on="1"/>
        <pt x="-71" y="277" on="1"/>
        <pt x="-19" y="269" on="0"/>
        <pt x="39" y="264" on="1"/>
        <pt x="47" y="300" on="0"/>
        <pt x="71" y="404" on="1"/>
        <pt x="0" y="400" on="1"/>
        <pt x="-34" y="458" on="1"/>
        <pt x="-21" y="497" on="1"/>
        <pt x="29" y="489" on="0"/>
        <pt x="90" y="484" on="1"/>
        <pt x="106" y="555" on="0"/>
        <pt x="142" y="699" on="1"/>
        <pt x="218" y="719" on="1"/>
        <pt x="251" y="696" on="1"/>
        <pt x="208" y="594" on="0"/>
        <pt x="171" y="479" on="1"/>
        <pt x="195" y="478" on="0"/>
        <pt x="296" y="478" on="0"/>
        <pt x="356" y="481" on="1"/>
        <pt x="409" y="699" on="1"/>
        <pt x="485" y="719" on="1"/>
        <pt x="518" y="696" on="1"/>
        <pt x="477" y="599" on="0"/>
        <pt x="441" y="486" on="1"/>
        <pt x="470" y="488" on="0"/>
        <pt x="551" y="496" on="1"/>
        <pt x="560" y="496" on="0"/>
        <pt x="560" y="455" on="0"/>
        <pt x="552" y="442" on="1"/>
        <pt x="485" y="433" on="0"/>
        <pt x="422" y="427" on="1"/>
        <pt x="406" y="373" on="0"/>
        <pt x="376" y="265" on="1"/>
        <pt x="460" y="272" on="0"/>
        <pt x="501" y="276" on="1"/>
        <pt x="510" y="276" on="0"/>
        <pt x="510" y="235" on="0"/>
        <pt x="502" y="222" on="1"/>
        <pt x="408" y="210" on="0"/>
        <pt x="361" y="206" on="1"/>
        <pt x="301" y="-33" on="1"/>
        <pt x="298" y="-38" on="0"/>
        <pt x="282" y="-38" on="0"/>
        <pt x="255" y="-26" on="0"/>
        <pt x="249" y="-18" on="1"/>
        <pt x="266" y="76" on="0"/>
        <pt x="293" y="201" on="1"/>
        <pt x="216" y="195" on="0"/>
        <pt x="89" y="188" on="1"/>
        <pt x="47" y="17" on="0"/>
      </contour>
      <contour>
        <pt x="342" y="421" on="1"/>
        <pt x="273" y="415" on="0"/>
        <pt x="149" y="408" on="1"/>
        <pt x="125" y="323" on="0"/>
        <pt x="108" y="260" on="1"/>
        <pt x="136" y="258" on="0"/>
        <pt x="246" y="258" on="0"/>
        <pt x="306" y="261" on="1"/>
        <pt x="322" y="337" on="0"/>
      </contour>
    </TTGlyph>
    <TTGlyph name="o" xMin="42" yMin="-33" xMax="428" yMax="485">
      <contour>
        <pt x="420" y="457" on="1"/>
        <pt x="372" y="402" on="1"/>
        <pt x="428" y="334" on="0"/>
        <pt x="428" y="231" on="1"/>
        <pt x="428" y="86" on="0"/>
        <pt x="335" y="8" on="1"/>
        <pt x="286" y="-33" on="0"/>
        <pt x="143" y="-33" on="0"/>
        <pt x="42" y="81" on="0"/>
        <pt x="42" y="181" on="1"/>
        <pt x="42" y="286" on="0"/>
        <pt x="120" y="372" on="1"/>
        <pt x="161" y="417" on="0"/>
        <pt x="310" y="477" on="0"/>
        <pt x="409" y="485" on="1"/>
      </contour>
      <contour>
        <pt x="229" y="58" on="1"/>
        <pt x="290" y="58" on="0"/>
        <pt x="371" y="162" on="0"/>
        <pt x="371" y="218" on="1"/>
        <pt x="371" y="339" on="0"/>
        <pt x="316" y="405" on="1"/>
        <pt x="239" y="392" on="0"/>
        <pt x="133" y="280" on="0"/>
        <pt x="133" y="138" on="0"/>
        <pt x="184" y="58" on="0"/>
      </contour>
    </TTGlyph>
    <TTGlyph name="oacute" xMin="42" yMin="-33" xMax="428" yMax="717">
      <component glyphName="o" x="0" y="0" flags="0x1004"/>
      <component glyphName="acute" x="121" y="0" flags="0x1004"/>
    </TTGlyph>
</ttFont>
